<svg width="695" height="56" viewBox="0 0 695 56" fill="none"
    xmlns="http://www.w3.org/2000/svg">
    <path d="M0 51H648L647 56H0V51Z" fill="#DC143C"/>
    <path d="M674 51H694V56H673L674 51Z" fill="#333333"/>
    <path d="M374.861 38V25.49H382.223V27.164H376.913V30.854H381.053V32.528H376.913V38H374.861ZM385.565 25.49H387.617V36.344H391.847V38H385.565V25.49ZM398.081 33.464L393.923 25.49H396.209L399.107 31.628L402.005 25.49H404.273L400.133 33.464V38H398.081V33.464ZM419.573 38V25.49H426.935V27.164H421.625V30.854H425.765V32.528H421.625V38H419.573ZM438.719 38L437.819 35.444H432.581L431.681 38H429.539L434.021 25.472H436.397L440.879 38H438.719ZM437.243 33.77L435.209 27.956L433.157 33.77H437.243ZM450.91 29.234C450.91 27.974 450.19 27.164 448.588 27.164H446.32V31.358H448.588C450.19 31.358 450.91 30.476 450.91 29.234ZM444.268 25.49H448.588C451.558 25.49 453.016 27.2 453.016 29.234C453.016 30.71 452.224 32.294 450.118 32.816L453.214 38H450.766L447.886 32.996H446.32V38H444.268V25.49ZM469.312 38V25.49H471.364V38H469.312ZM483.724 25.472H485.776V38H483.724L477.55 28.658V38H475.498V25.472H477.55L483.724 34.796V25.472ZM489.263 27.164V25.49H497.993V27.164H494.663V38H492.611V27.164H489.263ZM508.423 25.472V27.146H503.563V30.818H507.883V32.492H503.563V36.326H508.423V38H501.511V25.472H508.423ZM519.033 29.234C519.033 27.974 518.313 27.164 516.711 27.164H514.443V31.358H516.711C518.313 31.358 519.033 30.476 519.033 29.234ZM512.391 25.49H516.711C519.681 25.49 521.139 27.2 521.139 29.234C521.139 30.71 520.347 32.294 518.241 32.816L521.337 38H518.889L516.009 32.996H514.443V38H512.391V25.49ZM533.43 25.472H535.482V38H533.43L527.256 28.658V38H525.204V25.472H527.256L533.43 34.796V25.472ZM548.058 38L547.158 35.444H541.92L541.02 38H538.878L543.36 25.472H545.736L550.218 38H548.058ZM546.582 33.77L544.548 27.956L542.496 33.77H546.582ZM552.959 27.164V25.49H561.689V27.164H558.359V38H556.307V27.164H552.959ZM565.207 38V25.49H567.259V38H565.207ZM583.489 31.718C583.489 35.48 580.663 38.126 577.099 38.126C573.571 38.126 570.709 35.48 570.709 31.718C570.709 27.974 573.571 25.328 577.099 25.328C580.663 25.328 583.489 27.974 583.489 31.718ZM572.815 31.718C572.815 34.544 574.615 36.344 577.099 36.344C579.583 36.344 581.383 34.544 581.383 31.718C581.383 28.892 579.583 27.128 577.099 27.128C574.615 27.128 572.815 28.892 572.815 31.718ZM595.175 25.472H597.227V38H595.175L589.001 28.658V38H586.949V25.472H589.001L595.175 34.796V25.472ZM609.803 38L608.903 35.444H603.665L602.765 38H600.623L605.105 25.472H607.481L611.963 38H609.803ZM608.327 33.77L606.293 27.956L604.241 33.77H608.327ZM615.352 25.49H617.404V36.344H621.634V38H615.352V25.49Z" fill="#333333"/>
    <path d="M657.293 56.0011C660.418 43.101 658.087 27.7253 682.738 10.3438C683.108 10.4572 683.646 11.3904 683.445 12.019C681.461 17.3009 668.651 22.2522 665.685 56.0011C663.345 56.0011 660.013 56.0011 657.293 56.0011Z" fill="#DC143C"/>
    <path d="M687.711 4.82021C687.442 4.65819 687.182 4.50266 686.923 4.35036C685.186 3.31019 684.469 2.89865 682.729 1.86172C682.576 1.77099 682.576 1.68674 682.725 1.59601C682.995 1.44047 683.267 1.28493 683.533 1.12291C683.64 1.0581 683.743 1.04514 683.866 1.07754C685.808 1.61221 689.082 2.57785 689.468 2.68803C689.549 2.71071 689.594 2.69127 689.646 2.63294C690.304 1.93949 690.664 1.60897 691.335 0.928485C691.889 0.364655 693.001 -0.144089 693.837 0.0373735C693.957 0.056816 693.999 0.0989429 694.019 0.218838C694.129 0.983574 693.649 2.08207 693.088 2.68155C692.498 3.31019 691.944 3.84161 691.38 4.3698C691.322 4.42489 691.305 4.47025 691.328 4.55126C691.967 6.87139 692.327 7.84027 692.968 10.1604C693.004 10.29 692.991 10.4034 692.923 10.5169C692.761 10.7826 692.609 11.0548 692.45 11.3237C692.369 11.4598 692.281 11.4631 692.2 11.327C691.364 9.93358 691.163 9.56741 690.327 8.17079C689.973 7.5778 689.617 6.98481 689.263 6.39181C689.254 6.37561 689.244 6.36265 689.228 6.33673C689.114 6.44042 689.001 6.53763 688.891 6.63808C688.025 7.4093 687.16 8.18052 686.294 8.94849C686.229 9.00682 686.22 9.05867 686.239 9.13644C686.369 9.69379 686.495 10.2479 686.628 10.8052C686.654 10.9122 686.631 11.0029 686.55 11.0807C686.447 11.1844 686.343 11.2881 686.239 11.3918C686.152 11.4793 686.103 11.4728 686.041 11.3626C685.724 10.7826 685.095 9.36651 684.969 9.08783C684.719 8.97118 683.283 8.33282 682.7 8.01526C682.57 7.94397 682.563 7.90184 682.67 7.79815C682.768 7.70094 682.868 7.60372 682.962 7.50651C683.043 7.42226 683.131 7.39958 683.244 7.4255C683.802 7.55512 684.356 7.68149 684.913 7.81435C684.994 7.83379 685.043 7.82083 685.101 7.75602C685.954 6.79362 686.81 5.8377 687.662 4.87854C687.675 4.86234 687.688 4.84614 687.711 4.82021Z" fill="#DC143C"/>
    <path d="M656.507 15.541H648.047L660.523 31.7171C661.158 29.4748 661.995 27.5305 663.204 25.4696L656.507 15.541Z" fill="#333333"/>
</svg>
