<svg width="15" height="15" viewBox="0 0 15 15" fill="none" xmlns="http://www.w3.org/2000/svg">
<path fill-rule="evenodd" clip-rule="evenodd" d="M4.11613 14.2723C3.56268 14.2723 3.11237 13.8219 3.11237 13.2678C3.12225 13.008 3.2324 12.7621 3.4197 12.5818C3.607 12.4015 3.85688 12.3007 4.11686 12.3007C4.37685 12.3007 4.62672 12.4015 4.81402 12.5818C5.00132 12.7621 5.11147 13.008 5.12135 13.2678C5.12135 13.8219 4.67104 14.2723 4.11686 14.2723M4.11686 11.6829C3.69653 11.6833 3.29349 11.8504 2.99614 12.1475C2.69878 12.4445 2.53136 12.8474 2.53059 13.2678C2.53059 14.1422 3.24238 14.854 4.11686 14.854C4.99134 14.854 5.70313 14.1422 5.70313 13.2678C5.70313 12.394 4.99134 11.6829 4.11686 11.6829ZM10.6362 14.2723C10.0821 14.2723 9.63175 13.8219 9.63175 13.2678C9.63161 13.0689 9.69046 12.8744 9.80086 12.709C9.91126 12.5436 10.0682 12.4146 10.252 12.3385C10.4357 12.2623 10.6378 12.2423 10.8329 12.2811C11.028 12.3199 11.2071 12.4156 11.3478 12.5562C11.4884 12.6969 11.5841 12.876 11.6229 13.0711C11.6617 13.2662 11.6417 13.4683 11.5655 13.652C11.4894 13.8358 11.3604 13.9927 11.195 14.1031C11.0296 14.2135 10.8351 14.2724 10.6362 14.2723ZM10.6362 11.6829C10.2159 11.6833 9.81288 11.8504 9.51552 12.1475C9.21816 12.4445 9.05075 12.8474 9.04998 13.2678C9.04998 14.1422 9.76176 14.854 10.6362 14.854C11.51 14.854 12.2218 14.1422 12.2218 13.2678C12.2218 12.394 11.51 11.6829 10.6362 11.6829ZM1.76143 10.969C1.6648 11.0664 1.54136 11.1329 1.40683 11.16C1.27229 11.1871 1.13274 11.1735 1.00594 11.121C0.879147 11.0685 0.770839 10.9795 0.694807 10.8652C0.618775 10.751 0.578459 10.6167 0.578991 10.4794C0.578991 10.2942 0.651622 10.1206 0.782358 9.98991L2.98018 7.79281C3.04409 7.72818 3.12022 7.67691 3.20414 7.64199C3.28806 7.60708 3.37809 7.58921 3.46899 7.58945C3.64621 7.58945 3.82416 7.65699 3.9578 7.79209L4.44806 8.28235L1.76143 10.969ZM6.6023 2.4457C6.61452 2.05066 6.78003 1.67589 7.06378 1.40077C7.34754 1.12565 7.72725 0.971798 8.12247 0.971798C8.5177 0.971798 8.89741 1.12565 9.18117 1.40077C9.46492 1.67589 9.63043 2.05066 9.64265 2.4457C9.63043 2.84074 9.46492 3.21551 9.18117 3.49063C8.89741 3.76575 8.5177 3.9196 8.12247 3.9196C7.72725 3.9196 7.34754 3.76575 7.06378 3.49063C6.78003 3.21551 6.61452 2.84074 6.6023 2.4457ZM14.3063 1.04174C14.1357 0.869953 13.9326 0.733737 13.7089 0.640979C13.4853 0.548221 13.2454 0.500765 13.0033 0.50136C12.7612 0.500876 12.5215 0.548456 12.2979 0.641342C12.0744 0.734227 11.8715 0.87057 11.701 1.04246L10.2172 2.52632C10.2186 2.49945 10.2244 2.4733 10.2244 2.4457C10.2238 1.88866 10.0024 1.35457 9.60865 0.960546C9.2149 0.566521 8.68097 0.344711 8.12393 0.34375C7.56663 0.344327 7.03233 0.565967 6.63826 0.960034C6.2442 1.3541 6.02256 1.8884 6.02198 2.4457C6.02275 3.00287 6.24447 3.53699 6.63852 3.9309C7.03256 4.32481 7.56676 4.54635 8.12393 4.54692C8.15153 4.54692 8.17695 4.53966 8.20455 4.53821L4.86496 7.87707L4.37034 7.38099C4.13123 7.14233 3.80719 7.00829 3.46935 7.00829C3.13151 7.00829 2.80748 7.14233 2.56836 7.38099L0.370539 9.57809C0.252072 9.69616 0.158204 9.83655 0.0943716 9.99115C0.0305389 10.1457 -0.00199052 10.3115 -0.001333 10.4787C-0.001333 10.8194 0.13013 11.1389 0.371265 11.3793C0.610949 11.619 0.930526 11.7519 1.27189 11.7519C1.61253 11.7519 1.93211 11.6198 2.17252 11.3793L2.86615 10.6857C2.88465 10.6959 2.90411 10.7041 2.92425 10.7104C2.9337 10.7133 2.94023 10.7206 2.95113 10.7235C3.06516 10.7518 5.78012 11.428 7.52835 11.5152C7.57629 11.5173 7.62277 11.5188 7.67143 11.5188C8.39266 11.5188 9.05869 11.2464 9.60488 10.7257C10.4677 9.90493 10.9609 8.50605 10.9609 6.88855V4.83382C10.9563 4.72141 10.9084 4.61514 10.8273 4.53723C10.7461 4.45932 10.638 4.41582 10.5255 4.41582C10.413 4.41582 10.3048 4.45932 10.2237 4.53723C10.1425 4.61514 10.0946 4.72141 10.0901 4.83382V6.88928C10.0901 8.26927 9.69422 9.43864 9.00422 10.096C8.59313 10.486 8.11376 10.6814 7.5712 10.645C6.4505 10.5898 4.85044 10.2637 3.91858 10.0553L12.3177 1.65838C12.4077 1.56776 12.5147 1.49584 12.6326 1.44673C12.7505 1.39763 12.8769 1.37231 13.0046 1.37225C13.1323 1.37218 13.2588 1.39736 13.3767 1.44634C13.4947 1.49532 13.6018 1.56713 13.6918 1.65765C13.8737 1.84008 13.9758 2.08716 13.9758 2.34474C13.9758 2.60232 13.8737 2.8494 13.6918 3.03183C13.6514 3.07227 13.6193 3.12029 13.5974 3.17313C13.5755 3.22596 13.5643 3.2826 13.5643 3.33979C13.5643 3.39698 13.5755 3.45362 13.5974 3.50646C13.6193 3.55929 13.6514 3.60731 13.6918 3.64775C13.7323 3.68819 13.7803 3.72027 13.8331 3.74215C13.886 3.76404 13.9426 3.77531 13.9998 3.77531C14.057 3.77531 14.1136 3.76404 14.1665 3.74215C14.2193 3.72027 14.2673 3.68819 14.3078 3.64775C14.4789 3.47664 14.6146 3.2735 14.7072 3.04993C14.7998 2.82636 14.8475 2.58673 14.8475 2.34474C14.8475 2.10275 14.7998 1.86313 14.7072 1.63955C14.6146 1.41598 14.4789 1.21284 14.3078 1.04174H14.3063ZM8.02878 12.9758H6.81439C6.73714 12.9758 6.66306 13.0065 6.60844 13.0611C6.55382 13.1157 6.52313 13.1898 6.52313 13.267C6.52313 13.3443 6.55382 13.4184 6.60844 13.473C6.66306 13.5276 6.73714 13.5583 6.81439 13.5583H8.02878C8.10593 13.5583 8.17992 13.5276 8.23447 13.4731C8.28902 13.4185 8.31967 13.3445 8.31967 13.2674C8.31967 13.1902 8.28902 13.1163 8.23447 13.0617C8.17992 13.0072 8.10593 12.9765 8.02878 12.9765" fill="#292F37"/>
</svg>
