<svg width="28" height="20" viewBox="0 0 28 27" fill=""
    xmlns="http://www.w3.org/2000/svg">
    <path d="M2.01037 10.996C1.71929 10.996 1.44013 10.8809 1.2343 10.6761C1.02847 10.4712 0.912842 10.1933 0.912842 9.90362V1.16662C0.912842 0.876895 1.02847 0.59904 1.2343 0.394175C1.44013 0.189311 1.71929 0.0742188 2.01037 0.0742188H10.7906C11.0817 0.0742188 11.3608 0.189311 11.5667 0.394175C11.7725 0.59904 11.8881 0.876895 11.8881 1.16662V9.90362C11.8881 10.1933 11.7725 10.4712 11.5667 10.6761C11.3608 10.8809 11.0817 10.996 10.7906 10.996H2.01037ZM17.3758 10.996C17.0847 10.996 16.8055 10.8809 16.5997 10.6761C16.3939 10.4712 16.2782 10.1933 16.2782 9.90362V1.16662C16.2782 0.876895 16.3939 0.59904 16.5997 0.394175C16.8055 0.189311 17.0847 0.0742188 17.3758 0.0742188H26.1538C26.4449 0.0742188 26.724 0.189311 26.9298 0.394175C27.1357 0.59904 27.2513 0.876895 27.2513 1.16662V9.90362C27.2513 10.1933 27.1357 10.4712 26.9298 10.6761C26.724 10.8809 26.4449 10.996 26.1538 10.996H17.3758ZM2.01037 26.2896C1.71929 26.2896 1.44013 26.1745 1.2343 25.9697C1.02847 25.7648 0.912842 25.4869 0.912842 25.1972V16.458C0.912842 16.1683 1.02847 15.8904 1.2343 15.6856C1.44013 15.4807 1.71929 15.3656 2.01037 15.3656H10.7906C11.0817 15.3656 11.3608 15.4807 11.5667 15.6856C11.7725 15.8904 11.8881 16.1683 11.8881 16.458V25.1972C11.8881 25.4869 11.7725 25.7648 11.5667 25.9697C11.3608 26.1745 11.0817 26.2896 10.7906 26.2896H2.01037ZM17.3758 26.2896C17.0847 26.2896 16.8055 26.1745 16.5997 25.9697C16.3939 25.7648 16.2782 25.4869 16.2782 25.1972V16.458C16.2782 16.1683 16.3939 15.8904 16.5997 15.6856C16.8055 15.4807 17.0847 15.3656 17.3758 15.3656H26.1538C26.4449 15.3656 26.724 15.4807 26.9298 15.6856C27.1357 15.8904 27.2513 16.1683 27.2513 16.458V25.1972C27.2513 25.4869 27.1357 25.7648 26.9298 25.9697C26.724 26.1745 26.4449 26.2896 26.1538 26.2896H17.3758Z" fill=""/>
</svg>
