<svg width="28" height="28" viewBox="0 0 28 28" fill="none"
    xmlns="http://www.w3.org/2000/svg">
    <path d="M26.367 5.70122C26.367 6.29654 26.0371 6.88602 25.3963 7.43602C24.7554 7.98602 23.816 8.48576 22.6318 8.90671C21.4476 9.32767 20.0418 9.66158 18.4945 9.8894C16.9473 10.1172 15.289 10.2345 13.6143 10.2345C10.2321 10.2345 6.98835 9.75686 4.59676 8.90671C2.20516 8.05657 0.861572 6.90351 0.861572 5.70122C0.861572 5.10591 1.19143 4.51642 1.83231 3.96642C2.4732 3.41642 3.41256 2.91668 4.59676 2.49573C5.78095 2.07478 7.1868 1.74086 8.73403 1.51304C10.2813 1.28522 11.9396 1.16797 13.6143 1.16797C15.289 1.16797 16.9473 1.28522 18.4945 1.51304C20.0418 1.74086 21.4476 2.07478 22.6318 2.49573C23.816 2.91668 24.7554 3.41642 25.3963 3.96642C26.0371 4.51642 26.367 5.10591 26.367 5.70122Z" stroke="currentColor" stroke-width="1.32" stroke-linecap="round" stroke-linejoin="round"/>
    <path d="M26.367 22.0195C26.367 22.8153 25.7777 23.597 24.6585 24.2862C23.5392 24.9753 21.9293 25.5476 19.9906 25.9454C18.052 26.3433 15.8529 26.5528 13.6143 26.5528C11.3757 26.5528 9.17659 26.3433 7.23793 25.9454C5.29927 25.5476 3.6894 24.9753 2.57011 24.2862C1.45083 23.597 0.861572 22.8153 0.861572 22.0195" stroke="currentColor" stroke-width="1.32" stroke-linecap="round" stroke-linejoin="round"/>
    <path d="M26.367 16.5781C26.367 17.3739 25.7777 18.1556 24.6585 18.8448C23.5392 19.5339 21.9293 20.1062 19.9906 20.504C18.052 20.9019 15.8529 21.1114 13.6143 21.1114C11.3757 21.1114 9.17658 20.9019 7.23793 20.504C5.29927 20.1062 3.6894 19.5339 2.57011 18.8448C1.45083 18.1556 0.861573 17.3739 0.861572 16.5781" stroke="currentColor" stroke-width="1.32" stroke-linecap="round" stroke-linejoin="round"/>
    <path d="M26.367 11.1406C26.367 11.9364 25.7777 12.7181 24.6585 13.4073C23.5392 14.0964 21.9293 14.6687 19.9906 15.0665C18.052 15.4644 15.8529 15.6739 13.6143 15.6739C11.3757 15.6739 9.17659 15.4644 7.23793 15.0665C5.29927 14.6687 3.6894 14.0964 2.57011 13.4073C1.45083 12.7181 0.861572 11.9364 0.861572 11.1406" stroke="currentColor" stroke-width="1.32" stroke-linecap="round" stroke-linejoin="round"/>
    <path d="M26.3685 5.70312V22.0228" stroke="currentColor" stroke-width="1.32" stroke-linecap="round" stroke-linejoin="round"/>
</svg>
