<svg width="29" height="20" viewBox="0 0 29 28"
    xmlns="http://www.w3.org/2000/svg">
    <path d="M26.9749 13.465L15.3055 1.85017C15.1597 1.70595 14.9625 1.625 14.757 1.625C14.5515 1.625 14.3543 1.70595 14.2085 1.85017L2.53912 13.465C2.41167 13.6132 2.34507 13.8037 2.35263 13.9986C2.36019 14.1935 2.44136 14.3783 2.57991 14.5162C2.71846 14.6541 2.90419 14.7349 3.09999 14.7425C3.29578 14.75 3.48722 14.6837 3.63604 14.5568L14.7531 3.49174L25.8702 14.5646C26.019 14.6914 26.2104 14.7577 26.4062 14.7502C26.602 14.7427 26.7877 14.6619 26.9263 14.524C27.0648 14.3861 27.146 14.2012 27.1536 14.0063C27.1611 13.8115 27.0945 13.6209 26.9671 13.4728L26.9749 13.465Z" fill=""/>
    <path d="M22.5323 24.8545H18.6424V17.1113H10.8628V24.8545H6.97304V14.014L5.41711 15.5626V24.8545C5.41711 25.2652 5.58104 25.6591 5.87283 25.9496C6.16462 26.24 6.56038 26.4032 6.97304 26.4032H12.4188V18.6599H17.0865V26.4032H22.5323C22.9449 26.4032 23.3407 26.24 23.6325 25.9496C23.9242 25.6591 24.0882 25.2652 24.0882 24.8545V15.3768L22.5323 13.8281V24.8545Z" fill=""/>
</svg>
