<svg width="23" height="15" viewBox="0 0 23 15" fill="none"
    xmlns="http://www.w3.org/2000/svg">
    <path fill-rule="evenodd" clip-rule="evenodd" d="M22.3542 1.26896L22.1816 1.37609C21.7681 1.63285 21.4777 2.04897 21.3759 2.5253L20.6233 6.4829C20.5445 6.85299 20.6579 7.23635 20.9261 7.50373L21.6814 8.2439L21.5397 13.8447C21.5392 13.866 21.543 13.8871 21.5508 13.9068C21.5586 13.9266 21.5703 13.9446 21.5851 13.9597C21.6 13.9749 21.6177 13.987 21.6373 13.9952C21.6568 14.0034 21.6778 14.0077 21.6991 14.0077H22.4472C22.5357 14.0077 22.6066 13.9368 22.6066 13.8483V1.40708C22.6065 1.37768 22.5986 1.34884 22.5836 1.32355C22.5686 1.29825 22.5471 1.27743 22.5214 1.26325C22.4956 1.24906 22.4665 1.24203 22.4371 1.24288C22.4078 1.24373 22.3791 1.25331 22.3542 1.26896ZM2.56447 1.36901V4.91314C2.56447 5.40364 2.29089 5.5993 2.02971 5.5993C1.76675 5.5993 1.49317 5.40364 1.49317 4.91314V1.36901C1.20905 1.36901 0.936558 1.48188 0.735651 1.68278C0.534743 1.88369 0.421875 2.15618 0.421875 2.4403L0.421875 5.04152C0.421875 5.86049 0.853935 6.58649 1.49317 6.84944V13.8483C1.49317 13.9359 1.56489 14.0077 1.65342 14.0077H2.40599C2.49452 14.0077 2.56535 13.9359 2.56535 13.8483V6.85033C3.20459 6.58737 3.63665 5.86137 3.63665 5.04241V2.43853C3.63665 2.15441 3.52378 1.88192 3.32288 1.68101C3.12197 1.48011 2.84948 1.36724 2.56535 1.36724M11.9742 13.8084C8.55488 13.8084 5.77216 11.0257 5.77216 7.60732C5.77216 4.18802 8.55488 1.40531 11.9742 1.40531C15.3926 1.40531 18.1753 4.18802 18.1753 7.60732C18.1753 11.0248 15.3926 13.8084 11.9742 13.8084ZM11.9742 0.34375C7.96876 0.34375 4.7106 3.60191 4.7106 7.60732C4.7106 11.6127 7.96876 14.87 11.9742 14.87C15.9787 14.87 19.2369 11.6118 19.2369 7.60732C19.2369 3.60191 15.9787 0.34375 11.9742 0.34375Z" fill=""/>
    <path fill-rule="evenodd" clip-rule="evenodd" d="M11.9736 11.3874C10.9713 11.386 10.0106 10.9873 9.30188 10.2786C8.5932 9.5699 8.19444 8.60912 8.19304 7.6069C8.19444 6.60467 8.5932 5.64389 9.30188 4.93521C10.0106 4.22653 10.9713 3.82777 11.9736 3.82637C12.9759 3.82754 13.9368 4.22622 14.6455 4.93495C15.3542 5.64369 15.7529 6.6046 15.7541 7.6069C15.7529 8.60919 15.3542 9.57011 14.6455 10.2788C13.9368 10.9876 12.9759 11.3863 11.9736 11.3874ZM11.9736 3.11807C10.7836 3.11995 9.64297 3.59348 8.80156 4.43489C7.96014 5.2763 7.48661 6.41696 7.48474 7.6069C7.48615 8.79706 7.9595 9.93808 8.80099 10.7797C9.64247 11.6214 10.7834 12.095 11.9736 12.0966C13.1636 12.0952 14.3046 11.6218 15.1461 10.7803C15.9876 9.93879 16.461 8.79786 16.4624 7.60778C16.4612 6.41747 15.988 5.27622 15.1465 4.43437C14.3049 3.59253 13.1639 3.11971 11.9736 3.11807Z" fill=""/>
</svg>
