<svg width="16" height="16" viewBox="0 0 16 16" fill="none" xmlns="http://www.w3.org/2000/svg">
<path fill-rule="evenodd" clip-rule="evenodd" d="M15.2633 11.3027C15.2623 12.1918 14.9087 13.0442 14.2801 13.6729C13.6514 14.3015 12.799 14.6552 11.9099 14.6561H4.78624C3.89716 14.6552 3.04477 14.3015 2.4161 13.6729C1.78742 13.0442 1.43381 12.1918 1.43285 11.3027V4.17906C1.43381 3.28998 1.78742 2.43759 2.4161 1.80892C3.04477 1.18024 3.89716 0.826634 4.78624 0.825673H11.9099C12.799 0.826634 13.6514 1.18024 14.2801 1.80892C14.9087 2.43759 15.2623 3.28998 15.2633 4.17906V11.3027ZM11.9099 0.243896H4.78624C3.74298 0.245242 2.74284 0.66027 2.00514 1.39796C1.26745 2.13566 0.852419 3.1358 0.851074 4.17906V11.3027C0.852419 12.346 1.26745 13.3461 2.00514 14.0838C2.74284 14.8215 3.74298 15.2366 4.78624 15.2379H11.9099C12.9532 15.2366 13.9533 14.8215 14.691 14.0838C15.4287 13.3461 15.8437 12.346 15.8451 11.3027V4.17906C15.8437 3.1358 15.4287 2.13566 14.691 1.39796C13.9533 0.66027 12.9532 0.245242 11.9099 0.243896Z" fill="#292F37"/>
<path fill-rule="evenodd" clip-rule="evenodd" d="M9.26985 8.27678H6.66747V5.1914H9.26985C10.1211 5.1914 10.8125 5.88358 10.8125 6.73336C10.8125 7.14245 10.6501 7.5348 10.361 7.82421C10.0719 8.11361 9.67966 8.27639 9.27057 8.27678M9.27057 4.31982H6.23095C6.1737 4.31973 6.11699 4.33094 6.06407 4.3528C6.01116 4.37467 5.96308 4.40677 5.92259 4.44725C5.88211 4.48774 5.85001 4.53582 5.82814 4.58873C5.80628 4.64165 5.79507 4.69836 5.79517 4.75561V11.0731C5.79517 11.1303 5.80644 11.187 5.82834 11.2398C5.85024 11.2927 5.88234 11.3408 5.92281 11.3812C5.96327 11.4217 6.01131 11.4538 6.06419 11.4757C6.11706 11.4976 6.17373 11.5089 6.23095 11.5089C6.28818 11.5089 6.34485 11.4976 6.39772 11.4757C6.4506 11.4538 6.49864 11.4217 6.5391 11.3812C6.57957 11.3408 6.61167 11.2927 6.63357 11.2398C6.65547 11.187 6.66674 11.1303 6.66674 11.0731V9.14835H9.26912C9.90931 9.14758 10.5231 8.89288 10.9757 8.44012C11.4283 7.98737 11.6828 7.37355 11.6834 6.73336C11.6824 6.09342 11.4277 5.47998 10.9752 5.02754C10.5226 4.5751 9.90906 4.32059 9.26912 4.31982" fill="#292F37"/>
<path fill-rule="evenodd" clip-rule="evenodd" d="M13.1008 11.1152C13.1006 11.4811 12.9551 11.8319 12.6964 12.0905C12.4376 12.3492 12.0867 12.4945 11.7208 12.4945H4.97191C4.60592 12.4945 4.25491 12.3491 3.99611 12.0903C3.73731 11.8315 3.59192 11.4805 3.59192 11.1145V4.36486C3.5923 3.99912 3.73787 3.64848 3.99662 3.39C4.25538 3.13151 4.60617 2.98632 4.97191 2.98632H11.7223C12.0879 2.98651 12.4385 3.13179 12.6971 3.39026C12.9557 3.64872 13.1011 3.99924 13.1015 4.36486L13.1008 11.1152ZM11.7208 2.11475H4.97191C4.37525 2.11532 3.80319 2.35255 3.38122 2.77438C2.95925 3.19622 2.72184 3.76821 2.72107 4.36486V11.1152C2.72165 11.7119 2.95887 12.2839 3.38071 12.7059C3.80254 13.1279 4.37453 13.3653 4.97119 13.3661H11.7215C12.3184 13.3655 12.8906 13.128 13.3125 12.7059C13.7344 12.2837 13.9715 11.7113 13.9717 11.1145V4.36486C13.9711 3.76827 13.7338 3.19628 13.312 2.77443C12.8901 2.35257 12.3174 2.11532 11.7208 2.11475Z" fill="#292F37"/>
</svg>
