<svg width="17" height="22" viewBox="0 0 17 22" fill="#dc143c" xmlns="http://www.w3.org/2000/svg">
<path d="M8.29255 7.8811C7.55943 7.8811 6.85634 8.17233 6.33794 8.69073C5.81955 9.20912 5.52832 9.91221 5.52832 10.6453C5.52832 11.3784 5.81955 12.0815 6.33794 12.5999C6.85634 13.1183 7.55943 13.4096 8.29255 13.4096C9.02567 13.4096 9.72876 13.1183 10.2472 12.5999C10.7655 12.0815 11.0568 11.3784 11.0568 10.6453C11.0568 9.91221 10.7655 9.20912 10.2472 8.69073C9.72876 8.17233 9.02567 7.8811 8.29255 7.8811Z" fill="white"/>
<path d="M4.52625e-07 4.08295C-4.34175e-05 3.59733 0.170392 3.1271 0.481578 2.75428C0.792765 2.38146 1.22495 2.12972 1.70276 2.04295L12.7597 0.0333581C13.0583 -0.0208713 13.3652 -0.00886522 13.6587 0.0685283C13.9522 0.145922 14.2251 0.286815 14.4582 0.481255C14.6912 0.675695 14.8788 0.918939 15.0075 1.19381C15.1363 1.46867 15.2031 1.76845 15.2033 2.07198V2.72157C15.6237 2.96429 15.9727 3.31345 16.2154 3.73391C16.458 4.15438 16.5856 4.63133 16.5854 5.11677V18.9379C16.5854 19.671 16.2941 20.3741 15.7757 20.8925C15.2573 21.4109 14.5543 21.7021 13.8211 21.7021H2.76423C2.36857 21.7022 1.97751 21.6174 1.61746 21.4533C1.25742 21.2893 0.936786 21.0499 0.677236 20.7512C0.463728 20.5568 0.293198 20.3199 0.176576 20.0557C0.0599528 19.7915 -0.000190362 19.5059 4.52625e-07 19.2171V4.08295ZM4.14634 10.6452C4.14634 11.7449 4.58319 12.7995 5.36078 13.5771C6.13837 14.3547 7.193 14.7916 8.29268 14.7916C9.39236 14.7916 10.447 14.3547 11.2246 13.5771C12.0022 12.7995 12.439 11.7449 12.439 10.6452C12.439 9.54555 12.0022 8.49091 11.2246 7.71332C10.447 6.93573 9.39236 6.49889 8.29268 6.49889C7.193 6.49889 6.13837 6.93573 5.36078 7.71332C4.58319 8.49091 4.14634 9.54555 4.14634 10.6452ZM4.14634 16.8647C4.14634 17.048 4.21915 17.2238 4.34875 17.3534C4.47835 17.483 4.65412 17.5558 4.8374 17.5558H11.748C11.9312 17.5558 12.107 17.483 12.2366 17.3534C12.3662 17.2238 12.439 17.048 12.439 16.8647C12.439 16.6815 12.3662 16.5057 12.2366 16.3761C12.107 16.2465 11.9312 16.1737 11.748 16.1737H4.8374C4.65412 16.1737 4.47835 16.2465 4.34875 16.3761C4.21915 16.5057 4.14634 16.6815 4.14634 16.8647Z" fill="#dc143c"/>
</svg>
