<svg width="29" height="20" viewBox="0 0 29 28" fill=""
    xmlns="http://www.w3.org/2000/svg">
    <path d="M26.5137 20.1546L28.0153 18.8542L26.6981 16.6046L24.7883 17.2418C24.3668 16.8907 23.8926 16.6176 23.3658 16.4225L22.9706 14.472H20.3364L19.9412 16.4095C19.4144 16.6046 18.9402 16.8777 18.5187 17.2288L16.6089 16.5916L15.2917 18.8412L16.7933 20.1416C16.6879 20.7918 16.6879 21.1299 16.7933 21.7801L15.2917 23.0804L16.6089 25.3301L18.5187 24.6929C18.9402 25.044 19.4144 25.3171 19.9412 25.5121L20.3364 27.4757H22.9706L23.3658 25.5381C23.8926 25.3431 24.3668 25.07 24.7883 24.7189L26.6981 25.3561L28.0153 23.1064L26.5137 21.8061C26.6191 21.1429 26.6191 20.8048 26.5137 20.1546ZM21.6535 23.5746C20.2047 23.5746 19.0192 22.4042 19.0192 20.9738C19.0192 19.5434 20.2047 18.3731 21.6535 18.3731C23.1024 18.3731 24.2878 19.5434 24.2878 20.9738C24.2878 22.4042 23.1024 23.5746 21.6535 23.5746ZM11.1164 5.36943V12.4044L14.2249 15.4733L15.5947 13.1456L13.7507 11.3381V5.36943H11.1164ZM24.2878 11.8713C24.2878 8.76736 23.0389 5.79058 20.8158 3.59578C18.5927 1.40099 15.5775 0.167969 12.4336 0.167969C8.70607 0.167969 5.38689 1.88445 3.21362 4.5372V1.46833H0.579346V9.27053H8.48216V6.6698H4.87321C5.72273 5.46721 6.85353 4.48468 8.16968 3.80555C9.48584 3.12642 10.9485 2.77075 12.4336 2.7687C17.5177 2.7687 21.6535 6.85185 21.6535 11.8713H24.2878ZM10.932 20.8568C6.99379 20.2196 3.88536 17.0857 3.31899 13.1716H0.658374C1.31694 19.0233 6.33523 23.5746 12.4336 23.5746H12.5258L10.932 20.8568Z" fill=""/>
</svg>
