<svg width="16" height="15" viewBox="0 0 16 15" fill="none" xmlns="http://www.w3.org/2000/svg">
<path fill-rule="evenodd" clip-rule="evenodd" d="M1.68362 11.6394H4.95202V10.4497H1.68362V11.6394ZM1.68362 14.1546H4.95202V12.2211H1.68362V14.1546ZM15.5083 9.57882H0.521516C0.409111 9.58341 0.302837 9.63129 0.224929 9.71245C0.147021 9.7936 0.103516 9.90174 0.103516 10.0142C0.103516 10.1267 0.147021 10.2349 0.224929 10.316C0.302837 10.3972 0.409111 10.4451 0.521516 10.4497H0.812041V14.4451C0.812041 14.5607 0.857954 14.6715 0.939681 14.7533C1.02141 14.835 1.13225 14.8809 1.24783 14.8809C1.37566 14.8809 1.48751 14.8235 1.56668 14.7364H5.24255C5.28076 14.7364 5.3186 14.7288 5.3539 14.7142C5.38919 14.6995 5.42125 14.6781 5.44824 14.651C5.47523 14.624 5.49661 14.5918 5.51117 14.5565C5.52573 14.5212 5.53317 14.4833 5.53307 14.4451V10.4497H14.3462V14.4451C14.3507 14.5575 14.3986 14.6638 14.4798 14.7417C14.5609 14.8196 14.6691 14.8631 14.7816 14.8631C14.8941 14.8631 15.0022 14.8196 15.0834 14.7417C15.1645 14.6638 15.2124 14.5575 15.217 14.4451V10.4497H15.5083C15.6237 10.4497 15.7345 10.4038 15.8161 10.3221C15.8978 10.2405 15.9437 10.1297 15.9437 10.0142C15.9437 9.89876 15.8978 9.78801 15.8161 9.70635C15.7345 9.62469 15.6237 9.57882 15.5083 9.57882ZM6.8586 8.07245C6.74619 8.07704 6.63992 8.12492 6.56201 8.20608C6.4841 8.28723 6.44059 8.39537 6.44059 8.50787C6.44059 8.62037 6.4841 8.72851 6.56201 8.80966C6.63992 8.89082 6.74619 8.9387 6.8586 8.94329H10.0101C10.1255 8.94329 10.2363 8.89742 10.318 8.81576C10.3996 8.7341 10.4455 8.62335 10.4455 8.50787C10.4455 8.39239 10.3996 8.28164 10.318 8.19998C10.2363 8.11832 10.1255 8.07245 10.0101 8.07245H6.85787H6.8586ZM4.68401 1.2146H12.1832C12.4534 1.2146 12.6727 1.43467 12.6727 1.70413V4.87522H4.19375V1.70413C4.19375 1.43467 4.41383 1.2146 4.68401 1.2146ZM12.1832 6.59512H4.68401C4.55405 6.59513 4.42938 6.5436 4.33735 6.45183C4.24531 6.36007 4.19341 6.23556 4.19303 6.10559V5.45772H12.6735V6.10559C12.6731 6.2353 12.6214 6.3596 12.5297 6.45132C12.4379 6.54304 12.3129 6.59474 12.1832 6.59512ZM4.68401 7.46597H12.1832C12.5439 7.46578 12.8898 7.32239 13.1449 7.06731C13.4 6.81223 13.5434 6.46633 13.5436 6.10559V1.70413C13.5436 0.953853 12.9335 0.343751 12.1832 0.343751H4.68401C3.93228 0.343024 3.32218 0.953127 3.32218 1.70413V6.10559C3.32218 6.8566 3.93301 7.46597 4.68401 7.46597Z" fill="#292F37"/>
</svg>
