<svg width="14" height="15" viewBox="0 0 14 15" fill="none" xmlns="http://www.w3.org/2000/svg">
<path fill-rule="evenodd" clip-rule="evenodd" d="M7.13207 7.25594C6.79506 7.25594 6.46241 7.29951 6.14283 7.38667C6.0331 7.4185 5.94025 7.49215 5.88428 7.59176C5.82832 7.69138 5.81371 7.80899 5.84362 7.91926C5.87352 8.02954 5.94553 8.12366 6.04415 8.18136C6.14278 8.23905 6.26011 8.25571 6.37089 8.22774C6.80246 8.11143 7.25501 8.09596 7.69351 8.18252C8.13202 8.26909 8.54474 8.45537 8.89973 8.72695C9.25473 8.99854 9.54249 9.34814 9.74076 9.74873C9.93903 10.1493 10.0425 10.5902 10.0431 11.0371C10.0422 11.8089 9.73516 12.5488 9.18944 13.0945C8.64372 13.6402 7.90384 13.9472 7.13207 13.9482C6.6954 13.9475 6.26446 13.8487 5.8711 13.6591C5.47774 13.4695 5.132 13.1939 4.85944 12.8528C4.58689 12.5116 4.39447 12.1135 4.29641 11.688C4.19835 11.2625 4.19716 10.8204 4.29291 10.3943C4.3183 10.2818 4.298 10.1637 4.23645 10.0661C4.1749 9.96844 4.07715 9.89921 3.96462 9.87357C3.9088 9.86039 3.85091 9.85845 3.79433 9.86787C3.73776 9.87729 3.68362 9.89788 3.63508 9.92844C3.58654 9.95899 3.54457 9.99891 3.51161 10.0458C3.47866 10.0928 3.45538 10.1458 3.44313 10.2019C3.31861 10.7554 3.3201 11.3299 3.44748 11.8828C3.57485 12.4357 3.82486 12.9529 4.17902 13.3962C4.53318 13.8394 4.98244 14.1974 5.49358 14.4437C6.00473 14.69 6.56469 14.8183 7.13207 14.819C8.13474 14.8179 9.09601 14.4191 9.80501 13.7101C10.514 13.0011 10.9128 12.0398 10.914 11.0371C10.9128 10.0345 10.514 9.07332 9.80497 8.36444C9.09595 7.65556 8.13467 7.2569 7.13207 7.25594ZM5.79783 0.929752C6.07207 0.953045 6.32584 1.08423 6.50343 1.2945C6.68101 1.50476 6.76787 1.77691 6.74495 2.05118C6.69628 2.62133 6.1806 3.03533 5.62424 2.99829C5.48832 2.98722 5.35592 2.94941 5.23464 2.88703C5.11337 2.82466 5.0056 2.73895 4.91754 2.63482C4.82947 2.53069 4.76284 2.4102 4.72146 2.28025C4.68008 2.15031 4.66477 2.01347 4.67641 1.87759C4.68691 1.74139 4.72437 1.60863 4.78661 1.48702C4.84884 1.36542 4.93462 1.25739 5.03895 1.16921C5.14328 1.08102 5.26409 1.01445 5.39437 0.973341C5.52464 0.932235 5.66178 0.917418 5.79783 0.929752ZM5.57558 3.57716C6.00332 3.61255 6.42762 3.4768 6.75538 3.1997C7.08314 2.9226 7.28757 2.52678 7.32382 2.09912C7.35901 1.67142 7.22319 1.24722 6.94613 0.919509C6.66906 0.591797 6.27336 0.387311 5.84577 0.350881C4.94659 0.266628 4.17235 0.939194 4.09826 1.8282C4.06195 2.2589 4.19631 2.67799 4.47594 3.00773C4.75485 3.3382 5.1456 3.54085 5.57631 3.57644" fill="#292F37"/>
<path fill-rule="evenodd" clip-rule="evenodd" d="M5.26725 10.3581C5.41252 10.3581 5.56068 10.3225 5.69578 10.2491C5.79924 10.1916 5.89033 10.1142 5.96386 10.0214C6.03738 9.92865 6.0919 9.82228 6.12428 9.70841C6.15666 9.59454 6.16627 9.4754 6.15256 9.35781C6.13886 9.24023 6.10211 9.12649 6.04441 9.02312L5.16049 7.53926L5.71031 6.81513C5.73339 6.7848 5.75027 6.75022 5.75999 6.71336C5.7697 6.67651 5.77207 6.6381 5.76694 6.60033C5.76182 6.56256 5.7493 6.52617 5.73011 6.49324C5.71092 6.46031 5.68544 6.43148 5.65511 6.4084C5.62477 6.38531 5.59019 6.36843 5.55334 6.35871C5.51648 6.34899 5.47807 6.34663 5.44031 6.35176C5.40254 6.35688 5.36615 6.3694 5.33321 6.38859C5.30028 6.40778 5.27145 6.43326 5.24837 6.4636L4.57944 7.34389C4.54427 7.38995 4.52368 7.44547 4.52031 7.50333C4.51695 7.56118 4.53096 7.61872 4.56055 7.66855L5.54107 9.31219C5.58085 9.38538 5.59011 9.47131 5.56685 9.55129C5.54359 9.63127 5.48969 9.69882 5.41687 9.73927C5.3498 9.77558 5.27187 9.78646 5.19742 9.76992C5.12296 9.75337 5.05697 9.71051 5.01159 9.6492L3.53209 7.68816C3.48457 7.62349 3.45624 7.54675 3.45033 7.46672C3.44442 7.38669 3.46118 7.30661 3.49868 7.23567L4.7937 4.95795C4.85588 4.84906 4.94572 4.75854 5.05413 4.69553C5.16254 4.63253 5.28567 4.59928 5.41106 4.59915H6.12939C6.40902 4.59915 6.66468 4.76475 6.80195 5.06254L7.89869 6.70618C7.94145 6.77033 8.00794 6.81486 8.08354 6.82998C8.15914 6.8451 8.23764 6.82957 8.30179 6.7868C8.36593 6.74404 8.41047 6.67755 8.42559 6.60195C8.4407 6.52635 8.42517 6.44785 8.38241 6.3837L7.30965 4.78291C7.20727 4.55544 7.04149 4.36232 6.83216 4.22667C6.62283 4.09103 6.37883 4.01861 6.12939 4.0181H5.41034C4.9484 4.0181 4.51697 4.26795 4.28818 4.67033L3.03021 6.87905L2.98591 6.96112C2.89621 7.12984 2.85624 7.32056 2.87064 7.5111C2.88504 7.70164 2.95322 7.88419 3.06725 8.03751L4.54603 9.99856C4.71889 10.231 4.99053 10.3581 5.26725 10.3581ZM10.5388 8.36218L11.1235 8.36944C11.5847 8.38832 11.9849 8.68175 12.1367 9.10374L12.932 11.717C12.9528 11.7703 12.9627 11.8271 12.9612 11.8842C12.9597 11.9413 12.9468 11.9976 12.9233 12.0497C12.9002 12.1023 12.8669 12.1497 12.8252 12.1892C12.7836 12.2288 12.7345 12.2596 12.6807 12.2799C12.4795 12.3569 12.2486 12.2734 12.1665 12.1361L11.4075 9.72256C11.3966 9.68551 11.3785 9.651 11.3541 9.62105C11.3297 9.5911 11.2996 9.56631 11.2655 9.54813C11.2315 9.52995 11.1941 9.51875 11.1557 9.51517C11.1172 9.5116 11.0784 9.51573 11.0416 9.52731C11.0047 9.5389 10.9706 9.55772 10.9411 9.58266C10.9116 9.6076 10.8874 9.63817 10.8699 9.67258C10.8524 9.70699 10.8419 9.74455 10.839 9.78306C10.8362 9.82157 10.841 9.86026 10.8533 9.89687L11.6348 12.3642C11.7539 12.5784 11.9461 12.7425 12.1763 12.8267C12.4065 12.9108 12.6593 12.9093 12.8885 12.8225C13.1427 12.7251 13.3431 12.5348 13.4543 12.2864C13.5647 12.0388 13.5719 11.7628 13.4811 11.5282L12.688 8.92071C12.5728 8.59859 12.3635 8.31847 12.0873 8.11659C11.8111 7.91472 11.4807 7.80039 11.1388 7.78839L10.5461 7.7804H10.5425C10.4678 7.78364 10.3972 7.81546 10.3453 7.86928C10.2935 7.92311 10.2643 7.99481 10.2638 8.06956C10.2634 8.14431 10.2917 8.21637 10.3428 8.27084C10.394 8.32531 10.4642 8.35801 10.5388 8.36218ZM3.21542 4.97465L3.052 4.31008C3.02899 4.21541 2.97477 4.13125 2.89808 4.07117C2.8214 4.01108 2.72671 3.97857 2.62929 3.97888H1.43087C1.37219 3.97648 1.31364 3.98597 1.25872 4.00677C1.2038 4.02757 1.15365 4.05926 1.11129 4.09993C1.06892 4.1406 1.03522 4.18941 1.01219 4.24343C0.989164 4.29746 0.977295 4.35558 0.977295 4.4143C0.977295 4.47303 0.989164 4.53115 1.01219 4.58517C1.03522 4.6392 1.06892 4.68801 1.11129 4.72868C1.15365 4.76935 1.2038 4.80103 1.25872 4.82184C1.31364 4.84264 1.37219 4.85212 1.43087 4.84973H2.28792L2.36999 5.18238C2.38352 5.23795 2.40789 5.29031 2.4417 5.33644C2.47552 5.38258 2.51811 5.42157 2.56704 5.4512C2.61597 5.48083 2.67026 5.5005 2.72681 5.50908C2.78336 5.51767 2.84105 5.515 2.89657 5.50123C3.00861 5.47357 3.1051 5.40259 3.16488 5.30387C3.22465 5.20515 3.24283 5.08676 3.21542 4.97465ZM13.1557 13.3759H11.133C11.0174 13.3759 10.9065 13.4218 10.8248 13.5036C10.7431 13.5853 10.6972 13.6961 10.6972 13.8117C10.6972 13.9273 10.7431 14.0381 10.8248 14.1199C10.9065 14.2016 11.0174 14.2475 11.133 14.2475H13.1557C13.2713 14.2475 13.3822 14.2016 13.4639 14.1199C13.5456 14.0381 13.5915 13.9273 13.5915 13.8117C13.5915 13.6961 13.5456 13.5853 13.4639 13.5036C13.3822 13.4218 13.2713 13.3759 13.1557 13.3759Z" fill="#292F37"/>
</svg>
