<svg width="20" height="15" viewBox="0 0 20 15" fill="none"
    xmlns="http://www.w3.org/2000/svg">
    <path fill-rule="evenodd" clip-rule="evenodd" d="M10.7688 13.1375C10.5505 13.3537 10.2556 13.4749 9.94839 13.4749C9.64114 13.4749 9.3463 13.3537 9.12795 13.1375C8.91036 12.9201 8.78807 12.6251 8.78798 12.3174C8.7879 12.0098 8.91002 11.7147 9.1275 11.4971C9.34497 11.2795 9.63997 11.1572 9.94761 11.1571C10.2552 11.1571 10.5503 11.2792 10.7679 11.4967C11.2198 11.9486 11.2207 12.6847 10.7688 13.1375ZM8.35717 10.7259C7.93467 11.1486 7.69733 11.7217 7.69733 12.3194C7.69733 12.917 7.93467 13.4902 8.35717 13.9129C8.5664 14.1216 8.81478 14.287 9.08807 14.3996C9.36137 14.5122 9.65419 14.5697 9.94975 14.5689C10.5256 14.5689 11.1032 14.3502 11.5423 13.9129V13.911C11.9495 13.4854 12.1737 12.9174 12.1672 12.3284C12.1606 11.7395 11.9237 11.1766 11.5071 10.7602C11.0906 10.3438 10.5276 10.107 9.93869 10.1006C9.34977 10.0942 8.78174 10.3186 8.35626 10.7259M5.67675 8.35705C5.58018 8.46067 5.52762 8.59774 5.53011 8.73936C5.53261 8.88098 5.58998 9.0161 5.69014 9.11626C5.7903 9.21641 5.92542 9.27378 6.06704 9.27628C6.20866 9.27878 6.34572 9.22621 6.44935 9.12965C7.37787 8.20298 8.63611 7.68253 9.94793 7.68253C11.2598 7.68253 12.518 8.20298 13.4465 9.12965C13.5501 9.22621 13.6872 9.27878 13.8288 9.27628C13.9704 9.27378 14.1056 9.21641 14.2057 9.11626C14.3059 9.0161 14.3632 8.88098 14.3657 8.73936C14.3682 8.59774 14.3157 8.46067 14.2191 8.35705C11.8649 6.00097 8.03282 6.00188 5.67675 8.35705Z" fill=""/>
    <path fill-rule="evenodd" clip-rule="evenodd" d="M3.31481 6.16507C3.21825 6.26869 3.16568 6.40575 3.16818 6.54738C3.17067 6.689 3.22805 6.82412 3.3282 6.92427C3.42836 7.02443 3.56348 7.0818 3.7051 7.0843C3.84672 7.0868 3.98378 7.03423 4.08741 6.93767C7.31995 3.70695 12.5806 3.70513 15.814 6.93858C15.917 7.03957 16.0557 7.09577 16.1999 7.09494C16.3442 7.09412 16.4822 7.03632 16.584 6.93416C16.6858 6.83199 16.7431 6.69374 16.7435 6.54951C16.7438 6.40528 16.6871 6.26677 16.5857 6.16415C12.9277 2.50522 6.97374 2.50613 3.31481 6.16507Z" fill=""/>
    <path fill-rule="evenodd" clip-rule="evenodd" d="M18.9484 3.97304C17.7694 2.78681 16.3666 1.84638 14.8214 1.20626C13.2762 0.56614 11.6194 0.239051 9.94687 0.243951C6.54668 0.243951 3.35058 1.56776 0.947131 3.97304C0.85057 4.07667 0.798001 4.21373 0.8005 4.35535C0.802999 4.49697 0.86037 4.63209 0.960526 4.73225C1.06068 4.8324 1.1958 4.88977 1.33743 4.89227C1.47905 4.89477 1.61611 4.8422 1.71973 4.74564C2.79761 3.66179 4.07974 2.80248 5.49192 2.21743C6.90411 1.63239 8.4183 1.33322 9.94687 1.33726C13.0546 1.33726 15.9765 2.54809 18.174 4.74473C18.2779 4.83901 18.4141 4.88972 18.5544 4.88635C18.6947 4.88298 18.8283 4.82579 18.9276 4.72662C19.0269 4.62746 19.0842 4.49391 19.0878 4.35363C19.0913 4.21335 19.0408 4.07708 18.9466 3.97304" fill=""/>
</svg>
