<svg width="22" height="26" viewBox="0 0 22 26" fill="none" xmlns="http://www.w3.org/2000/svg" stroke="#5F6368">
<g id="Group">
<path id="Vector" d="M11.002 10.504C13.6265 10.504 15.754 8.37646 15.754 5.752C15.754 3.12754 13.6265 1 11.002 1C8.37754 1 6.25 3.12754 6.25 5.752C6.25 8.37646 8.37754 10.504 11.002 10.504Z"   strokeWidth="1.408"/>
<path id="Vector_2" d="M20.5005 20.0081C20.5041 19.8133 20.5041 19.6149 20.5041 19.4141C20.5041 16.4619 16.2487 14.0681 11.0001 14.0681C5.75151 14.0681 1.49609 16.4619 1.49609 19.4141C1.49609 22.3663 1.49609 24.7601 11.0001 24.7601C13.6505 24.7601 15.562 24.5736 16.9401 24.241"  strokeWidth="1.408" strokeLinecap="round"/>
</g>
</svg>
