 <svg
              xmlns="http://www.w3.org/2000/svg"
              width="19"
              height="22"
              viewBox="0 0 19 22"
              fill="none"
            >
              <path
                d="M13.4342 8.21933L18.386 16.4813L17.4874 18.3427L11.4 12.4325L8.99156 17.421L10.9513 20.3062L10.2773 21.7023L6.66409 18.7695L2.15217 17.6981L2.82618 16.302L6.28362 16.0853L8.69208 11.0969L0.334233 9.88942L1.23291 8.02806L10.7258 6.8846L13.1734 1.81517C13.3521 1.44492 13.6662 1.16014 14.0466 1.02349C14.4269 0.886844 14.8424 0.909511 15.2016 1.08651C15.5607 1.2635 15.8341 1.58033 15.9617 1.96729C16.0893 2.35425 16.0605 2.77965 15.8817 3.1499L13.4342 8.21933Z"
                fill="white"
              />
            </svg>