<svg width="15" height="19" viewBox="0 0 11 15" fill="none" xmlns="http://www.w3.org/2000/svg">
    <path
        d="M5.09844 14.6516C4.70951 14.6516 4.37668 14.5117 4.09995 14.2319C3.82322 13.9521 3.68462 13.6153 3.68415 13.2216C3.68415 12.9713 3.74897 12.7389 3.87862 12.5244C4.00826 12.3099 4.17915 12.1371 4.39129 12.0061V10.3616H2.26987C1.88094 10.3616 1.54811 10.2217 1.27138 9.94186C0.994652 9.66205 0.856052 9.32529 0.85558 8.93156V7.28706C0.643437 7.17981 0.472545 7.01894 0.342902 6.80444C0.213259 6.58994 0.148438 6.34564 0.148438 6.07156C0.148438 5.67831 0.287037 5.34155 0.564237 5.06127C0.841437 4.78099 1.17427 4.64109 1.56272 4.64156C1.95165 4.64156 2.28472 4.7817 2.56192 5.06198C2.83912 5.34226 2.97748 5.67879 2.97701 6.07156C2.97701 6.34564 2.91219 6.58398 2.78254 6.78656C2.6529 6.98914 2.48201 7.15598 2.26987 7.28706V8.93156H4.39129V3.21156H2.97701L5.09844 0.351562L7.21987 3.21156H5.80558V8.93156H7.92701V7.50156H7.21987V4.64156H10.0484V7.50156H9.34129V8.93156C9.34129 9.32481 9.20293 9.66158 8.9262 9.94186C8.64947 10.2221 8.31641 10.362 7.92701 10.3616H5.80558V12.0061C6.02951 12.1252 6.20347 12.2921 6.32745 12.5066C6.45144 12.7211 6.51319 12.9594 6.51272 13.2216C6.51272 13.6148 6.37436 13.9516 6.09763 14.2319C5.8209 14.5121 5.48784 14.652 5.09844 14.6516Z"
        fill="#202124" />
</svg>