<svg width="115" height="33" viewBox="0 0 115 33" fill="none" xmlns="http://www.w3.org/2000/svg">
<path d="M113.968 29.0448C113.968 29.4592 113.885 29.8697 113.722 30.2526C113.559 30.6355 113.321 30.9833 113.021 31.2763C112.72 31.5692 112.364 31.8014 111.971 31.9598C111.579 32.1181 111.158 32.1994 110.734 32.1989H4.88415C4.02623 32.1998 3.20309 31.868 2.59574 31.2765C1.98839 30.685 1.64656 29.8822 1.64545 29.0448V3.89132C1.64656 3.05345 1.98825 2.25026 2.59548 1.65811C3.20271 1.06596 4.02584 0.73325 4.88415 0.733032H110.733C111.158 0.733032 111.578 0.81473 111.971 0.973458C112.363 1.13219 112.72 1.36484 113.02 1.65812C113.321 1.95141 113.559 2.29958 113.721 2.68275C113.884 3.06593 113.968 3.4766 113.967 3.89132L113.968 29.0448Z" fill="white"/>
<path d="M110.734 32.9326H4.88419C3.82733 32.9324 2.81373 32.5229 2.06579 31.794C1.31785 31.0651 0.896664 30.0764 0.894653 29.0447L0.894653 3.89206C0.896217 2.85986 1.31712 1.87041 2.06504 1.14077C2.81296 0.411127 3.82681 0.000871214 4.88419 0L110.733 0C111.79 0.00130593 112.804 0.411702 113.552 1.14125C114.299 1.8708 114.72 2.86 114.722 3.89206V29.0447C114.724 31.1892 112.931 32.9326 110.734 32.9326Z" fill="#A6A6A6"/>
<path d="M113.968 29.0448C113.968 29.4592 113.885 29.8697 113.722 30.2526C113.559 30.6355 113.321 30.9833 113.021 31.2763C112.72 31.5692 112.364 31.8014 111.971 31.9598C111.579 32.1181 111.158 32.1994 110.734 32.1989H4.88415C4.02623 32.1998 3.20309 31.868 2.59574 31.2765C1.98839 30.685 1.64656 29.8822 1.64545 29.0448V3.89132C1.64656 3.05345 1.98825 2.25026 2.59548 1.65811C3.20271 1.06596 4.02584 0.73325 4.88415 0.733032H110.733C111.158 0.733032 111.578 0.81473 111.971 0.973458C112.363 1.13219 112.72 1.36484 113.02 1.65812C113.321 1.95141 113.559 2.29958 113.721 2.68275C113.884 3.06593 113.968 3.4766 113.967 3.89132L113.968 29.0448Z" fill="black"/>
<path d="M26.3115 16.293C26.2871 13.6387 28.5379 12.3474 28.6408 12.2873C27.3661 10.473 25.3903 10.2251 24.696 10.2054C23.0365 10.0349 21.4269 11.1747 20.5816 11.1747C19.7194 11.1747 18.4177 10.2218 17.0147 10.2498C15.2093 10.277 13.5204 11.2974 12.5941 12.8819C10.6824 16.1126 12.1081 20.8604 13.9397 23.4718C14.8559 24.7516 15.9264 26.1788 17.3277 26.1285C18.6986 26.0742 19.2107 25.2762 20.865 25.2762C22.5042 25.2762 22.9851 26.1285 24.4142 26.0964C25.8855 26.0742 26.8118 24.8117 27.6959 23.5212C28.7547 22.0561 29.1799 20.6116 29.1967 20.5375C29.163 20.526 26.3402 19.4735 26.3115 16.293ZM23.6119 8.48746C24.3492 7.58733 24.8537 6.36272 24.7137 5.12C23.6465 5.16611 22.3119 5.84059 21.5433 6.72096C20.8634 7.49674 20.2559 8.76829 20.4129 9.96407C21.6117 10.0514 22.8425 9.37359 23.6119 8.48746Z" fill="white"/>
<path d="M110.734 0H54.0375L76.2444 32.9326H110.734C111.791 32.9317 112.804 32.5217 113.552 31.7924C114.3 31.0631 114.721 30.0741 114.723 29.0422V3.89206C114.721 2.85993 114.3 1.87061 113.553 1.14101C112.805 0.411415 111.791 0.00108865 110.734 0Z" fill="url(#paint0_linear_3897_9359)"/>
<path d="M46.168 25.9452H44.2521L43.2027 22.7259H39.5548L38.5551 25.9452H36.6898L40.3048 14.9855H42.537L46.168 25.9452ZM42.8863 21.3753L41.9372 18.5135C41.8368 18.2212 41.6478 17.5327 41.3711 16.4489H41.3374C41.226 16.915 41.048 17.6035 40.8042 18.5135L39.8712 21.3753H42.8863ZM55.4463 21.8966C55.4463 23.2407 55.0726 24.303 54.3242 25.0829C53.6544 25.7772 52.8217 26.1239 51.8288 26.1239C50.7565 26.1239 49.9855 25.7508 49.5172 25.003V29.1496H47.7186V20.6399C47.7186 19.7958 47.6958 18.9302 47.652 18.0425H49.2338L49.3342 19.2951H49.3679C49.9677 18.3513 50.878 17.8794 52.0996 17.8794C53.0546 17.8794 53.8518 18.2475 54.4896 18.9846C55.1265 19.7233 55.4463 20.6934 55.4463 21.8966ZM53.6139 21.9609C53.6139 21.1917 53.4368 20.5576 53.0807 20.0577C52.6918 19.538 52.1696 19.2778 51.515 19.2778C51.0712 19.2778 50.6679 19.4227 50.3077 19.7085C49.9466 19.9967 49.7104 20.3731 49.5999 20.8392C49.5506 21.0135 49.5225 21.1929 49.5164 21.3737V22.6922C49.5164 23.2662 49.6969 23.7513 50.058 24.1482C50.4191 24.5435 50.8881 24.742 51.4652 24.742C52.1426 24.742 52.6699 24.4859 53.047 23.9777C53.4249 23.468 53.6139 22.796 53.6139 21.9609ZM64.7574 21.8966C64.7574 23.2407 64.3837 24.303 63.6354 25.0829C62.9647 25.7772 62.1329 26.1239 61.1391 26.1239C60.0669 26.1239 59.2958 25.7508 58.8276 25.003V29.1496H57.0289V20.6399C57.0289 19.7958 57.0062 18.9302 56.9623 18.0425H58.5441L58.6445 19.2951H58.6782C59.2772 18.3513 60.1875 17.8794 61.4099 17.8794C62.3641 17.8794 63.1613 18.2475 63.8008 18.9846C64.4369 19.7233 64.7574 20.6934 64.7574 21.8966ZM62.9242 21.9609C62.9242 21.1917 62.7462 20.5576 62.3902 20.0577C62.0013 19.538 61.4808 19.2778 60.8261 19.2778C60.3824 19.2778 59.9791 19.4227 59.6172 19.7085C59.2561 19.9967 59.0207 20.3731 58.9102 20.8392C58.8554 21.0566 58.8259 21.2337 58.8259 21.3737V22.6922C58.8259 23.2662 59.0072 23.7513 59.3666 24.1482C59.7277 24.5427 60.1968 24.742 60.7755 24.742C61.4538 24.742 61.9811 24.4859 62.3573 23.9777C62.7353 23.468 62.9242 22.796 62.9242 21.9609ZM75.1679 22.8709C75.1679 23.804 74.8338 24.5624 74.1698 25.148C73.4393 25.7871 72.4193 26.1074 71.1117 26.1074C69.9036 26.1074 68.9351 25.8801 68.2045 25.4247L68.6204 23.9613C69.4092 24.4175 70.2756 24.6448 71.2188 24.6448C71.8971 24.6448 72.4244 24.4949 72.8006 24.1976C73.1777 23.8995 73.3684 23.5009 73.3684 23.0035C73.3684 22.5579 73.2106 22.1849 72.901 21.881C72.5897 21.5779 72.0751 21.2955 71.3521 21.036C69.3864 20.3204 68.4028 19.2737 68.4028 17.8967C68.4028 16.9974 68.7503 16.2611 69.4438 15.6855C70.1373 15.1107 71.0568 14.8232 72.2008 14.8232C73.2224 14.8232 74.0737 14.997 74.7494 15.3437L74.2981 16.775C73.662 16.439 72.944 16.271 72.1409 16.271C71.5065 16.271 71.0088 16.4234 70.6527 16.7264C70.3533 16.9974 70.2014 17.3276 70.2014 17.7196C70.2014 18.152 70.3743 18.5111 70.7185 18.7927C71.0172 19.0521 71.5622 19.3346 72.3501 19.6377C73.3169 20.0181 74.0273 20.4612 74.482 20.9702C74.9401 21.4791 75.1679 22.1141 75.1679 22.8709ZM81.1298 19.3601H79.1473V23.197C79.1473 24.1729 79.4965 24.6596 80.1967 24.6596C80.5182 24.6596 80.7848 24.6333 80.9957 24.5781L81.0454 25.9114C80.6911 26.0407 80.2246 26.1058 79.6467 26.1058C78.9364 26.1058 78.3812 25.8941 77.9805 25.4708C77.5815 25.0475 77.3807 24.3384 77.3807 23.3403V19.3568H76.1996V18.0392H77.3807V16.5922L79.1473 16.0717V18.0392H81.1298V19.3601ZM90.0571 21.9288C90.0571 23.1435 89.7011 24.1408 88.9908 24.9207C88.2475 25.7236 87.2588 26.1239 86.0262 26.1239C84.8367 26.1239 83.891 25.7393 83.1857 24.9709C82.4805 24.2009 82.1278 23.2308 82.1278 22.0605C82.1278 20.8359 82.4923 19.8328 83.2186 19.053C83.9467 18.2722 84.927 17.8819 86.1595 17.8819C87.3474 17.8819 88.3015 18.2673 89.0237 19.0365C89.7137 19.7826 90.0571 20.7462 90.0571 21.9288ZM88.1927 21.9691C88.1927 21.2452 88.0324 20.6243 87.711 20.1046C87.3339 19.4771 86.7939 19.1633 86.0946 19.1633C85.3741 19.1633 84.8215 19.4771 84.4453 20.1046C84.123 20.6243 83.9627 21.2559 83.9627 22.0021C83.9627 22.7268 84.123 23.3494 84.4453 23.8674C84.8342 24.4949 85.3766 24.8087 86.0794 24.8087C86.7669 24.8087 87.306 24.4883 87.6958 23.8517C88.0265 23.3197 88.1927 22.6947 88.1927 21.9691ZM95.906 19.5866C95.7189 19.5536 95.5292 19.5374 95.3391 19.538C94.7064 19.538 94.2171 19.7703 93.8729 20.238C93.5742 20.6498 93.424 21.1703 93.424 21.7986V25.9452H91.6254V20.5312C91.627 19.7016 91.6096 18.8721 91.5731 18.0433H93.1397L93.2055 19.5553H93.2553C93.446 19.0357 93.7446 18.6165 94.1546 18.3027C94.5299 18.0285 94.9859 17.8801 95.4547 17.8794C95.6209 17.8794 95.771 17.8909 95.9043 17.9115L95.906 19.5866ZM103.95 21.6199C103.955 21.8868 103.933 22.1536 103.884 22.4163H98.4884C98.5086 23.197 98.7701 23.7949 99.2713 24.2067C99.726 24.574 100.314 24.7585 101.036 24.7585C101.835 24.7585 102.564 24.6349 103.219 24.3854L103.501 25.6034C102.735 25.9295 101.831 26.0918 100.787 26.0918C99.5319 26.0918 98.5466 25.7311 97.8295 25.0113C97.1141 24.2907 96.7555 23.3222 96.7555 22.1091C96.7555 20.9183 97.0888 19.9259 97.7561 19.1345C98.4546 18.2895 99.3986 17.8671 100.586 17.8671C101.753 17.8671 102.636 18.2895 103.236 19.1345C103.711 19.804 103.95 20.6342 103.95 21.6199ZM102.235 21.1645C102.248 20.6432 102.129 20.1944 101.886 19.8147C101.574 19.3255 101.095 19.0818 100.453 19.0818C99.8652 19.0818 99.386 19.3198 99.0215 19.7974C98.722 20.1771 98.544 20.6333 98.4892 21.1629L102.235 21.1645Z" fill="white"/>
<path d="M39.036 11.1103C38.5357 11.1103 38.103 11.0865 37.7427 11.0461V5.74744C38.2466 5.67146 38.7557 5.63401 39.2655 5.63543C41.3282 5.63543 42.2781 6.62615 42.2781 8.24112C42.2781 10.104 41.1561 11.1103 39.036 11.1103ZM39.338 6.31486C39.0596 6.31486 38.8226 6.33133 38.626 6.37086V10.3988C38.7323 10.4153 38.9365 10.4227 39.2233 10.4227C40.5748 10.4227 41.3442 9.67161 41.3442 8.265C41.3442 7.01075 40.6482 6.31486 39.338 6.31486ZM45.2384 11.1507C44.0759 11.1507 43.3225 10.3033 43.3225 9.15278C43.3225 7.9537 44.0919 7.09887 45.3042 7.09887C46.4499 7.09887 47.2201 7.90594 47.2201 9.08937C47.2201 10.3033 46.4262 11.1507 45.2384 11.1507ZM45.2721 7.7297C44.6335 7.7297 44.2244 8.31277 44.2244 9.12807C44.2244 9.92773 44.642 10.5108 45.2637 10.5108C45.8855 10.5108 46.3031 9.88738 46.3031 9.1116C46.3031 8.321 45.8939 7.7297 45.2721 7.7297ZM53.8493 7.17875L52.605 11.0626H51.7943L51.2788 9.37596C51.1506 8.9634 51.0439 8.54479 50.9591 8.12171H50.9422C50.8772 8.54501 50.7541 8.96913 50.6233 9.37596L50.0749 11.0626H49.2558L48.0848 7.17875H48.9934L49.4439 9.02513C49.5502 9.4649 49.6396 9.87997 49.7139 10.272H49.7307C49.7957 9.94503 49.902 9.53655 50.0581 9.03337L50.6233 7.17958H51.3438L51.8845 8.99384C52.0153 9.43361 52.1216 9.86515 52.2043 10.2728H52.2279C52.2853 9.87338 52.3755 9.44926 52.4979 8.99384L52.9813 7.17958L53.8493 7.17875ZM58.4303 11.0626H57.5461V8.83242C57.5461 8.14559 57.2762 7.80135 56.7438 7.80135C56.2199 7.80135 55.8597 8.24112 55.8597 8.75254V11.0626H54.9756V8.28889C54.9756 7.94547 54.9672 7.57735 54.9427 7.17793H55.7205L55.7619 7.77747H55.7863C56.0242 7.3624 56.5068 7.09887 57.0476 7.09887C57.8827 7.09887 58.4311 7.72229 58.4311 8.73689L58.4303 11.0626ZM60.8684 11.0626H59.9834V5.39661H60.8684V11.0626ZM64.0919 11.1507C62.9302 11.1507 62.176 10.3033 62.176 9.15278C62.176 7.9537 62.9454 7.09887 64.1568 7.09887C65.3033 7.09887 66.0727 7.90594 66.0727 9.08937C66.0736 10.3033 65.2789 11.1507 64.0919 11.1507ZM64.1248 7.7297C63.4861 7.7297 63.077 8.31277 63.077 9.12807C63.077 9.92773 63.4954 10.5108 64.1155 10.5108C64.7381 10.5108 65.1549 9.88738 65.1549 9.1116C65.1557 8.321 64.7474 7.7297 64.1248 7.7297ZM69.5586 11.0626L69.4945 10.6154H69.4709C69.2009 10.9753 68.8069 11.1507 68.3075 11.1507C67.5946 11.1507 67.0885 10.6632 67.0885 10.0076C67.0885 9.04902 67.9397 8.55324 69.4135 8.55324V8.48159C69.4135 7.97018 69.136 7.71405 68.5876 7.71405C68.1953 7.71405 67.8511 7.81041 67.5482 8.00229L67.3685 7.43487C67.7364 7.21087 68.1953 7.09887 68.7344 7.09887C69.7737 7.09887 70.2985 7.63417 70.2985 8.7056V10.1361C70.2985 10.5281 70.3162 10.832 70.3558 11.0634L69.5586 11.0626ZM69.4371 9.12807C68.4551 9.12807 67.9625 9.36031 67.9625 9.91126C67.9625 10.3189 68.2164 10.5182 68.569 10.5182C69.0187 10.5182 69.4371 10.183 69.4371 9.72761V9.12807ZM74.5917 11.0626L74.5504 10.4392H74.5259C74.272 10.9102 73.8451 11.1507 73.2487 11.1507C72.2894 11.1507 71.5791 10.3272 71.5791 9.16843C71.5791 7.9537 72.3156 7.09804 73.3212 7.09804C73.8535 7.09804 74.2306 7.27346 74.4432 7.62593H74.461V5.39661H75.3459V10.0159C75.3459 10.3914 75.3552 10.743 75.3788 11.0626H74.5917ZM74.461 8.77725C74.461 8.23371 74.0923 7.77005 73.5296 7.77005C72.8741 7.77005 72.4734 8.33747 72.4734 9.13631C72.4734 9.9195 72.8893 10.4556 73.5119 10.4556C74.0678 10.4556 74.461 9.98374 74.461 9.42455V8.77725ZM80.9569 11.1507C79.7952 11.1507 79.0419 10.3033 79.0419 9.15278C79.0419 7.9537 79.8113 7.09887 81.0227 7.09887C82.1692 7.09887 82.9386 7.90594 82.9386 9.08937C82.9394 10.3033 82.1456 11.1507 80.9569 11.1507ZM80.9898 7.7297C80.352 7.7297 79.9429 8.31277 79.9429 9.12807C79.9429 9.92773 80.3605 10.5108 80.9814 10.5108C81.604 10.5108 82.0207 9.88738 82.0207 9.1116C82.0224 8.321 81.6133 7.7297 80.9898 7.7297ZM87.6933 11.0626H86.8083V8.83242C86.8083 8.14559 86.5384 7.80135 86.0061 7.80135C85.4822 7.80135 85.1228 8.24112 85.1228 8.75254V11.0626H84.2378V8.28889C84.2378 7.94547 84.2294 7.57735 84.2049 7.17793H84.9827L85.0241 7.77747H85.0485C85.2856 7.3624 85.769 7.09804 86.3089 7.09804C87.1441 7.09804 87.6933 7.72147 87.6933 8.73607V11.0626ZM93.6418 7.82606H92.6691V9.71197C92.6691 10.1921 92.8395 10.4317 93.1837 10.4317C93.3397 10.4317 93.4705 10.4153 93.576 10.3914L93.6004 11.0469C93.4292 11.1112 93.1997 11.1433 92.9145 11.1433C92.2177 11.1433 91.801 10.7677 91.801 9.78444V7.82606H91.2205V7.17875H91.801V6.46721L92.6691 6.21109V7.17793H93.6418V7.82606ZM98.3222 11.0626H97.4389V8.84889C97.4389 8.15383 97.1698 7.80217 96.6367 7.80217C96.1786 7.80217 95.7517 8.10606 95.7517 8.72125V11.0626H94.8684V5.39661H95.7517V7.7297H95.7694C96.0478 7.3064 96.451 7.09804 96.9657 7.09804C97.8076 7.09804 98.3222 7.73711 98.3222 8.75254V11.0626ZM103.117 9.3282H100.464C100.481 10.0636 100.98 10.4787 101.718 10.4787C102.11 10.4787 102.471 10.4144 102.79 10.295L102.928 10.8946C102.551 11.0543 102.108 11.1342 101.593 11.1342C100.349 11.1342 99.6121 10.3667 99.6121 9.17666C99.6121 7.98582 100.366 7.09063 101.493 7.09063C102.51 7.09063 103.148 7.82606 103.148 8.93701C103.154 9.06812 103.143 9.19943 103.117 9.3282ZM102.307 8.71301C102.307 8.11347 101.997 7.69017 101.432 7.69017C100.924 7.69017 100.522 8.12171 100.465 8.71301H102.307Z" fill="white"/>
<defs>
<linearGradient id="paint0_linear_3897_9359" x1="84.3794" y1="33.0201" x2="84.3794" y2="-85.7509" gradientUnits="userSpaceOnUse">
<stop stop-color="#1A1A1A" stop-opacity="0.1"/>
<stop offset="0.123" stop-color="#212121" stop-opacity="0.151"/>
<stop offset="0.308" stop-color="#353535" stop-opacity="0.227"/>
<stop offset="0.532" stop-color="#575757" stop-opacity="0.318"/>
<stop offset="0.783" stop-color="#858585" stop-opacity="0.421"/>
<stop offset="1" stop-color="#B3B3B3" stop-opacity="0.51"/>
</linearGradient>
</defs>
</svg>
