<svg width="17" height="14" viewBox="0 0 17 14" fill="none" xmlns="http://www.w3.org/2000/svg">
<path d="M7.03745 8.50412L7.0587 0.955234L8.77314 1.50145L10.9178 9.74294L15.5889 11.2326C15.93 11.3414 16.2139 11.5813 16.3781 11.8995C16.5423 12.2176 16.5734 12.588 16.4646 12.9291C16.3558 13.2702 16.1159 13.5541 15.7977 13.7184C15.4795 13.8826 15.1092 13.9137 14.768 13.8049L1.47825 9.56501L2.29905 6.99271L2.5132 7.06062L3.19344 10.1117L0.862163 9.36858C0.670992 9.30764 0.505664 9.18458 0.392444 9.01893C0.279225 8.85327 0.224607 8.65454 0.237268 8.45429L0.54756 3.5996L1.83371 4.01L2.5132 7.06062L7.03793 8.50336L7.03745 8.50412Z" fill="#DC143C"/>
</svg>
