<svg width="87" height="39" viewBox="0 0 87 39" fill="none" xmlns="http://www.w3.org/2000/svg">
<rect x="1.44512" y="1.44512" width="84.3418" height="36.6221" rx="1.66464" fill="white" stroke="white" stroke-width="1.10976"/>
<path d="M28.0616 10.3292V6.45616H28.9439L30.1757 9.33599L31.4076 6.45616H32.2843V10.3292H31.5074V7.81007L30.4698 10.3292H29.8816L28.8385 7.81007V10.3292H28.0616ZM34.4839 7.84336C34.1121 7.84336 33.818 8.08196 33.757 8.50367H35.2163C35.2052 8.09861 34.8834 7.84336 34.4839 7.84336ZM35.9432 9.36373C35.7768 9.92971 35.2663 10.3792 34.5061 10.3792C33.6127 10.3792 32.9635 9.7577 32.9635 8.79221C32.9635 7.82117 33.5961 7.20525 34.5061 7.20525C35.3939 7.20525 36.0209 7.81007 36.0209 8.72562C36.0209 8.8255 36.0154 8.92538 35.9987 9.02526H33.7514C33.7903 9.48026 34.101 9.7355 34.4894 9.7355C34.8224 9.7355 35.0055 9.56904 35.1054 9.36373H35.9432ZM40.9992 10.3292V8.63129C40.9992 8.143 40.7273 7.88775 40.3167 7.88775C39.9006 7.88775 39.6287 8.143 39.6287 8.63129V10.3292H38.8518V8.63129C38.8518 8.143 38.5799 7.88775 38.1693 7.88775C37.7476 7.88775 37.4757 8.143 37.4757 8.63129V10.3292H36.6989V7.25519H37.4757V7.62696C37.6699 7.37171 37.9973 7.2108 38.3802 7.2108C38.8574 7.2108 39.2514 7.4161 39.4622 7.79897C39.662 7.4494 40.067 7.2108 40.5165 7.2108C41.2545 7.2108 41.7761 7.6769 41.7761 8.52586V10.3292H40.9992ZM43.401 7.70464C43.5897 7.42165 43.9504 7.20525 44.4165 7.20525C45.2044 7.20525 45.8203 7.82117 45.8203 8.78111C45.8203 9.74105 45.2044 10.3792 44.4165 10.3792C43.9337 10.3792 43.5897 10.1572 43.401 9.89087V10.3292H42.6242V6.22311H43.401V7.70464ZM45.0268 8.78111C45.0268 8.19848 44.6329 7.88775 44.2112 7.88775C43.795 7.88775 43.401 8.20958 43.401 8.79221C43.401 9.37483 43.795 9.69666 44.2112 9.69666C44.6329 9.69666 45.0268 9.36373 45.0268 8.78111ZM47.8164 7.84336C47.4446 7.84336 47.1505 8.08196 47.0895 8.50367H48.5488C48.5377 8.09861 48.2159 7.84336 47.8164 7.84336ZM49.2757 9.36373C49.1093 9.92971 48.5988 10.3792 47.8386 10.3792C46.9452 10.3792 46.296 9.7577 46.296 8.79221C46.296 7.82117 46.9286 7.20525 47.8386 7.20525C48.7264 7.20525 49.3534 7.81007 49.3534 8.72562C49.3534 8.8255 49.3479 8.92538 49.3312 9.02526H47.084C47.1228 9.48026 47.4335 9.7355 47.8219 9.7355C48.1549 9.7355 48.338 9.56904 48.4379 9.36373H49.2757ZM50.8082 8.79775V10.3292H50.0314V7.25519H50.8082V7.73238C51.0025 7.4161 51.3243 7.2108 51.7515 7.2108V8.02647H51.5462C51.0857 8.02647 50.8082 8.20403 50.8082 8.79775ZM56.7875 8.79221C56.7875 9.7577 56.0773 10.3792 55.1839 10.3792C54.2961 10.3792 53.6247 9.7577 53.6247 8.79221C53.6247 7.82117 54.3183 7.20525 55.2061 7.20525C56.0939 7.20525 56.7875 7.82117 56.7875 8.79221ZM54.4126 8.79221C54.4126 9.40257 54.7677 9.70221 55.1839 9.70221C55.5945 9.70221 55.9885 9.40257 55.9885 8.79221C55.9885 8.17629 55.6056 7.8822 55.195 7.8822C54.7844 7.8822 54.4126 8.17629 54.4126 8.79221ZM57.5516 10.3292V7.8933H57.202V7.25519H57.5516V7.09982C57.5516 6.34518 57.9788 5.99561 58.8444 6.01781V6.67256C58.4671 6.66147 58.3395 6.78354 58.3395 7.12757V7.25519H58.8777V7.8933H58.3395V10.3292H57.5516Z" fill="#003566"/>
<path d="M30.2989 25.638H28.1164L27.8204 26.6738H25.8599L28.2089 20.4407H30.3174L32.6664 26.6738H30.6503L30.2989 25.638ZM29.892 24.2878L29.2076 22.0498L28.5233 24.2878H29.892Z" fill="#18457B"/>
<path d="M32.6667 20.4407H38.53V21.9758H36.5694V26.6738H34.6458V21.9758H32.6852V20.4407H32.6667Z" fill="#18457B"/>
<path d="M43.1163 25.638H40.9338L40.6378 26.6738H38.6772L41.0262 20.4407H43.1348L45.4838 26.6738H43.4677L43.1163 25.638ZM42.7094 24.2878L42.025 22.0498L41.3407 24.2878H42.7094Z" fill="#18457B"/>
<path d="M46.5378 20.4407H50.1446C50.7549 20.4407 51.1988 20.5886 51.5318 20.8846C51.8462 21.1805 52.0127 21.5504 52.0127 21.9943C52.0127 22.3643 51.9017 22.6787 51.6612 22.9376C51.5133 23.1226 51.2913 23.2521 50.9954 23.363C51.4393 23.474 51.7722 23.659 51.9942 23.9179C52.1976 24.1769 52.3086 24.5098 52.3086 24.9167C52.3086 25.2311 52.2346 25.5271 52.0866 25.786C51.9387 26.045 51.7352 26.2484 51.4763 26.3964C51.3098 26.4889 51.0694 26.5628 50.7364 26.5998C50.311 26.6553 50.0151 26.6923 49.8671 26.6923H46.5378V20.4407ZM48.4799 22.8821H49.3122C49.6082 22.8821 49.8301 22.8267 49.9411 22.7342C50.0521 22.6232 50.1261 22.4752 50.1261 22.2903C50.1261 22.1053 50.0706 21.9758 49.9411 21.8649C49.8301 21.7539 49.6267 21.7169 49.3307 21.7169H48.4799V22.8821ZM48.4799 25.3236H49.4602C49.7931 25.3236 50.0336 25.2681 50.1631 25.1387C50.2925 25.0277 50.3665 24.8612 50.3665 24.6578C50.3665 24.4728 50.2925 24.3248 50.1631 24.2139C50.0336 24.1029 49.7931 24.0474 49.4602 24.0474H48.4799V25.3236Z" fill="#18457B"/>
<path d="M58.8035 18.9609C59.1734 19.1459 59.1364 19.7748 59.1364 19.7748V24.8427C59.1364 24.8427 59.4138 24.5652 60.2277 24.4912C61.023 24.4173 61.0415 23.8069 61.0415 23.8069C61.0415 23.8069 61.0415 20.3111 61.0415 19.8672C61.0415 19.4048 61.5779 18.9794 61.5779 18.9794H58.8035V18.9609ZM60.2092 20.8105C59.9317 20.8105 59.6913 20.5886 59.6913 20.2926C59.6913 20.0152 59.9132 19.7748 60.2092 19.7748C60.4866 19.7748 60.727 19.9967 60.727 20.2926C60.7086 20.5701 60.4866 20.8105 60.2092 20.8105Z" fill="#18457B"/>
<path d="M56.5287 18.9609C56.4547 18.9609 56.3992 18.9609 56.3438 18.9609L57.2316 20.6811L55.6224 18.9609C55.5114 18.9609 55.4005 18.9609 55.2895 18.9609L56.1773 20.792L54.4572 18.9609C54.0688 18.9609 53.8468 18.9609 53.8468 18.9609L56.2698 22.3272V22.9006H53.8838V24.6947H56.2328V25.2681L53.8098 28.6343C53.8098 28.6343 54.0503 28.6343 54.4202 28.6343L56.1403 26.8032L55.2525 28.6343C55.3635 28.6343 55.4745 28.6343 55.5854 28.6343L57.1946 26.9142L56.3068 28.6343C56.3623 28.6343 56.4362 28.6343 56.4917 28.6343C58.3413 28.4679 58.5263 26.6738 58.5263 26.6738V20.94C58.5633 20.9215 58.3783 19.1089 56.5287 18.9609ZM57.5645 24.3063C57.2871 24.3063 57.0466 24.0843 57.0466 23.7884C57.0466 23.511 57.2686 23.2705 57.5645 23.2705C57.8419 23.2705 58.0824 23.4925 58.0824 23.7884C58.0824 24.0658 57.8419 24.3063 57.5645 24.3063Z" fill="#18457B"/>
<path d="M28.8594 19.4418C28.8779 19.4048 28.8779 19.3678 28.8779 19.3308C28.8779 19.2753 28.8594 19.2383 28.804 19.2198C28.767 19.2013 28.73 19.2013 28.656 19.2013C28.545 19.2013 28.4895 19.2013 28.508 19.2013C28.3416 19.2013 28.2676 19.1458 28.2676 19.0164C28.2676 18.9054 28.3046 18.7944 28.397 18.665L28.4895 18.7204C28.434 18.8314 28.397 18.9239 28.397 18.9794C28.397 19.0349 28.4525 19.0719 28.545 19.0719C28.5635 19.0719 28.6005 19.0719 28.6375 19.0719C28.6745 19.0719 28.7115 19.0719 28.73 19.0719H28.841C28.8779 19.0719 28.9149 19.0904 28.9519 19.1089L29.0999 18.5725C29.0999 18.554 29.0999 18.554 29.0999 18.554C29.0999 18.554 29.0814 18.5355 29.0629 18.5355C29.0259 18.5355 28.9704 18.5725 28.8964 18.628C28.8225 18.6834 28.767 18.7389 28.767 18.7759V18.7944C28.767 18.7944 28.7855 18.7944 28.804 18.7759L28.841 18.8684C28.804 18.9054 28.7485 18.9054 28.73 18.9054C28.656 18.9054 28.6375 18.8684 28.6375 18.8129C28.6375 18.7389 28.693 18.6465 28.8225 18.554C28.9334 18.4615 29.0444 18.406 29.1184 18.406C29.1554 18.406 29.1924 18.4245 29.2109 18.443C29.2294 18.4615 29.2479 18.4985 29.2479 18.5355C29.2479 18.554 29.2479 18.554 29.2479 18.5725L29.0259 19.4418H28.8594V19.4418Z" fill="#C4161C"/>
<path d="M29.8202 18.5724L29.6907 18.6094C29.6352 18.6279 29.5982 18.6464 29.5612 18.6649C29.4317 18.7389 29.3393 18.8683 29.2838 19.0533C29.2838 19.0718 29.2653 19.1088 29.2653 19.1273C29.2653 19.1643 29.2653 19.2013 29.2838 19.2383C29.3023 19.2753 29.3393 19.3122 29.3762 19.3122C29.4132 19.3122 29.4502 19.2937 29.5057 19.2383C29.5242 19.2568 29.5612 19.2938 29.5797 19.3122C29.5057 19.4047 29.4317 19.4417 29.3578 19.4417C29.2098 19.4417 29.1543 19.3492 29.1543 19.1643C29.1543 18.9978 29.2098 18.8683 29.3023 18.7389C29.3578 18.6649 29.4132 18.6094 29.4872 18.5539H29.2098L29.2468 18.4244H29.8386L29.8202 18.5724Z" fill="#C4161C"/>
<path d="M30.5992 18.5724L30.3588 19.4417H30.2293L30.3403 19.0163C30.3218 18.9053 30.2848 18.8498 30.2478 18.8498C30.2293 18.8498 30.1923 18.8683 30.1553 18.9238C30.0813 18.9978 30.0444 19.0533 30.0259 19.0533C29.9704 19.1088 29.9334 19.1273 29.8779 19.1273C29.8039 19.1273 29.7669 19.0533 29.7114 18.9238L29.8409 18.8683C29.8594 18.9608 29.8779 19.0163 29.8964 19.0163C29.9149 19.0163 29.9334 18.9978 29.9704 18.9608C30.0074 18.9238 30.0259 18.9053 30.0259 18.8868C30.0259 18.8683 30.0444 18.8498 30.0444 18.8313C30.0444 18.7759 30.0074 18.7389 29.9519 18.7019C29.9149 18.6834 29.8779 18.6649 29.8039 18.6464L29.8224 18.5909H29.7114L29.7484 18.4614H30.7287L30.6917 18.5909H30.5992V18.5724ZM30.4698 18.5724H30.0998C30.1553 18.6094 30.1738 18.6649 30.1923 18.7389C30.2293 18.7204 30.2663 18.7019 30.3033 18.7019C30.3403 18.7019 30.3773 18.7204 30.4143 18.7759L30.4698 18.5724Z" fill="#C4161C"/>
<path d="M30.7648 18.4799L30.8203 18.3135H30.9498L30.9128 18.4429H31.0237L30.9868 18.5724H30.8758L30.6353 19.4417H30.5059L30.7093 18.6834C30.7093 18.6834 30.7093 18.6834 30.7093 18.6649C30.7093 18.6464 30.7093 18.6279 30.6908 18.5909C30.6908 18.5724 30.6723 18.5724 30.6723 18.5724H30.6168L30.6538 18.4429H30.7278C30.7463 18.4614 30.7648 18.4614 30.7648 18.4799Z" fill="#C4161C"/>
<path d="M31.765 18.4985C31.6355 18.332 31.506 18.258 31.3395 18.258C31.2286 18.258 31.1546 18.295 31.1176 18.3875C31.1361 18.4245 31.1361 18.443 31.1546 18.4615H31.3026L31.2656 18.5909H31.1361L30.9141 19.4603H30.7847L31.0251 18.5909H30.8771L30.9141 18.4615H31.0251L30.9881 18.3875C31.0621 18.221 31.1916 18.1285 31.3765 18.1285C31.4875 18.1285 31.58 18.1655 31.654 18.221C31.7095 18.258 31.7835 18.332 31.8759 18.406L31.765 18.4985Z" fill="#C4161C"/>
<path d="M32.0599 18.5724L31.8195 19.4417H31.69L31.801 19.0163C31.7825 18.9053 31.7455 18.8498 31.7085 18.8498C31.69 18.8498 31.653 18.8683 31.616 18.9238C31.542 18.9978 31.505 19.0533 31.4866 19.0533C31.4311 19.1088 31.3941 19.1273 31.3386 19.1273C31.2831 19.1273 31.2276 19.0533 31.1721 18.9238L31.3016 18.8683C31.3201 18.9608 31.3386 19.0163 31.3571 19.0163C31.3756 19.0163 31.3941 18.9978 31.4311 18.9608C31.4681 18.9238 31.4866 18.9053 31.4866 18.8868C31.4866 18.8683 31.505 18.8498 31.505 18.8313C31.505 18.7759 31.4681 18.7389 31.4126 18.7019C31.3756 18.6834 31.3386 18.6649 31.2646 18.6464L31.2831 18.5909H31.1721L31.2091 18.4614H32.1894L32.1524 18.5909H32.0599V18.5724ZM31.9305 18.5724H31.5605C31.616 18.6094 31.6345 18.6649 31.653 18.7389C31.69 18.7204 31.727 18.7019 31.764 18.7019C31.801 18.7019 31.838 18.7204 31.875 18.7759L31.9305 18.5724Z" fill="#C4161C"/>
<path d="M32.6883 18.5724L32.5588 18.6094C32.5034 18.6279 32.4664 18.6464 32.4294 18.6649C32.2999 18.7389 32.2074 18.8683 32.1519 19.0533C32.1519 19.0718 32.1334 19.1088 32.1334 19.1273C32.1334 19.1643 32.1334 19.2013 32.1519 19.2383C32.1704 19.2753 32.2074 19.3122 32.2444 19.3122C32.2814 19.3122 32.3184 19.2937 32.3739 19.2383C32.3924 19.2568 32.4294 19.2938 32.4479 19.3122C32.3739 19.4047 32.2999 19.4417 32.2259 19.4417C32.0779 19.4417 32.0225 19.3492 32.0225 19.1643C32.0225 18.9978 32.0779 18.8683 32.1704 18.7389C32.2259 18.6649 32.2814 18.6094 32.3554 18.5539H32.0779L32.1149 18.4244H32.7068L32.6883 18.5724Z" fill="#C4161C"/>
<path d="M33.3349 18.5725L33.0944 19.4418H32.9649L33.0019 19.2938C32.965 19.1643 32.8355 19.0904 32.669 19.0349L32.6135 18.9239C32.706 18.8499 32.7985 18.7759 32.9095 18.7019C32.817 18.6095 32.7245 18.554 32.6135 18.5725L32.6505 18.443H33.5013L33.4643 18.5725H33.3349V18.5725ZM32.743 19.3863C32.7245 19.3863 32.706 19.3863 32.6875 19.3678C32.669 19.3493 32.669 19.3308 32.669 19.3123C32.669 19.2753 32.6875 19.2383 32.706 19.2198C32.743 19.1828 32.7615 19.1828 32.7985 19.1828C32.817 19.1828 32.8355 19.1828 32.854 19.2013C32.8725 19.2198 32.8725 19.2383 32.8725 19.2568C32.8725 19.2938 32.854 19.3308 32.8355 19.3493C32.817 19.3678 32.78 19.3863 32.743 19.3863ZM33.2054 18.5725H32.9834C33.0204 18.6095 33.0574 18.6649 33.0759 18.7204C32.9465 18.8129 32.854 18.8684 32.7985 18.9239C32.9095 18.9609 33.0019 19.0164 33.0574 19.1088L33.2054 18.5725Z" fill="#C4161C"/>
<path d="M34.2056 18.5724L33.9651 19.4417H33.8356L34.0021 18.8313C34.0021 18.8128 34.0021 18.8128 34.0021 18.7943C34.0021 18.7573 33.9836 18.7203 33.9651 18.6649C33.9466 18.6094 33.9096 18.5909 33.8726 18.5909C33.8356 18.5909 33.7986 18.6464 33.7616 18.7388V18.7573C33.7616 18.7943 33.7801 18.8128 33.8356 18.8128C33.8541 18.8128 33.8726 18.7943 33.9096 18.7758L33.9466 18.8868C33.8911 18.9238 33.8356 18.9423 33.7986 18.9423C33.7432 18.9423 33.6877 18.9053 33.6692 18.8498C33.6137 18.9238 33.5397 18.9423 33.4842 18.9423C33.4472 18.9423 33.3917 18.9238 33.3732 18.8683L33.4657 18.7573C33.4842 18.7758 33.5027 18.7943 33.5027 18.7943H33.5212C33.5767 18.7758 33.6137 18.7203 33.6137 18.6464C33.6137 18.5724 33.5582 18.5169 33.4472 18.5169C33.4287 18.5169 33.3917 18.5169 33.3547 18.5169L33.3917 18.3874C33.4102 18.3874 33.4287 18.3874 33.4472 18.3874C33.4657 18.3874 33.4842 18.3874 33.5027 18.3874C33.5582 18.3874 33.6137 18.3874 33.6507 18.4059C33.6877 18.4244 33.7247 18.4614 33.7247 18.5169C33.7801 18.4429 33.8541 18.3874 33.9281 18.3874C33.9836 18.3874 34.0391 18.4244 34.0761 18.4984L34.1501 18.2209H34.2795L34.2425 18.3689H34.3905L34.3535 18.4984H34.2056V18.5724Z" fill="#C4161C"/>
<path d="M35.0207 18.5724L34.7803 19.4417H34.6508L34.7433 19.0903C34.7433 19.0718 34.7433 19.0718 34.7433 19.0533C34.7433 19.0163 34.7248 18.9608 34.7063 18.9238C34.6693 18.8683 34.6508 18.8313 34.6138 18.8313C34.4843 18.8313 34.4104 18.8868 34.3919 18.9978C34.3919 19.0163 34.3919 19.0163 34.3919 19.0163C34.3919 19.0533 34.4104 19.0718 34.4289 19.1088L34.3179 19.2013C34.2809 19.1643 34.2439 19.1088 34.2439 19.0533C34.2439 18.9608 34.2809 18.8868 34.3549 18.7944C34.4289 18.7204 34.5213 18.6834 34.5953 18.6834C34.6878 18.6834 34.7618 18.7204 34.7988 18.8129L34.8728 18.5539H34.2439L34.2809 18.4244H35.1502L35.1132 18.5539H35.0207V18.5724Z" fill="#C4161C"/>
<path d="M36.4415 18.5725L36.201 19.4418H36.0716L36.127 19.2568C36.127 19.2198 36.0901 19.1643 36.0531 19.0719C35.9791 19.1458 35.8866 19.1828 35.8126 19.1828C35.5907 19.1828 35.4797 18.9979 35.4797 18.628L35.6092 18.591C35.6092 18.7019 35.6092 18.8129 35.6461 18.8869C35.6831 18.9979 35.7571 19.0534 35.8496 19.0534C35.9051 19.0534 35.9421 19.0349 35.9791 18.9794C36.0161 18.9424 36.0346 18.8869 36.0346 18.8314C36.0346 18.7944 36.0161 18.7574 35.9976 18.7389C35.9791 18.7204 35.9421 18.7019 35.9051 18.7019C35.8681 18.7019 35.8311 18.7389 35.7941 18.8129L35.6831 18.7944C35.7386 18.6649 35.8311 18.591 35.9421 18.591C35.9976 18.591 36.0531 18.6095 36.0901 18.6649C36.127 18.7019 36.1455 18.7574 36.1455 18.8314C36.1455 18.8684 36.1455 18.9054 36.127 18.9424L36.164 19.0349L36.2935 18.5725H35.3872L35.4242 18.443H36.5709L36.534 18.5725H36.4415Z" fill="#C4161C"/>
<path d="M37.2773 18.5725H37.1479L36.9074 19.4418H36.7779L36.8149 19.2753C36.7964 19.2013 36.7594 19.1458 36.704 19.0719C36.63 18.9979 36.5745 18.9794 36.5005 18.9794H36.482L36.445 18.8684C36.63 18.7574 36.8149 18.6649 36.9814 18.6095L36.9999 18.5725H36.4265L36.4635 18.443H37.2773V18.5725ZM36.9814 18.7389C36.8704 18.7759 36.7779 18.8129 36.6855 18.8684C36.7779 18.9054 36.8519 18.9609 36.9074 19.0534L36.9814 18.7389Z" fill="#C4161C"/>
<path d="M37.8101 18.5724L37.6621 19.1273C37.6621 19.1458 37.6436 19.1643 37.6436 19.1828C37.6436 19.2013 37.6436 19.2013 37.6621 19.2013C37.7361 19.2013 37.7916 19.1643 37.8656 19.0903C37.9396 19.0164 37.9766 18.9424 37.9951 18.8684C37.9951 18.8499 37.9951 18.8314 37.9766 18.8314C37.9581 18.8314 37.9396 18.8499 37.9026 18.8684L37.8471 18.7759C37.9211 18.7389 37.9766 18.7019 38.0136 18.7019C38.0875 18.7019 38.1245 18.7389 38.1245 18.8129C38.1245 18.8314 38.1245 18.8499 38.1245 18.8684C38.106 18.9609 38.032 19.0718 37.9396 19.1643C37.8286 19.2753 37.7361 19.3308 37.6251 19.3308C37.5512 19.3308 37.5142 19.2938 37.5142 19.2013C37.5142 19.1828 37.5142 19.1643 37.5327 19.1458L37.6806 18.5909H37.5327L37.5696 18.4615H38.143V18.443C38.143 18.443 38.143 18.443 38.143 18.4245C38.143 18.4245 38.1245 18.406 38.106 18.406C38.106 18.406 38.0875 18.406 38.0505 18.4245C38.032 18.4245 38.0136 18.4245 37.9951 18.4245C37.9581 18.4245 37.9211 18.4245 37.8656 18.4245C37.8101 18.4245 37.7546 18.4245 37.7361 18.4245C37.6806 18.4245 37.6251 18.4245 37.6066 18.406C37.5696 18.3875 37.5512 18.3505 37.5512 18.3135C37.5512 18.295 37.5512 18.2765 37.5696 18.2395C37.5881 18.2025 37.6251 18.147 37.6806 18.0916L37.7731 18.1655C37.7361 18.2025 37.6991 18.2395 37.6991 18.258C37.6991 18.2765 37.6991 18.295 37.7361 18.295C37.7546 18.295 37.7731 18.295 37.7916 18.295C37.8101 18.295 37.8286 18.295 37.8471 18.295C37.8841 18.295 37.9396 18.295 37.9951 18.2765C38.069 18.2765 38.106 18.258 38.143 18.258C38.1985 18.258 38.217 18.258 38.2355 18.2765C38.2725 18.295 38.2725 18.3135 38.2725 18.3505C38.2725 18.369 38.2725 18.3875 38.2725 18.4245H38.365L38.328 18.554H37.8101V18.5724Z" fill="#C4161C"/>
<path d="M37.7755 19.6637L37.8124 19.5527C37.794 19.5157 37.7755 19.4972 37.7755 19.4972C37.757 19.4788 37.7385 19.4787 37.7015 19.4787C37.683 19.4787 37.6275 19.4788 37.572 19.4972C37.5165 19.5157 37.4795 19.5157 37.4425 19.5157C37.387 19.5157 37.35 19.4972 37.3131 19.4603C37.2761 19.4233 37.2576 19.3863 37.2576 19.3308C37.2576 19.3123 37.2576 19.2938 37.2576 19.2753C37.2576 19.2568 37.2946 19.1828 37.35 19.0903L37.461 19.1273C37.424 19.1828 37.4055 19.2013 37.4055 19.2013C37.387 19.2383 37.3685 19.2568 37.3685 19.2938C37.3685 19.3493 37.387 19.3863 37.4425 19.3863C37.4795 19.3863 37.5165 19.3863 37.572 19.3678C37.6275 19.3493 37.683 19.3493 37.72 19.3493C37.757 19.3493 37.794 19.3678 37.8124 19.3863L37.8679 19.1458H37.9974L37.8679 19.6452H37.7755V19.6637Z" fill="#C4161C"/>
<path d="M38.3861 18.4799L38.4416 18.3135H38.5711L38.5341 18.4429H38.6451L38.6081 18.5724H38.4971L38.2567 19.4417H38.1272L38.3307 18.6834C38.3307 18.6834 38.3307 18.6834 38.3307 18.6649C38.3307 18.6464 38.3307 18.6279 38.3122 18.5909C38.3122 18.5724 38.2937 18.5724 38.2937 18.5724H38.2382L38.2752 18.4429H38.3491C38.3491 18.4614 38.3676 18.4614 38.3861 18.4799Z" fill="#C4161C"/>
<path d="M39.108 18.5724L38.9785 18.6094C38.923 18.6279 38.886 18.6464 38.849 18.6649C38.7196 18.7389 38.6271 18.8683 38.5716 19.0533C38.5716 19.0718 38.5531 19.1088 38.5531 19.1273C38.5531 19.1643 38.5531 19.2013 38.5716 19.2383C38.5901 19.2753 38.6271 19.3122 38.6641 19.3122C38.7011 19.3122 38.7381 19.2937 38.7936 19.2383C38.8121 19.2568 38.8491 19.2938 38.8675 19.3122C38.7936 19.4047 38.7196 19.4417 38.6456 19.4417C38.4976 19.4417 38.4421 19.3492 38.4421 19.1643C38.4421 18.9978 38.4976 18.8683 38.5901 18.7389C38.6456 18.6649 38.7011 18.6094 38.7751 18.5539H38.4976L38.5346 18.4244H39.1265L39.108 18.5724Z" fill="#C4161C"/>
<path d="M40.0875 18.5725H39.0332L39.0702 18.443H40.1245L40.0875 18.5725ZM39.4401 19.3123C39.1997 19.3123 39.0887 19.0719 39.0887 18.591L39.2182 18.6465C39.2182 18.7759 39.2367 18.8869 39.2737 18.9794C39.3291 19.1089 39.4031 19.1643 39.5141 19.1643C39.5696 19.1643 39.6251 19.1458 39.6621 19.0904C39.6991 19.0534 39.7361 18.9979 39.7545 18.9424C39.773 18.9054 39.773 18.8684 39.7545 18.8314C39.6621 18.9239 39.5696 18.9794 39.4771 18.9794C39.4216 18.9794 39.3846 18.9609 39.3476 18.9424C39.3106 18.9054 39.2921 18.8684 39.2921 18.8129C39.2921 18.7574 39.3106 18.7019 39.3476 18.6649C39.3846 18.6095 39.4401 18.591 39.4956 18.591C39.5326 18.591 39.5696 18.6095 39.6251 18.6465L39.5511 18.7759C39.5141 18.7389 39.4956 18.7204 39.4771 18.7204C39.4586 18.7204 39.4401 18.7389 39.4401 18.7759C39.4401 18.7944 39.4401 18.7944 39.4401 18.7944C39.4401 18.8314 39.4771 18.8499 39.5326 18.8499C39.5881 18.8499 39.6251 18.8314 39.6806 18.7759C39.6991 18.7574 39.7361 18.7019 39.7915 18.6465C39.884 18.7204 39.921 18.7944 39.921 18.8869C39.921 18.9239 39.921 18.9424 39.9025 18.9794C39.884 19.0904 39.8285 19.1643 39.7361 19.2198C39.6436 19.2938 39.5326 19.3123 39.4401 19.3123Z" fill="#C4161C"/>
<path d="M40.8449 18.5725L40.6044 19.4418H40.475L40.6044 18.9424V18.9239C40.6044 18.9054 40.6045 18.8684 40.586 18.8314C40.5675 18.7944 40.549 18.7759 40.5305 18.7759C40.4935 18.7759 40.475 18.8129 40.4565 18.9054L40.3455 18.9239C40.3455 18.9054 40.3455 18.8869 40.3455 18.8684C40.3455 18.7944 40.327 18.7759 40.2715 18.7759C40.2345 18.7759 40.1975 18.7944 40.1605 18.8314C40.1236 18.8684 40.1051 18.9239 40.1051 18.9609C40.1051 18.9979 40.1236 19.0164 40.1605 19.0349C40.1975 19.0534 40.216 19.0534 40.253 19.0534L40.179 19.1828C40.1236 19.1828 40.0681 19.1643 40.0311 19.1273C39.9941 19.0904 39.9756 19.0534 39.9756 18.9979C39.9756 18.9794 39.9756 18.9609 39.9756 18.9424C39.9941 18.8684 40.0311 18.7944 40.0866 18.7389C40.142 18.6834 40.216 18.6465 40.29 18.6465C40.3455 18.6465 40.3825 18.6649 40.438 18.7204C40.475 18.6834 40.512 18.6649 40.549 18.6649C40.6044 18.6649 40.6414 18.6834 40.6599 18.7204L40.6969 18.5725H39.9756L40.0126 18.443H40.9744L40.9374 18.5725H40.8449V18.5725Z" fill="#C4161C"/>
<path d="M41.8077 19.4418C41.8262 19.4048 41.8262 19.3678 41.8262 19.3308C41.8262 19.2753 41.8077 19.2383 41.7522 19.2198C41.7152 19.2013 41.6782 19.2013 41.6042 19.2013C41.4933 19.2013 41.4378 19.2013 41.4563 19.2013C41.2898 19.2013 41.2158 19.1458 41.2158 19.0164C41.2158 18.9054 41.2528 18.7944 41.3453 18.665L41.4378 18.7204C41.3823 18.8314 41.3453 18.9239 41.3453 18.9794C41.3453 19.0349 41.4008 19.0719 41.4933 19.0719C41.5118 19.0719 41.5487 19.0719 41.5857 19.0719C41.6227 19.0719 41.6597 19.0719 41.6782 19.0719H41.7892C41.8262 19.0719 41.8632 19.0904 41.9002 19.1089L42.0481 18.5725C42.0481 18.554 42.0481 18.554 42.0481 18.554C42.0481 18.554 42.0296 18.5355 42.0111 18.5355C41.9742 18.5355 41.9187 18.5725 41.8447 18.628C41.7707 18.6834 41.7152 18.7389 41.7152 18.7759V18.7944C41.7152 18.7944 41.7337 18.7944 41.7522 18.7759L41.7892 18.8684C41.7522 18.9054 41.6967 18.9054 41.6782 18.9054C41.6042 18.9054 41.5857 18.8684 41.5857 18.8129C41.5857 18.7389 41.6412 18.6465 41.7707 18.554C41.8817 18.4615 41.9927 18.406 42.0666 18.406C42.1036 18.406 42.1406 18.4245 42.1591 18.443C42.1776 18.4615 42.1961 18.4985 42.1961 18.5355C42.1961 18.554 42.1961 18.554 42.1961 18.5725L41.9742 19.4418H41.8077V19.4418Z" fill="#C4161C"/>
<path d="M42.7684 18.5724L42.6389 18.6094C42.5834 18.6279 42.5464 18.6464 42.5095 18.6649C42.38 18.7389 42.2875 18.8683 42.232 19.0533C42.232 19.0718 42.2135 19.1088 42.2135 19.1273C42.2135 19.1643 42.2135 19.2013 42.232 19.2383C42.2505 19.2753 42.2875 19.3122 42.3245 19.3122C42.3615 19.3122 42.3985 19.2937 42.454 19.2383C42.4725 19.2568 42.5095 19.2938 42.5279 19.3122C42.454 19.4047 42.38 19.4417 42.306 19.4417C42.158 19.4417 42.1025 19.3492 42.1025 19.1643C42.1025 18.9978 42.158 18.8683 42.2505 18.7389C42.306 18.6649 42.3615 18.6094 42.4355 18.5539H42.158L42.195 18.4244H42.7869L42.7684 18.5724Z" fill="#C4161C"/>
<path d="M43.805 18.5724H43.2686C43.2871 18.6464 43.3611 18.6834 43.4721 18.6834C43.4536 18.6834 43.5091 18.6834 43.6201 18.6834L43.657 18.7574C43.5276 18.9423 43.4721 19.0903 43.4536 19.2198C43.4536 19.2568 43.4536 19.3122 43.4536 19.4232L43.3241 19.4602C43.3241 19.3307 43.3241 19.2013 43.3611 19.0903C43.3796 18.9978 43.4351 18.9053 43.4906 18.8129H43.4721C43.3796 18.8129 43.3056 18.7944 43.2686 18.7759C43.2131 18.7574 43.1762 18.7019 43.1577 18.6279C43.1207 18.6464 43.1022 18.6649 43.0652 18.7019C43.0282 18.7389 43.0282 18.7759 43.0282 18.8129C43.0282 18.8498 43.0467 18.8683 43.0837 18.8683C43.1207 18.8683 43.1577 18.8498 43.1946 18.8129L43.2871 18.7944C43.3426 18.8498 43.3611 18.9053 43.3611 18.9423C43.3611 18.9608 43.3611 18.9793 43.3426 18.9978C43.3241 19.0718 43.2871 19.1273 43.2131 19.1828C43.1392 19.2383 43.0837 19.2568 43.0097 19.2568C42.8247 19.2568 42.7322 19.1273 42.7322 18.8868C42.7322 18.7944 42.7507 18.6834 42.7692 18.5724H42.8987C42.8617 18.6834 42.8617 18.7759 42.8617 18.8683C42.8617 19.0348 42.9172 19.1273 43.0467 19.1273C43.0837 19.1273 43.1207 19.1088 43.1577 19.0903C43.1946 19.0718 43.2131 19.0348 43.2316 18.9978C43.2316 18.9793 43.2316 18.9423 43.2131 18.9238C43.1577 18.9608 43.1022 18.9793 43.0467 18.9793C43.0097 18.9793 42.9727 18.9608 42.9357 18.9423C42.9172 18.9053 42.8987 18.8683 42.8987 18.8313C42.8987 18.8129 42.8987 18.7944 42.8987 18.7759C42.9172 18.6834 42.9727 18.6094 43.0467 18.5539H42.6768L42.7138 18.4244H43.842L43.805 18.5724Z" fill="#C4161C"/>
<path d="M44.1744 19.1273H44.0449L44.0819 18.9608C44.0634 18.8498 44.0079 18.7759 43.9524 18.7759C43.9154 18.7944 43.8784 18.8129 43.8784 18.8313C43.8784 18.8498 43.8784 18.8683 43.9154 18.8868L43.8045 18.9608C43.7675 18.9238 43.749 18.8868 43.749 18.8498C43.749 18.8498 43.749 18.8313 43.749 18.8129C43.7675 18.7574 43.786 18.7204 43.8414 18.6834C43.8784 18.6464 43.9339 18.6279 43.9894 18.6279C44.0449 18.6279 44.1004 18.6649 44.1374 18.7204L44.1929 18.5539H43.7305L43.7675 18.4244H44.3593L44.1744 19.1273Z" fill="#C4161C"/>
<path d="M44.3582 18.5724L44.2102 19.1273C44.2102 19.1458 44.1917 19.1643 44.1917 19.1828C44.1917 19.2013 44.1917 19.2013 44.2102 19.2013C44.2842 19.2013 44.3397 19.1643 44.4137 19.0903C44.4877 19.0164 44.5247 18.9424 44.5432 18.8684C44.5432 18.8499 44.5432 18.8314 44.5247 18.8314C44.5062 18.8314 44.4877 18.8499 44.4507 18.8684L44.3952 18.7759C44.4692 18.7389 44.5247 18.7019 44.5616 18.7019C44.6356 18.7019 44.6726 18.7389 44.6726 18.8129C44.6726 18.8314 44.6726 18.8499 44.6726 18.8684C44.6541 18.9609 44.5801 19.0718 44.4877 19.1643C44.3767 19.2753 44.2842 19.3308 44.1732 19.3308C44.0992 19.3308 44.0623 19.2938 44.0623 19.2013C44.0623 19.1828 44.0623 19.1643 44.0808 19.1458L44.2287 18.5909H44.0808L44.1177 18.4615H44.6911V18.443C44.6911 18.443 44.6911 18.443 44.6911 18.4245C44.6911 18.4245 44.6726 18.406 44.6541 18.406C44.6541 18.406 44.6356 18.406 44.5986 18.4245C44.5801 18.4245 44.5616 18.4245 44.5432 18.4245C44.5062 18.4245 44.4692 18.4245 44.4137 18.4245C44.3582 18.4245 44.3027 18.4245 44.2842 18.4245C44.2287 18.4245 44.1732 18.4245 44.1547 18.406C44.1177 18.3875 44.0993 18.3505 44.0993 18.3135C44.0993 18.295 44.0992 18.2765 44.1177 18.2395C44.1362 18.2025 44.1732 18.147 44.2287 18.0916L44.3212 18.1655C44.2842 18.2025 44.2472 18.2395 44.2472 18.258C44.2472 18.2765 44.2472 18.295 44.2842 18.295C44.3027 18.295 44.3212 18.295 44.3397 18.295C44.3582 18.295 44.3767 18.295 44.3952 18.295C44.4322 18.295 44.4877 18.295 44.5432 18.2765C44.6171 18.2765 44.6541 18.258 44.6911 18.258C44.7466 18.258 44.7651 18.258 44.7836 18.2765C44.8206 18.295 44.8206 18.3135 44.8206 18.3505C44.8206 18.369 44.8206 18.3875 44.8206 18.4245H44.9131L44.8761 18.554H44.3582V18.5724Z" fill="#C4161C"/>
<path d="M45.6527 18.5724L45.4123 19.4417H45.2828L45.3938 19.0163C45.3753 18.9053 45.3383 18.8498 45.3013 18.8498C45.2828 18.8498 45.2458 18.8683 45.2088 18.9238C45.1348 18.9978 45.0978 19.0533 45.0793 19.0533C45.0238 19.1088 44.9868 19.1273 44.9314 19.1273C44.8759 19.1273 44.8204 19.0533 44.7649 18.9238L44.8944 18.8683C44.9129 18.9608 44.9314 19.0163 44.9499 19.0163C44.9683 19.0163 44.9868 18.9978 45.0238 18.9608C45.0608 18.9238 45.0793 18.9053 45.0793 18.8868C45.0793 18.8683 45.0978 18.8498 45.0978 18.8313C45.0978 18.7759 45.0608 18.7389 45.0053 18.7019C44.9683 18.6834 44.9314 18.6649 44.8574 18.6464L44.8759 18.5909H44.7649L44.8019 18.4614H45.7822L45.7452 18.5909H45.6527V18.5724ZM45.5232 18.5724H45.1533C45.2088 18.6094 45.2273 18.6649 45.2458 18.7389C45.2828 18.7204 45.3198 18.7019 45.3568 18.7019C45.3938 18.7019 45.4307 18.7204 45.4677 18.7759L45.5232 18.5724Z" fill="#C4161C"/>
<path d="M47.0789 18.5725L46.8385 19.4418H46.709L46.7645 19.2568C46.7645 19.2198 46.7275 19.1643 46.6905 19.0719C46.6165 19.1458 46.5241 19.1828 46.4501 19.1828C46.2281 19.1828 46.1171 18.9979 46.1171 18.628L46.2466 18.591C46.2466 18.7019 46.2466 18.8129 46.2836 18.8869C46.3206 18.9979 46.3946 19.0534 46.4871 19.0534C46.5425 19.0534 46.5795 19.0349 46.6165 18.9794C46.6535 18.9424 46.672 18.8869 46.672 18.8314C46.672 18.7944 46.6535 18.7574 46.635 18.7389C46.6165 18.7204 46.5795 18.7019 46.5425 18.7019C46.5056 18.7019 46.4686 18.7389 46.4316 18.8129L46.3206 18.7944C46.3761 18.6649 46.4686 18.591 46.5795 18.591C46.635 18.591 46.6905 18.6095 46.7275 18.6649C46.7645 18.7019 46.783 18.7574 46.783 18.8314C46.783 18.8684 46.783 18.9054 46.7645 18.9424L46.8015 19.0349L46.931 18.5725H46.0247L46.0616 18.443H47.2084L47.1714 18.5725H47.0789Z" fill="#C4161C"/>
<path d="M47.9097 18.5725H47.7802L47.5397 19.4418H47.4103L47.4473 19.2753C47.4288 19.2013 47.3918 19.1458 47.3363 19.0719C47.2623 18.9979 47.2068 18.9794 47.1328 18.9794H47.1143L47.0773 18.8684C47.2623 18.7574 47.4473 18.6649 47.6137 18.6095L47.6322 18.5725H47.0588L47.0958 18.443H47.9097V18.5725ZM47.6137 18.7389C47.5027 18.7759 47.4103 18.8129 47.3178 18.8684C47.4103 18.9054 47.4842 18.9609 47.5397 19.0534L47.6137 18.7389Z" fill="#C4161C"/>
<path d="M48.9823 18.5725H48.8528L48.6124 19.4418H48.5199L48.5569 19.2753C48.5384 19.2013 48.5014 19.1458 48.4459 19.0719C48.3719 18.9979 48.3164 18.9794 48.2424 18.9794H48.2239L48.187 18.8684C48.3719 18.7574 48.5569 18.6649 48.7233 18.6095L48.7418 18.5725H48.1685L48.2054 18.443H49.0193L48.9823 18.5725ZM48.6863 18.7389C48.5754 18.7759 48.4829 18.8129 48.3904 18.8684C48.4829 18.9054 48.5569 18.9609 48.6124 19.0534L48.6863 18.7389Z" fill="#C4161C"/>
<path d="M49.0402 18.4799L49.0957 18.3135H49.2252L49.1882 18.4429H49.2991L49.2621 18.5724H49.1512L48.9107 19.4417H48.7812L48.9847 18.6834C48.9847 18.6834 48.9847 18.6834 48.9847 18.6649C48.9847 18.6464 48.9847 18.6279 48.9662 18.5909C48.9662 18.5724 48.9477 18.5724 48.9477 18.5724H48.8922L48.9292 18.4429H49.0032C49.0032 18.4614 49.0217 18.4614 49.0402 18.4799Z" fill="#C4161C"/>
<path d="M49.4261 19.3677L49.1301 18.9608L49.2596 18.8683L49.5555 19.2753L49.4261 19.3677ZM49.4076 18.8498C49.3521 18.8498 49.3151 18.8314 49.2781 18.7944C49.2411 18.7574 49.2226 18.7204 49.2226 18.6649C49.2226 18.6464 49.2226 18.6279 49.2226 18.6094C49.2411 18.5539 49.2596 18.5169 49.3151 18.4799C49.3521 18.4429 49.4076 18.4244 49.4631 18.4244C49.5185 18.4244 49.5555 18.4429 49.5925 18.4799C49.6295 18.5169 49.648 18.5539 49.648 18.6094C49.648 18.6279 49.648 18.6464 49.648 18.6649C49.6295 18.7204 49.611 18.7574 49.5555 18.7944C49.5185 18.8314 49.4631 18.8498 49.4076 18.8498ZM49.4631 18.5724C49.4076 18.5724 49.3891 18.5909 49.3891 18.6464C49.3891 18.6649 49.3891 18.6834 49.4076 18.7019C49.4261 18.7204 49.4446 18.7204 49.4631 18.7204C49.5185 18.7204 49.537 18.7019 49.537 18.6464C49.5185 18.6094 49.5 18.5724 49.4631 18.5724Z" fill="#C4161C"/>
<path d="M50.5373 18.5725L50.2968 19.4418H50.1674L50.2968 18.9424V18.9239C50.2968 18.9054 50.2968 18.8684 50.2783 18.8314C50.2598 18.7944 50.2413 18.7759 50.2228 18.7759C50.1859 18.7759 50.1674 18.8129 50.1489 18.9054L50.0379 18.9239C50.0379 18.9054 50.0379 18.8869 50.0379 18.8684C50.0379 18.7944 50.0194 18.7759 49.9639 18.7759C49.9269 18.7759 49.8899 18.7944 49.8529 18.8314C49.8159 18.8684 49.7974 18.9239 49.7974 18.9609C49.7974 18.9979 49.8159 19.0164 49.8529 19.0349C49.8899 19.0534 49.9084 19.0534 49.9454 19.0534L49.8714 19.1828C49.8159 19.1828 49.7604 19.1643 49.7235 19.1273C49.6865 19.0904 49.668 19.0534 49.668 18.9979C49.668 18.9794 49.668 18.9609 49.668 18.9424C49.6865 18.8684 49.7235 18.7944 49.7789 18.7389C49.8344 18.6834 49.9084 18.6465 49.9824 18.6465C50.0379 18.6465 50.0749 18.6649 50.1304 18.7204C50.1674 18.6834 50.2044 18.6649 50.2413 18.6649C50.2968 18.6649 50.3338 18.6834 50.3523 18.7204L50.3893 18.5725H49.668L49.705 18.443H50.6668L50.6298 18.5725H50.5373V18.5725Z" fill="#C4161C"/>
<path d="M50.7045 18.4799L50.76 18.3135H50.8895L50.8525 18.4429H50.9634L50.9265 18.5724H50.8155L50.575 19.4417H50.4456L50.649 18.6834C50.649 18.6834 50.649 18.6834 50.649 18.6649C50.649 18.6464 50.649 18.6279 50.6305 18.5909C50.6305 18.5724 50.612 18.5724 50.612 18.5724H50.5565L50.5935 18.4429H50.6675C50.6675 18.4614 50.686 18.4614 50.7045 18.4799Z" fill="#C4161C"/>
<path d="M51.4071 18.5724L51.2776 18.6094C51.2221 18.6279 51.1851 18.6464 51.1481 18.6649C51.0187 18.7389 50.9262 18.8683 50.8707 19.0533C50.8707 19.0718 50.8522 19.1088 50.8522 19.1273C50.8522 19.1643 50.8522 19.2013 50.8707 19.2383C50.8892 19.2753 50.9262 19.3122 50.9632 19.3122C51.0002 19.3122 51.0371 19.2937 51.0926 19.2383C51.1111 19.2568 51.1481 19.2938 51.1666 19.3122C51.0926 19.4047 51.0187 19.4417 50.9447 19.4417C50.7967 19.4417 50.7412 19.3492 50.7412 19.1643C50.7412 18.9978 50.7967 18.8683 50.8892 18.7389C50.9447 18.6649 51.0002 18.6094 51.0741 18.5539H50.7967L50.8337 18.4244H51.4256L51.4071 18.5724Z" fill="#C4161C"/>
<path d="M51.6097 18.5724L51.5172 18.8868C51.6652 18.7574 51.8317 18.6834 51.9981 18.6649L52.0721 18.7389C52.0166 18.8129 51.9796 18.8868 51.9426 18.9978C51.8872 19.1828 51.8687 19.3122 51.8687 19.4232L51.7392 19.4417C51.7392 19.3307 51.7577 19.1643 51.8132 18.9608C51.8132 18.9238 51.8317 18.8868 51.8687 18.8129C51.7392 18.8498 51.5727 18.9608 51.4248 19.1458L51.3508 19.0348L51.4802 18.5539H51.3323L51.3693 18.4244H52.2386L52.2016 18.5539H51.6097V18.5724Z" fill="#C4161C"/>
<path d="M52.9582 18.5724L52.7178 19.4417H52.5883L52.7548 18.8313C52.7548 18.8128 52.7548 18.8128 52.7548 18.7943C52.7548 18.7573 52.7363 18.7203 52.7178 18.6649C52.6993 18.6094 52.6623 18.5909 52.6253 18.5909C52.5883 18.5909 52.5513 18.6464 52.5143 18.7388V18.7573C52.5143 18.7943 52.5328 18.8128 52.5883 18.8128C52.6068 18.8128 52.6253 18.7943 52.6623 18.7758L52.6993 18.8868C52.6438 18.9238 52.5883 18.9423 52.5513 18.9423C52.4958 18.9423 52.4404 18.9053 52.4219 18.8498C52.3664 18.9238 52.2924 18.9423 52.2369 18.9423C52.1999 18.9423 52.1444 18.9238 52.1259 18.8683L52.2184 18.7573C52.2369 18.7758 52.2554 18.7943 52.2554 18.7943H52.2739C52.3294 18.7758 52.3664 18.7203 52.3664 18.6464C52.3664 18.5724 52.3109 18.5169 52.1999 18.5169C52.1814 18.5169 52.1444 18.5169 52.1074 18.5169L52.1444 18.3874C52.1629 18.3874 52.1814 18.3874 52.1999 18.3874C52.2184 18.3874 52.2369 18.3874 52.2554 18.3874C52.3109 18.3874 52.3664 18.3874 52.4034 18.4059C52.4404 18.4244 52.4773 18.4614 52.4773 18.5169C52.5328 18.4429 52.6068 18.3874 52.6808 18.3874C52.7363 18.3874 52.7918 18.4244 52.8288 18.4984L52.9028 18.2209H53.0322L52.9952 18.3689H53.1432L53.1062 18.4984H52.9582V18.5724Z" fill="#C4161C"/>
</svg>
