<svg width="308" height="74" viewBox="0 0 308 74" fill="none" xmlns="http://www.w3.org/2000/svg">
<path fill-rule="evenodd" clip-rule="evenodd" d="M0.700195 0.800049H5.7852V73.7001H0.700195V0.800049ZM10.8702 0.800049H21.0402V73.7001H10.8702V0.800049ZM31.2102 0.800049H36.2952V73.7001H31.2102V0.800049ZM41.3802 0.800049H56.6352V73.7001H41.3802V0.800049ZM61.7202 0.800049H66.8052V73.7001H61.7202V0.800049ZM76.9752 0.800049H82.0602V73.7001H76.9752V0.800049ZM87.1452 0.800049H92.2302V73.7001H87.1452V0.800049ZM97.3152 0.800049H102.4V73.7001H97.3152V0.800049Z" fill="#434244"/>
<path fill-rule="evenodd" clip-rule="evenodd" d="M107.8 0.800049H112.885V73.7001H107.8V0.800049ZM117.97 0.800049H128.14V73.7001H117.97V0.800049ZM138.31 0.800049H143.395V73.7001H138.31V0.800049ZM148.48 0.800049H163.735V73.7001H148.48V0.800049ZM168.82 0.800049H173.905V73.7001H168.82V0.800049ZM184.075 0.800049H189.16V73.7001H184.075V0.800049ZM194.245 0.800049H199.33V73.7001H194.245V0.800049ZM204.415 0.800049H209.5V73.7001H204.415V0.800049Z" fill="#434244"/>
<path fill-rule="evenodd" clip-rule="evenodd" d="M205.9 0.800049H210.985V73.7001H205.9V0.800049ZM216.07 0.800049H226.24V73.7001H216.07V0.800049ZM236.41 0.800049H241.495V73.7001H236.41V0.800049ZM246.58 0.800049H261.835V73.7001H246.58V0.800049ZM266.92 0.800049H272.005V73.7001H266.92V0.800049ZM282.175 0.800049H287.26V73.7001H282.175V0.800049ZM292.345 0.800049H297.43V73.7001H292.345V0.800049ZM302.515 0.800049H307.6V73.7001H302.515V0.800049Z" fill="#434244"/>
</svg>
