<svg width="22" height="22" viewBox="0 0 22 22" fill="none" stroke="#5F6368"

 

 xmlns="http://www.w3.org/2000/svg" >
<g id="galaData0">
<path id="galaData1" d="M21.241 4.61446C21.241 5.08911 20.9792 5.55912 20.4706 5.99765C19.962 6.43618 19.2165 6.83463 18.2768 7.17027C17.337 7.5059 16.2213 7.77214 14.9934 7.95378C13.7656 8.13542 12.4495 8.22892 11.1205 8.22892C8.43637 8.22892 5.86218 7.84811 3.96422 7.17027C2.06626 6.49242 1 5.57307 1 4.61446C1 4.1398 1.26177 3.66979 1.77038 3.23126C2.27898 2.79274 3.02445 2.39428 3.96422 2.05865C4.904 1.72302 6.01967 1.45678 7.24755 1.27513C8.47542 1.09349 9.79145 1 11.1205 1C12.4495 1 13.7656 1.09349 14.9934 1.27513C16.2213 1.45678 17.337 1.72302 18.2768 2.05865C19.2165 2.39428 19.962 2.79274 20.4706 3.23126C20.9792 3.66979 21.241 4.1398 21.241 4.61446Z"  strokeWidth="1.32" strokeLinecap="round" strokeLinejoin="round"/>
<path id="galaData2" d="M21.241 17.6265C21.241 18.2609 20.7734 18.8842 19.8851 19.4337C18.9968 19.9832 17.7192 20.4394 16.1807 20.7567C14.6422 21.0739 12.897 21.2409 11.1205 21.2409C9.34398 21.2409 7.59876 21.0739 6.06025 20.7567C4.52174 20.4394 3.24415 19.9832 2.35589 19.4337C1.46763 18.8842 1 18.2609 1 17.6265"  strokeWidth="1.32" strokeLinecap="round" strokeLinejoin="round"/>
<path id="galaData3" d="M21.241 13.2893C21.241 13.9238 20.7734 14.5471 19.8851 15.0965C18.9968 15.646 17.7192 16.1023 16.1807 16.4195C14.6422 16.7368 12.897 16.9038 11.1205 16.9038C9.34398 16.9038 7.59876 16.7368 6.06025 16.4195C4.52174 16.1023 3.24415 15.646 2.35589 15.0965C1.46763 14.5471 1 13.9238 1 13.2893"  strokeWidth="1.32" strokeLinecap="round" strokeLinejoin="round"/>
<path id="galaData4" d="M21.241 8.95166C21.241 9.58613 20.7734 10.2094 19.8851 10.7589C18.9968 11.3084 17.7192 11.7646 16.1807 12.0819C14.6422 12.3991 12.897 12.5661 11.1205 12.5661C9.34398 12.5661 7.59876 12.3991 6.06025 12.0819C4.52174 11.7646 3.24415 11.3084 2.35589 10.7589C1.46763 10.2094 1 9.58613 1 8.95166"  strokeWidth="1.32" strokeLinecap="round" strokeLinejoin="round"/>
<path id="galaData5" d="M1 4.6145V17.6265"  strokeWidth="1.32" strokeLinecap="round" strokeLinejoin="round"/>
<path id="galaData6" d="M21.2422 4.6145V17.6266"  strokeWidth="1.32" strokeLinecap="round" strokeLinejoin="round"/>
</g>
</svg>
