<svg
          xmlns="http://www.w3.org/2000/svg"
          width="17"
          height="14"
          viewBox="0 0 17 14"
         fill="#5F6368"
        >
          <path
            d="M16.9915 12.7484L15.9094 4.3484C15.8743 4.07471 15.7311 3.82257 15.5071 3.64021C15.2831 3.45786 14.9941 3.35809 14.6954 3.36H12.1435C12.1435 2.46887 11.7598 1.61424 11.0768 0.984121C10.3937 0.353999 9.46731 0 8.50134 0C7.53537 0 6.60896 0.353999 5.92591 0.984121C5.24287 1.61424 4.85914 2.46887 4.85914 3.36H2.30429C2.00555 3.35809 1.71654 3.45786 1.49255 3.64021C1.26856 3.82257 1.12531 4.07471 1.09022 4.3484L0.00818072 12.7484C-0.0116483 12.9052 0.00466807 13.064 0.0560598 13.2146C0.107452 13.3652 0.192758 13.504 0.306386 13.622C0.420835 13.7405 0.561082 13.8354 0.717977 13.9006C0.874871 13.9657 1.04489 13.9996 1.21694 14H15.7797C15.9527 14.0004 16.1239 13.9669 16.2819 13.9017C16.4399 13.8365 16.5812 13.7412 16.6963 13.622C16.8094 13.5038 16.8941 13.3648 16.945 13.2143C16.9959 13.0637 17.0117 12.905 16.9915 12.7484ZM8.50134 1.12C9.14532 1.12 9.76293 1.356 10.2183 1.77608C10.6737 2.19616 10.9295 2.76591 10.9295 3.36H6.0732C6.0732 2.76591 6.32903 2.19616 6.78439 1.77608C7.23975 1.356 7.85736 1.12 8.50134 1.12Z"
        
          />
        </svg>