<svg focusable="false" color="#202124" fill="#202124" aria-hidden="true" role="presentation" viewBox="0 0 100 100" preserveAspectRatio="xMidYMid meet" width="24px" height="24px" className="sc-bdVaJa ihhndC sc-gFXMyG gDKXQJ"><path d="M40.6 73.9c1.2 1 2.8.8 3.8-.3 1-1.2.8-2.8-.3-3.8l-.1-.1-7.7-6.1h35.6c1.5 0 2.7-1.2 2.7-2.7s-1.2-2.7-2.7-2.7H36.1l7.8-6.3c1.2-1 1.4-2.6.4-3.8s-2.6-1.4-3.8-.4L26.8 58.8c-.6.5-1 1.3-1 2.2 0 .8.4 1.6 1 2.1l13.8 10.8z"></path><path d="M90.4 10.6H75V6.8c-.2-1.1-1.3-1.8-2.4-1.6-.8.2-1.4.8-1.6 1.6v3.8H28.8V6.8c-.2-1.1-1.3-1.8-2.4-1.6-.8.2-1.4.8-1.6 1.6v3.8H9.6C5.4 10.6 2 14 2 18.3v69.2c0 4.2 3.4 7.6 7.6 7.6h80.7c4.2 0 7.6-3.4 7.6-7.6V18.3c.1-4.3-3.3-7.7-7.5-7.7zm3.8 76.9c0 2.2-1.8 3.8-3.8 3.8H9.6c-2.2 0-3.8-1.8-3.8-3.8V33.6h88.4v53.9zm.1-57.7H5.8V18.3c0-2.2 1.8-3.8 3.8-3.8H25v4.4c-1.9 1.1-2.5 3.4-1.4 5.3s3.4 2.5 5.3 1.4 2.5-3.4 1.4-5.3c-.3-.6-.8-1.1-1.4-1.4v-4.4h42.3v4.4c-1.9 1.1-2.5 3.4-1.4 5.3s3.4 2.5 5.3 1.4 2.5-3.4 1.4-5.3c-.3-.6-.8-1.1-1.4-1.4v-4.4h15.4c2.2 0 3.8 1.8 3.8 3.8v11.5z"></path></svg>