<svg width="25" height="25" viewBox="0 0 24 24" fill="none" xmlns="http://www.w3.org/2000/svg"><path d="M18.6316 8.40423L19.5895 7.45788C19.7877 7.25988 19.8991 6.99134 19.8991 6.71132C19.8991 6.43131 19.7877 6.16276 19.5895 5.96476C19.3913 5.76676 19.1225 5.65552 18.8422 5.65552C18.5618 5.65552 18.293 5.76676 18.0948 5.96476L17.1474 6.92162C15.6722 5.78164 13.8599 5.16313 11.9948 5.16313C10.1297 5.16313 8.31737 5.78164 6.84216 6.92162L5.88427 5.95424C5.68466 5.75624 5.41448 5.64556 5.13318 5.64655C4.85188 5.64753 4.58248 5.7601 4.38427 5.9595C4.18606 6.1589 4.07525 6.42878 4.07624 6.70978C4.07723 6.99078 4.18992 7.25988 4.38953 7.45788L5.35795 8.41475C4.20323 9.88426 3.57668 11.6989 3.57901 13.5671C3.57557 14.9082 3.89318 16.2307 4.50535 17.4243C5.11752 18.6178 6.0065 19.6479 7.09816 20.4286C8.18981 21.2092 9.4525 21.7178 10.7809 21.912C12.1093 22.1061 13.465 21.9802 14.7347 21.5447C16.0045 21.1092 17.1517 20.3767 18.0805 19.4083C19.0093 18.44 19.6929 17.2638 20.0743 15.9779C20.4556 14.6921 20.5236 13.3337 20.2727 12.0163C20.0217 10.6988 19.4591 9.46036 18.6316 8.40423ZM12.0001 19.8761C10.7509 19.8761 9.52982 19.5061 8.49119 18.8128C7.45257 18.1196 6.64306 17.1342 6.16503 15.9814C5.687 14.8286 5.56193 13.5601 5.80563 12.3363C6.04932 11.1124 6.65084 9.98829 7.53412 9.10596C8.4174 8.22363 9.54277 7.62276 10.7679 7.37933C11.9931 7.13589 13.2629 7.26083 14.417 7.73834C15.5711 8.21586 16.5575 9.02449 17.2514 10.062C17.9454 11.0995 18.3159 12.3193 18.3159 13.5671C18.3159 15.2403 17.6504 16.8451 16.466 18.0282C15.2816 19.2114 13.6751 19.8761 12.0001 19.8761ZM9.8948 4.10361H14.1053C14.3845 4.10361 14.6522 3.99282 14.8496 3.79563C15.0471 3.59844 15.158 3.33098 15.158 3.05211C15.158 2.77323 15.0471 2.50578 14.8496 2.30859C14.6522 2.11139 14.3845 2.00061 14.1053 2.00061H9.8948C9.61562 2.00061 9.34788 2.11139 9.15047 2.30859C8.95307 2.50578 8.84216 2.77323 8.84216 3.05211C8.84216 3.33098 8.95307 3.59844 9.15047 3.79563C9.34788 3.99282 9.61562 4.10361 9.8948 4.10361ZM13.0527 10.4126C13.0527 10.1337 12.9418 9.86627 12.7444 9.66907C12.547 9.47188 12.2792 9.3611 12.0001 9.3611C11.7209 9.3611 11.4531 9.47188 11.2557 9.66907C11.0583 9.86627 10.9474 10.1337 10.9474 10.4126V12.3999C10.7091 12.6129 10.5411 12.8931 10.4657 13.2035C10.3902 13.5139 10.4109 13.8399 10.5251 14.1383C10.6392 14.4367 10.8413 14.6935 11.1047 14.8746C11.368 15.0558 11.6803 15.1528 12.0001 15.1528C12.3198 15.1528 12.6321 15.0558 12.8955 14.8746C13.1588 14.6935 13.361 14.4367 13.4751 14.1383C13.5892 13.8399 13.6099 13.5139 13.5345 13.2035C13.459 12.8931 13.291 12.6129 13.0527 12.3999V10.4126Z" fill="white"></path></svg>