<svg xmlns="http://www.w3.org/2000/svg" width="35" height="35" viewBox="0 0 38 38" fill="none">
   <path d="M22.7269 11.5335L18.9975 15.268L15.263 11.5386C14.7678 11.0441 14.0963 10.7665 13.3965 10.767C12.6966 10.7675 12.0256 11.046 11.531 11.5412C11.0365 12.0364 10.7589 12.7078 10.7594 13.4077C10.7599 14.1076 11.0384 14.7786 11.5336 15.2732L15.3343 18.9363L11.5387 22.7371C11.0442 23.2323 10.7666 23.9037 10.7671 24.6036C10.7676 25.3035 11.0461 25.9745 11.5413 26.469C12.0365 26.9636 12.7079 27.2411 13.4078 27.2406C14.1077 27.2402 14.7787 26.9617 15.2733 26.4664L19.0026 22.5994L22.7372 26.4613C23.2324 26.9559 23.9038 27.2334 24.6037 27.2329C25.3035 27.2325 25.9746 26.954 26.4691 26.4587C26.9637 25.9635 27.2412 25.2921 27.2407 24.5922C27.2403 23.8924 26.9618 23.2213 26.4665 22.7268L22.6657 18.9312L26.4614 15.2629C26.956 14.7677 27.2335 14.0963 27.233 13.3964C27.2326 12.6965 26.9541 12.0255 26.4588 11.5309C25.9636 11.0364 25.2922 10.7588 24.5923 10.7593C23.8925 10.7598 23.2214 11.0383 22.7269 11.5335Z" fill=""/>
</svg>