<svg width="26" height="26" viewBox="0 0 26 26" fill="#5F6368" xmlns="http://www.w3.org/2000/svg">
<g id="Group 5624">
<path id="Vector" d="M23.8976 12.2567L13.2643 1.62338C13.1315 1.49134 12.9518 1.41724 12.7645 1.41724C12.5772 1.41724 12.3976 1.49134 12.2647 1.62338L1.6314 12.2567C1.51526 12.3923 1.45457 12.5668 1.46147 12.7452C1.46836 12.9236 1.54232 13.0928 1.66857 13.2191C1.79482 13.3453 1.96406 13.4193 2.14247 13.4262C2.32088 13.4331 2.49532 13.3724 2.63093 13.2562L12.761 3.12622L22.891 13.2633C23.0266 13.3795 23.201 13.4402 23.3795 13.4333C23.5579 13.4264 23.7271 13.3524 23.8534 13.2262C23.9796 13.0999 24.0536 12.9307 24.0605 12.7523C24.0673 12.5738 24.0067 12.3994 23.8905 12.2638L23.8976 12.2567Z"  />
<path id="Vector_2" d="M19.8495 22.6844H16.305V15.5955H9.21613V22.6844H5.67169V12.76L4.25391 14.1778V22.6844C4.25391 23.0604 4.40328 23.4211 4.66916 23.6869C4.93505 23.9528 5.29567 24.1022 5.67169 24.1022H10.6339V17.0133H14.8872V24.1022H19.8495C20.2255 24.1022 20.5861 23.9528 20.852 23.6869C21.1179 23.4211 21.2673 23.0604 21.2673 22.6844V14.0076L19.8495 12.5898V22.6844Z" />
</g>
</svg>
