<svg width="19" height="12" viewBox="0 0 19 12" fill="none" xmlns="http://www.w3.org/2000/svg">
<path d="M8.6108 7.23096L4.5518 0.866163L6.2897 0.399963L12.5456 6.17796L17.2814 4.90896C17.6273 4.81635 17.9958 4.86492 18.3058 5.044C18.6159 5.22308 18.8421 5.51799 18.9347 5.86386C19.0273 6.20973 18.9787 6.57823 18.7997 6.88828C18.6206 7.19833 18.3257 7.42455 17.9798 7.51716L4.505 11.1262L3.8066 8.51796L4.0235 8.45946L6.2438 10.66L3.8804 11.2936C3.6866 11.3455 3.48099 11.3312 3.29624 11.253C3.11149 11.1747 2.95819 11.0369 2.8607 10.8616L0.5 6.60816L1.8041 6.25896L4.0235 8.45946L8.6108 7.23006V7.23096Z" fill="#DC143C"/>
</svg>
