 <svg
              xmlns="http://www.w3.org/2000/svg"
              width="21"
              height="21"
              viewBox="0 0 21 21"
              fill="none"
            >
              <path
                d="M18.6645 16.7403C17.8691 15.9368 17.8025 14.7128 17.9596 13.5931C17.9852 13.4101 17.9991 13.2224 17.9991 13.03C17.9991 10.58 16.0591 8.62003 13.6341 8.62003C11.2091 8.62003 9.26906 10.58 9.26906 13.03C9.26906 15.48 11.2091 17.44 13.6341 17.44C13.8196 17.44 14.0008 17.4267 14.1777 17.4021C15.2924 17.2464 16.5141 17.3118 17.3059 18.1118L18.3801 19.197C18.7578 19.5786 19.3743 19.5786 19.752 19.197C20.1243 18.8209 20.1243 18.2152 19.752 17.8391L18.6645 16.7403ZM13.6341 15.48C12.2761 15.48 11.2091 14.402 11.2091 13.03C11.2091 11.658 12.2761 10.58 13.6341 10.58C14.9921 10.58 16.0591 11.658 16.0591 13.03C16.0591 14.402 14.9921 15.48 13.6341 15.48ZM9.26116 18.358C9.79804 18.4266 10.2391 18.8588 10.2391 19.4C10.2391 19.9413 9.79903 20.3853 9.26055 20.3307C4.36511 19.8345 0.539062 15.656 0.539062 10.58C0.539062 5.17043 4.88466 0.780029 10.2391 0.780029C14.5087 0.780029 18.1285 3.56831 19.4277 7.4347C19.6298 8.03635 19.1521 8.62003 18.5174 8.62003C18.0583 8.62003 17.664 8.30624 17.507 7.87486C17.1801 6.97619 16.6921 6.14348 16.0655 5.41936C15.357 4.60063 14.4886 3.94091 13.5165 3.48065C13.3434 3.39867 13.1491 3.52846 13.1491 3.72003C13.1491 4.79803 12.2761 5.68003 11.2091 5.68003C10.1376 5.68003 9.26906 6.5486 9.26906 7.62003V7.64003C9.26906 8.17903 8.83256 8.62003 8.29906 8.62003H7.33906C6.79782 8.62003 6.35906 9.06382 6.35906 9.60505C6.35906 10.1408 6.79335 10.58 7.32906 10.58C7.86478 10.58 8.29906 11.0143 8.29906 11.55V12.8356C8.29906 13.2136 7.99263 13.52 7.61462 13.52C7.43188 13.52 7.25673 13.447 7.12818 13.3171L3.9276 10.0835C3.3902 9.54056 2.47906 9.8161 2.47906 10.58C2.47906 14.5673 5.44308 17.8705 9.26116 18.358Z"
                fill="white"
              />
            </svg>