<svg xmlns="http://www.w3.org/2000/svg" width="22" height="20" viewBox="0 0 22 20" fill="">
  <path d="M20.8939 10.0029C20.6023 10.0029 20.3226 10.1082 20.1163 10.2957C19.9101 10.4832 19.7943 10.7375 19.7943 11.0026V17.0009C19.7943 17.266 19.6784 17.5203 19.4722 17.7078C19.2659 17.8953 18.9862 18.0006 18.6946 18.0006H3.29904C3.00739 18.0006 2.72768 17.8953 2.52145 17.7078C2.31522 17.5203 2.19936 17.266 2.19936 17.0009V3.00493C2.19936 2.73979 2.31522 2.48551 2.52145 2.29803C2.72768 2.11054 3.00739 2.00522 3.29904 2.00522H9.89713C10.1888 2.00522 10.4685 1.89989 10.6747 1.71241C10.881 1.52493 10.9968 1.27065 10.9968 1.00551C10.9968 0.740367 10.881 0.486087 10.6747 0.298605C10.4685 0.111123 10.1888 0.00579666 9.89713 0.00579666H3.29904C2.42408 0.00579666 1.58496 0.321776 0.966268 0.884222C0.347577 1.44667 0 2.20951 0 3.00493V17.0009C0 17.7963 0.347577 18.5591 0.966268 19.1216C1.58496 19.684 2.42408 20 3.29904 20H18.6946C19.5695 20 20.4087 19.684 21.0274 19.1216C21.646 18.5591 21.9936 17.7963 21.9936 17.0009V11.0026C21.9936 10.7375 21.8778 10.4832 21.6715 10.2957C21.4653 10.1082 21.1856 10.0029 20.8939 10.0029ZM4.39872 10.7627V15.0014C4.39872 15.2666 4.51458 15.5209 4.72081 15.7084C4.92704 15.8958 5.20675 16.0012 5.49841 16.0012H10.1611C10.3058 16.0019 10.4492 15.9767 10.5832 15.927C10.7172 15.8772 10.8391 15.8039 10.9418 15.7112L18.5516 8.78325L21.6747 6.00406C21.7778 5.91112 21.8596 5.80055 21.9154 5.67873C21.9713 5.5569 22 5.42624 22 5.29426C22 5.16229 21.9713 5.03162 21.9154 4.9098C21.8596 4.78797 21.7778 4.6774 21.6747 4.58447L17.0121 0.295713C16.9098 0.202011 16.7882 0.127639 16.6542 0.0768846C16.5202 0.0261307 16.3765 0 16.2313 0C16.0861 0 15.9424 0.0261307 15.8084 0.0768846C15.6744 0.127639 15.5527 0.202011 15.4505 0.295713L12.3494 3.12489L4.71763 10.0529C4.61571 10.1463 4.53508 10.2571 4.48035 10.3789C4.42563 10.5007 4.39789 10.6311 4.39872 10.7627ZM16.2313 2.4151L19.3434 5.24428L17.7818 6.66387L14.6697 3.83469L16.2313 2.4151ZM6.59809 11.1726L13.1192 5.24428L16.2313 8.07346L9.71018 14.0017H6.59809V11.1726Z" />
</svg>