<svg xmlns="http://www.w3.org/2000/svg" width="19" height="15" viewBox="0 0 19 15" fill="none">
  <path d="M17.0984 4.1L9.89844 8.6L2.69844 4.1V2.3L9.89844 6.8L17.0984 2.3M17.0984 0.5H2.69844C1.69944 0.5 0.898438 1.301 0.898438 2.3V13.1C0.898438 13.5774 1.08808 14.0352 1.42565 14.3728C1.76321 14.7104 2.22105 14.9 2.69844 14.9H17.0984C17.5758 14.9 18.0337 14.7104 18.3712 14.3728C18.7088 14.0352 18.8984 13.5774 18.8984 13.1V2.3C18.8984 1.82261 18.7088 1.36477 18.3712 1.02721C18.0337 0.689642 17.5758 0.5 17.0984 0.5Z" />
</svg>