<svg width="151" height="346" viewBox="0 0 151 346" fill="none"
    xmlns="http://www.w3.org/2000/svg">
    <g opacity="0.1">
        <path d="M129.648 250.449C99.7189 243.033 63.9721 248.261 23.8942 190.784C24.1622 189.927 26.3367 188.689 27.7947 189.163C40.0407 193.836 51.3866 223.654 129.75 230.954C129.722 236.391 129.681 244.131 129.648 250.449Z" fill="#EB2127"/>
        <path d="M11.1275 179.166C10.7479 179.789 10.3832 180.389 10.026 180.989C7.58891 185.013 6.62415 186.672 4.19386 190.703C3.98159 191.056 3.78563 191.055 3.57676 190.707C3.21888 190.081 2.86101 189.446 2.48749 188.827C2.33848 188.578 2.30923 188.336 2.38611 188.05C3.65228 183.547 5.93493 175.953 6.19551 175.059C6.24926 174.871 6.20435 174.765 6.06964 174.644C4.46669 173.107 3.70331 172.267 2.13097 170.7C0.828058 169.405 -0.34014 166.817 0.0912151 164.876C0.138161 164.598 0.236135 164.501 0.515087 164.456C2.2929 164.21 4.83886 165.338 6.22477 166.648C7.67805 168.026 8.90543 169.32 10.1253 170.636C10.2526 170.773 10.358 170.811 10.5465 170.759C15.9439 169.304 18.1993 168.48 23.5967 167.017C23.8981 166.936 24.1614 166.968 24.424 167.127C25.0391 167.507 25.6698 167.864 26.2923 168.236C26.6073 168.426 26.6141 168.629 26.2971 168.816C23.0504 170.742 22.1972 171.204 18.9423 173.13C17.5604 173.944 16.1786 174.765 14.7968 175.578C14.7594 175.6 14.7287 175.623 14.6689 175.66C14.9084 175.925 15.1322 176.189 15.3649 176.447C17.1454 178.467 18.9266 180.487 20.7003 182.507C20.8351 182.658 20.9548 182.681 21.1358 182.637C22.4326 182.342 23.7212 182.056 25.0173 181.754C25.2663 181.694 25.4766 181.748 25.6562 181.937C25.8957 182.179 26.1352 182.422 26.3753 182.664C26.5774 182.869 26.5618 182.982 26.3053 183.123C24.9534 183.854 21.6563 185.298 21.0079 185.588C20.7337 186.166 19.2335 189.494 18.4885 190.846C18.3211 191.146 18.2231 191.16 17.9836 190.911C17.7591 190.683 17.5346 190.449 17.3101 190.23C17.1148 190.04 17.0638 189.837 17.125 189.574C17.4332 188.28 17.7333 186.994 18.0489 185.7C18.0945 185.513 18.0653 185.399 17.9156 185.263C15.6901 183.271 13.4803 181.271 11.2622 179.28C11.2248 179.249 11.1874 179.218 11.1275 179.166Z" fill="#EB2127"/>
        <path d="M78.1106 310.766L77.9854 334.681L63.6684 334.606L63.8351 302.687L54.4181 302.638L54.2228 339.986C54.2065 343.073 56.9252 345.701 60.1549 345.718L114.12 346L114.178 334.87L87.1242 334.729L87.2181 316.786C87.2351 313.548 84.6374 310.808 81.5506 310.791L78.1106 310.774V310.766Z" fill="black"/>
        <path d="M114.38 296.37L114.595 255.212L104.554 255.16L104.397 285.008L54.5122 284.747L54.483 290.356C54.4667 293.444 57.1854 296.071 60.4151 296.088L114.38 296.37Z" fill="black"/>
        <path d="M78.9436 151.719L78.8184 175.634L64.5007 175.559L64.6681 143.64L55.2511 143.591L55.0558 180.939C55.0395 184.027 57.7582 186.654 60.9873 186.671L114.952 186.953L115.011 175.824L87.9565 175.683L88.0511 157.731C88.0674 154.493 85.4698 151.754 82.3836 151.738L78.9436 151.719Z" fill="black"/>
        <path d="M102.873 108.825L115.39 104.846L115.453 92.9113L55.4132 114.111L55.3628 123.764C55.3478 126.558 56.5283 128.326 58.9701 129.152L115.156 149.574L115.219 137.459L102.745 133.35L102.873 108.825ZM65.1554 121.022L93.7113 111.894L93.6147 130.343L65.1554 121.022Z" fill="black"/>
        <path d="M102.208 50.3956C109.593 50.3214 111.83 50.1071 112.41 49.9295L112.539 49.9071C113.743 49.8309 114.776 49.5798 115.674 49.1634L115.737 37.2358C114.837 37.8937 113.676 38.2717 112.313 38.3323L100.357 38.8119C96.17 39.0762 93.3594 39.6409 91.5176 40.588C89.7725 41.7385 88.4226 43.5987 87.5517 46.0793L86.9176 47.8904L86.4148 46.0358C84.8867 40.3948 79.9948 37.2671 72.655 37.2287C61.0104 37.1677 55.7852 43.0292 55.7165 56.2366L55.5947 79.4359C55.5783 82.5234 58.2978 85.1503 61.5268 85.1673L115.492 85.4497L115.551 74.1473L91.8163 74.0228L91.8891 60.1228C91.9299 52.3448 94.633 50.8154 102.208 50.3956ZM65.0335 73.8677L65.1178 57.8069C65.1491 51.7447 68.0564 48.6804 73.762 48.7103C79.6859 48.7416 82.4326 51.8883 82.3972 58.6124L82.3169 73.9507L65.0335 73.8602V73.8677Z" fill="black"/>
        <path d="M54.4816 251.78L54.3788 271.433L92.1075 242.647C86.9067 241.145 82.3999 239.178 77.6271 236.345L54.4816 251.78Z" fill="black"/>
        <path d="M148.636 220.511L127.122 220.398L127.139 217.115L130.196 217.131C127.84 215.537 126.671 213.25 126.686 210.26C126.693 208.965 126.933 207.769 127.405 206.687C127.878 205.605 128.491 204.796 129.255 204.258C130.017 203.719 130.916 203.347 131.955 203.134C132.633 203.002 133.816 202.941 135.502 202.95L148.728 203.019L148.709 206.663L135.626 206.595C134.143 206.587 133.028 206.725 132.288 206.999C131.55 207.281 130.96 207.783 130.52 208.503C130.079 209.224 129.856 210.066 129.851 211.045C129.843 212.596 130.333 213.939 131.313 215.073C132.293 216.208 134.157 216.783 136.912 216.797L148.662 216.859L148.643 220.511H148.636Z" fill="black"/>
        <path d="M145.543 188.62L148.768 188.11C148.981 189.135 149.082 190.054 149.077 190.867C149.07 192.193 148.854 193.216 148.436 193.944C148.011 194.672 147.459 195.181 146.78 195.479C146.093 195.769 144.662 195.912 142.472 195.901L130.097 195.836L130.082 198.508L127.244 198.494L127.259 195.821L121.929 195.793L119.758 192.152L127.27 192.191L127.289 188.525L130.127 188.539L130.108 192.206L142.686 192.272C143.725 192.278 144.395 192.22 144.69 192.087C144.984 191.96 145.226 191.751 145.4 191.465C145.575 191.173 145.667 190.759 145.67 190.224C145.68 189.811 145.63 189.283 145.543 188.62Z" fill="black"/>
        <path d="M141.978 169.467L142.464 165.697C144.659 166.303 146.37 167.411 147.573 169.029C148.777 170.646 149.376 172.698 149.363 175.198C149.346 178.346 148.362 180.833 146.418 182.667C144.474 184.502 141.744 185.406 138.252 185.388C134.631 185.369 131.828 184.421 129.843 182.55C127.85 180.672 126.869 178.25 126.885 175.284C126.9 172.407 127.891 170.063 129.857 168.243C131.824 166.432 134.584 165.535 138.137 165.553C138.355 165.555 138.679 165.564 139.108 165.581L139.024 181.627C141.388 181.504 143.198 180.843 144.461 179.645C145.725 178.447 146.358 176.952 146.367 175.16C146.374 173.82 146.026 172.681 145.331 171.728C144.629 170.783 143.511 170.032 141.978 169.467ZM136.021 181.416L136.084 169.398C134.277 169.554 132.912 169.999 132.004 170.755C130.591 171.907 129.883 173.409 129.874 175.261C129.865 176.933 130.414 178.352 131.53 179.495C132.645 180.645 134.14 181.285 136.021 181.416Z" fill="black"/>
        <path d="M148.951 160.369L127.437 160.256L127.455 156.974L130.714 156.991C129.19 156.147 128.193 155.366 127.708 154.656C127.222 153.945 126.985 153.161 126.989 152.31C126.996 151.083 127.394 149.835 128.183 148.566L131.557 149.841C131.025 150.727 130.757 151.622 130.753 152.51C130.748 153.309 130.985 154.025 131.456 154.66C131.935 155.295 132.595 155.75 133.444 156.026C134.737 156.44 136.158 156.65 137.694 156.658L148.955 156.717L148.936 160.369H148.951Z" fill="black"/>
        <path d="M149.027 145.679L127.514 145.566L127.531 142.283L130.587 142.299C128.232 140.705 127.062 138.418 127.078 135.428C127.084 134.134 127.324 132.938 127.797 131.856C128.269 130.774 128.883 129.964 129.646 129.425C130.409 128.887 131.307 128.516 132.346 128.303C133.025 128.171 134.207 128.109 135.893 128.118L149.119 128.187L149.1 131.831L136.017 131.763C134.534 131.755 133.419 131.893 132.68 132.167C131.941 132.45 131.351 132.951 130.911 133.672C130.471 134.392 130.248 135.234 130.243 136.213C130.235 137.764 130.724 139.107 131.705 140.242C132.685 141.376 134.549 141.951 137.304 141.965L149.054 142.027L149.035 145.679H149.027Z" fill="black"/>
        <path d="M146.569 107.714C147.707 109.068 148.512 110.375 148.98 111.628C149.448 112.88 149.674 114.221 149.667 115.652C149.654 118.016 149.065 119.828 147.907 121.094C146.749 122.361 145.269 122.986 143.471 122.976C142.417 122.971 141.455 122.725 140.591 122.246C139.728 121.767 139.024 121.131 138.501 120.353C137.978 119.574 137.584 118.699 137.318 117.726C137.134 117.009 136.959 115.924 136.785 114.478C136.447 111.532 136.044 109.361 135.563 107.965C135.066 107.948 134.742 107.939 134.614 107.938C133.131 107.93 132.083 108.271 131.469 108.953C130.637 109.883 130.223 111.266 130.214 113.103C130.205 114.82 130.499 116.086 131.097 116.903C131.695 117.719 132.753 118.335 134.279 118.734L133.771 122.301C132.244 121.969 131.02 121.428 130.084 120.677C129.147 119.927 128.43 118.854 127.932 117.444C127.436 116.032 127.188 114.405 127.197 112.552C127.208 110.715 127.433 109.225 127.868 108.075C128.304 106.933 128.858 106.085 129.515 105.554C130.173 105.016 131.003 104.644 132.005 104.43C132.631 104.313 133.745 104.259 135.371 104.267L140.234 104.293C143.621 104.31 145.767 104.246 146.664 104.093C147.56 103.939 148.427 103.643 149.25 103.188L149.23 106.998C148.475 107.371 147.586 107.607 146.569 107.714ZM138.43 107.973C138.965 109.301 139.414 111.291 139.777 113.936C139.987 115.436 140.222 116.498 140.491 117.118C140.758 117.744 141.147 118.22 141.665 118.562C142.182 118.904 142.761 119.072 143.393 119.076C144.365 119.08 145.179 118.716 145.83 117.982C146.482 117.247 146.811 116.172 146.818 114.756C146.825 113.348 146.523 112.096 145.92 111.002C145.308 109.906 144.477 109.097 143.411 108.579C142.592 108.183 141.374 107.981 139.77 107.972L138.43 107.965V107.973Z" fill="black"/>
        <path d="M146.06 89.8802L149.284 89.37C149.497 90.3946 149.598 91.3145 149.594 92.1275C149.586 93.4529 149.371 94.4755 148.953 95.2035C148.527 95.9322 147.975 96.4411 147.296 96.7391C146.61 97.0289 145.178 97.1718 142.988 97.1602L130.613 97.0956L130.599 99.7688L127.761 99.7538L127.775 97.0806L122.446 97.0527L120.274 93.4121L127.787 93.4515L127.806 89.7843L130.643 89.7993L130.624 93.4665L143.203 93.5318C144.241 93.5372 144.911 93.4808 145.206 93.3467C145.5 93.2202 145.742 93.0106 145.917 92.7256C146.091 92.433 146.184 92.0193 146.187 91.4846C146.197 91.0777 146.146 90.5429 146.06 89.8802Z" fill="black"/>
        <path d="M123.84 85.3435L119.647 85.3218L119.666 81.677L123.86 81.6988L123.84 85.3435ZM149.344 85.4769L127.83 85.3646L127.849 81.7199L149.363 81.8328L149.344 85.4769Z" fill="black"/>
        <path d="M138.632 76.7539C134.649 76.7328 131.704 75.6102 129.796 73.3867C128.21 71.5259 127.425 69.2705 127.438 66.6048C127.454 63.6459 128.438 61.2339 130.382 59.369C132.333 57.5041 135.011 56.5768 138.428 56.5945C141.199 56.6095 143.372 57.0347 144.956 57.8715C146.54 58.7077 147.768 59.927 148.632 61.5197C149.505 63.1131 149.933 64.8474 149.922 66.7225C149.907 69.7345 148.93 72.1689 146.987 74.0113C145.05 75.8538 142.267 76.7729 138.632 76.7539ZM138.651 73.0037C141.406 73.018 143.472 72.4267 144.848 71.2293C146.225 70.0311 146.917 68.5214 146.927 66.6994C146.936 64.8923 146.252 63.3826 144.88 62.1708C143.509 60.9584 141.412 60.3529 138.59 60.3379C135.932 60.3243 133.912 60.9162 132.536 62.1211C131.159 63.3261 130.466 64.8209 130.457 66.6204C130.448 68.4432 131.124 69.9597 132.48 71.1721C133.844 72.3764 135.896 72.9894 138.651 73.0037Z" fill="black"/>
        <path d="M149.521 51.5393L128.007 51.4271L128.024 48.1443L131.081 48.1599C128.725 46.5665 127.555 44.2784 127.571 41.2895C127.577 39.9941 127.817 38.7982 128.29 37.7164C128.762 36.6345 129.376 35.8245 130.139 35.2863C130.902 34.7482 131.8 34.3763 132.84 34.1635C133.518 34.0315 134.7 33.9699 136.386 33.9787L149.612 34.0479L149.593 37.6923L136.51 37.6239C135.027 37.6161 133.912 37.7534 133.173 38.0281C132.434 38.3103 131.845 38.8118 131.404 39.5323C130.964 40.2526 130.741 41.0949 130.736 42.074C130.728 43.6252 131.217 44.9683 132.198 46.1025C133.178 47.2373 135.042 47.8116 137.797 47.8265L149.547 47.8878L149.528 51.54L149.521 51.5393Z" fill="black"/>
        <path d="M147.062 13.575C148.199 14.9288 149.005 16.2358 149.473 17.4882C149.94 18.7406 150.167 20.0821 150.159 21.5128C150.147 23.8772 149.558 25.6888 148.399 26.9553C147.241 28.2218 145.763 28.8466 143.963 28.8372C142.909 28.8317 141.947 28.5857 141.084 28.1068C140.221 27.6278 139.517 26.9916 138.994 26.2134C138.471 25.435 138.077 24.5594 137.811 23.5867C137.626 22.8703 137.451 21.7852 137.278 20.3385C136.94 17.3925 136.537 15.2217 136.055 13.8261C135.559 13.8085 135.235 13.7992 135.107 13.7985C133.624 13.7908 132.576 14.1317 131.962 14.8137C131.129 15.7431 130.716 17.1264 130.706 18.9637C130.697 20.6805 130.992 21.9471 131.589 22.7635C132.187 23.5798 133.246 24.1953 134.772 24.5949L134.264 28.1615C132.737 27.8296 131.513 27.2886 130.576 26.5382C129.639 25.7878 128.922 24.7148 128.425 23.3042C127.928 21.8934 127.681 20.2656 127.691 18.4133C127.7 16.576 127.926 15.0863 128.362 13.9365C128.796 12.7942 129.35 11.9462 130.008 11.415C130.666 10.8763 131.495 10.5041 132.498 10.291C133.124 10.1738 134.238 10.1194 135.863 10.1279L140.727 10.1534C144.114 10.1711 146.26 10.107 147.156 9.95356C148.053 9.80014 148.92 9.50349 149.743 9.04846L149.723 12.8585C148.968 13.2311 148.079 13.4674 147.062 13.575ZM138.923 13.8337C139.459 15.1617 139.907 17.152 140.27 19.7969C140.48 21.2965 140.715 22.3595 140.983 22.9783C141.251 23.6047 141.64 24.0811 142.158 24.4227C142.675 24.7642 143.254 24.9329 143.886 24.9362C144.857 24.9413 145.672 24.5766 146.323 23.8421C146.975 23.1075 147.304 22.0325 147.311 20.6169C147.318 19.2088 147.016 17.9572 146.413 16.8623C145.801 15.7672 144.97 14.9571 143.903 14.4395C143.085 14.0436 141.866 13.8415 140.263 13.8331L138.923 13.8261V13.8337Z" fill="black"/>
        <path d="M149.771 3.79987L120.075 3.64441L120.094 0L149.79 0.155463L149.771 3.79987Z" fill="black"/>
    </g>
</svg>
