<svg width="140" height="363" viewBox="0 0 140 363" fill="none" xmlns="http://www.w3.org/2000/svg">
<path d="M139.105 262.724C107.145 255.12 69.0511 260.791 25.988 200.806C26.269 199.907 28.5811 198.598 30.1386 199.087C43.2245 203.914 55.4915 235.086 139.105 242.303C139.105 247.998 139.105 256.106 139.105 262.724Z" fill="#EB2127" fill-opacity="0.1"/>
<path d="M12.3084 188.711C11.907 189.366 11.5216 189.997 11.1443 190.628C8.56725 194.856 7.54768 196.599 4.97866 200.835C4.75388 201.205 4.54514 201.205 4.32036 200.842C3.935 200.188 3.54965 199.525 3.14824 198.878C2.98767 198.618 2.95556 198.366 3.03584 198.066C4.36049 193.341 6.75288 185.375 7.02584 184.436C7.08204 184.239 7.03387 184.129 6.88936 184.003C5.17134 182.401 4.35246 181.526 2.66655 179.893C1.26965 178.544 0.00922732 175.839 0.458804 173.804C0.506973 173.512 0.611344 173.41 0.908386 173.362C2.80303 173.094 5.52458 174.261 7.00979 175.626C8.56725 177.062 9.88387 178.41 11.1925 179.783C11.3289 179.925 11.4413 179.964 11.642 179.909C17.3902 178.355 19.7906 177.48 25.5388 175.918C25.8599 175.831 26.1409 175.863 26.4219 176.028C27.0802 176.423 27.7546 176.793 28.4209 177.18C28.7581 177.377 28.7661 177.59 28.4289 177.787C24.9768 179.822 24.0696 180.311 20.6095 182.346C19.1403 183.206 17.6712 184.074 16.202 184.933C16.1619 184.957 16.1298 184.981 16.0656 185.02C16.3225 185.296 16.5633 185.572 16.8122 185.84C18.7229 187.946 20.6336 190.052 22.5363 192.158C22.6808 192.316 22.8092 192.34 23.0019 192.292C24.3827 191.977 25.7556 191.669 27.1364 191.346C27.4013 191.283 27.6261 191.338 27.8188 191.535C28.0757 191.788 28.3326 192.04 28.5895 192.292C28.8063 192.505 28.7902 192.624 28.5172 192.774C27.0802 193.546 23.5719 195.077 22.8815 195.384C22.5925 195.992 21.0109 199.486 20.2241 200.906C20.0475 201.221 19.9432 201.237 19.6863 200.977C19.4454 200.74 19.2046 200.495 18.9637 200.267C18.755 200.069 18.6988 199.857 18.763 199.58C19.0841 198.224 19.3972 196.875 19.7264 195.518C19.7746 195.321 19.7425 195.203 19.5819 195.061C17.1975 192.986 14.8292 190.904 12.4529 188.83C12.4127 188.798 12.3726 188.767 12.3084 188.711Z" fill="#EB2127" fill-opacity="0.1"/>
<path d="M64.3971 326.291V351.342H49.1276V317.907H39.0844V357.029C39.0844 360.263 41.9986 363 45.4427 363H102.997V351.342H74.1433V332.546C74.1433 329.155 71.3576 326.299 68.066 326.299H64.3971V326.291Z" fill="black" fill-opacity="0.1"/>
<path d="M102.997 311.015V267.901H92.287V299.168H39.0844V305.044C39.0844 308.278 41.9986 311.015 45.4427 311.015H102.997Z" fill="black" fill-opacity="0.1"/>
<path d="M64.3971 159.689V184.74H49.1276V151.304H39.0844V190.427C39.0844 193.66 41.9986 196.397 45.4427 196.397H102.997V184.74H74.1433V165.936C74.1433 162.544 71.3576 159.689 68.066 159.689H64.3971Z" fill="black" fill-opacity="0.1"/>
<path d="M89.6759 114.62L103.003 110.384V97.8826L39.0905 120.417V130.529C39.0905 133.455 40.3589 135.301 42.9681 136.153L103.003 157.236V144.545L89.6759 140.31V114.62ZM49.519 127.603L79.9217 117.885V137.21L49.519 127.603Z" fill="black" fill-opacity="0.1"/>
<path d="M88.6403 53.4287C96.5159 53.3104 98.9003 53.0738 99.5184 52.8845L99.6549 52.8608C100.939 52.7741 102.039 52.5059 102.995 52.0642V39.5703C102.039 40.2644 100.803 40.6667 99.3498 40.7377L86.6011 41.3056C82.1375 41.6053 79.143 42.2126 77.1841 43.2143C75.3296 44.429 73.9006 46.3851 72.9854 48.988L72.319 50.8889L71.7731 48.9486C70.1113 43.0487 64.8769 39.7991 57.0494 39.7991C44.6299 39.7991 39.0905 45.9671 39.0905 59.8018V84.1033C39.0905 87.3372 42.0047 90.0742 45.4488 90.0742H103.003V78.235H77.6899V63.6746C77.6899 55.5268 80.5639 53.9099 88.6403 53.4287ZM49.1257 78.2192V61.3951C49.1257 55.0457 52.2085 51.8197 58.2938 51.8197C64.612 51.8197 67.5583 55.1009 67.5583 62.1444V78.2114H49.1257V78.2192Z" fill="black" fill-opacity="0.1"/>
<path d="M38.8658 264.625V285.212L78.9424 254.853C73.3869 253.307 68.57 251.272 63.4641 248.33L38.8658 264.625Z" fill="black" fill-opacity="0.1"/>
<path d="M139.1 231.359H116.156V227.92H119.415C116.894 226.264 115.634 223.874 115.634 220.743C115.634 219.386 115.883 218.132 116.381 216.996C116.878 215.86 117.529 215.009 118.34 214.441C119.15 213.873 120.106 213.478 121.214 213.25C121.936 213.108 123.197 213.037 124.995 213.037H139.1V216.854H125.147C123.566 216.854 122.378 217.004 121.591 217.296C120.804 217.596 120.178 218.124 119.712 218.881C119.247 219.638 119.014 220.522 119.014 221.547C119.014 223.172 119.544 224.576 120.595 225.759C121.647 226.942 123.638 227.534 126.576 227.534H139.108V231.359H139.1Z" fill="black" fill-opacity="0.1"/>
<path d="M135.628 197.978L139.064 197.426C139.297 198.498 139.409 199.461 139.409 200.313C139.409 201.701 139.185 202.773 138.743 203.539C138.294 204.304 137.707 204.84 136.985 205.155C136.254 205.463 134.729 205.621 132.393 205.621H119.195V208.421H116.168V205.621H110.484L108.148 201.819H116.16V197.978H119.186V201.819H132.602C133.709 201.819 134.424 201.756 134.737 201.614C135.05 201.48 135.307 201.259 135.492 200.959C135.676 200.652 135.773 200.218 135.773 199.658C135.781 199.224 135.724 198.672 135.628 197.978Z" fill="black" fill-opacity="0.1"/>
<path d="M131.717 177.929L132.214 173.977C134.558 174.6 136.389 175.752 137.681 177.44C138.974 179.128 139.624 181.273 139.624 183.892C139.624 187.189 138.589 189.8 136.525 191.732C134.462 193.665 131.556 194.627 127.831 194.627C123.969 194.627 120.975 193.649 118.847 191.701C116.712 189.745 115.652 187.213 115.652 184.105C115.652 181.092 116.696 178.631 118.783 176.714C120.87 174.806 123.809 173.851 127.598 173.851C127.831 173.851 128.176 173.859 128.634 173.875V190.683C131.155 190.541 133.081 189.839 134.422 188.577C135.763 187.315 136.429 185.746 136.429 183.868C136.429 182.464 136.052 181.273 135.305 180.28C134.55 179.294 133.354 178.513 131.717 177.929ZM125.43 190.478V177.89C123.504 178.063 122.051 178.536 121.087 179.333C119.586 180.548 118.839 182.125 118.839 184.066C118.839 185.817 119.433 187.299 120.63 188.49C121.826 189.689 123.423 190.352 125.43 190.478Z" fill="black" fill-opacity="0.1"/>
<path d="M139.101 168.362H116.156V164.923H119.633C118.003 164.048 116.935 163.235 116.413 162.494C115.892 161.753 115.635 160.932 115.635 160.041C115.635 158.755 116.052 157.446 116.887 156.113L120.492 157.43C119.93 158.361 119.649 159.3 119.649 160.23C119.649 161.066 119.906 161.816 120.411 162.478C120.925 163.141 121.632 163.614 122.539 163.898C123.92 164.324 125.437 164.537 127.075 164.537H139.085V168.362H139.101Z" fill="black" fill-opacity="0.1"/>
<path d="M139.101 152.976H116.156V149.537H119.416C116.895 147.88 115.635 145.49 115.635 142.359C115.635 141.002 115.884 139.748 116.381 138.612C116.879 137.477 117.529 136.625 118.34 136.057C119.151 135.489 120.106 135.095 121.214 134.866C121.937 134.724 123.197 134.653 124.995 134.653H139.101V138.47H125.148C123.566 138.47 122.378 138.62 121.592 138.912C120.805 139.212 120.179 139.74 119.713 140.497C119.247 141.255 119.014 142.138 119.014 143.163C119.014 144.788 119.544 146.192 120.596 147.375C121.648 148.559 123.639 149.15 126.577 149.15H139.109V152.976H139.101Z" fill="black" fill-opacity="0.1"/>
<path d="M136.267 113.22C137.487 114.632 138.354 115.996 138.86 117.306C139.366 118.615 139.615 120.019 139.615 121.517C139.615 123.994 138.997 125.895 137.768 127.228C136.54 128.561 134.966 129.224 133.048 129.224C131.924 129.224 130.896 128.971 129.973 128.474C129.05 127.977 128.295 127.315 127.733 126.502C127.171 125.69 126.746 124.775 126.457 123.758C126.256 123.008 126.063 121.872 125.871 120.358C125.493 117.274 125.052 115.002 124.53 113.543C124 113.527 123.655 113.52 123.518 113.52C121.937 113.52 120.821 113.882 120.171 114.6C119.287 115.578 118.854 117.029 118.854 118.954C118.854 120.752 119.175 122.078 119.817 122.929C120.46 123.781 121.592 124.42 123.221 124.83L122.699 128.569C121.07 128.23 119.761 127.67 118.758 126.889C117.754 126.108 116.983 124.988 116.445 123.513C115.908 122.038 115.635 120.334 115.635 118.394C115.635 116.469 115.867 114.908 116.325 113.701C116.783 112.502 117.369 111.611 118.067 111.051C118.766 110.483 119.649 110.088 120.716 109.86C121.383 109.734 122.571 109.67 124.305 109.67H129.491C133.104 109.67 135.392 109.592 136.347 109.426C137.303 109.26 138.226 108.945 139.101 108.464V112.455C138.298 112.849 137.351 113.101 136.267 113.22ZM127.589 113.535C128.167 114.924 128.656 117.006 129.058 119.774C129.291 121.344 129.547 122.456 129.836 123.103C130.125 123.758 130.543 124.254 131.097 124.609C131.651 124.964 132.269 125.138 132.943 125.138C133.979 125.138 134.846 124.751 135.536 123.978C136.227 123.205 136.572 122.078 136.572 120.595C136.572 119.12 136.243 117.81 135.593 116.667C134.934 115.523 134.043 114.679 132.903 114.143C132.028 113.732 130.728 113.527 129.018 113.527H127.589V113.535Z" fill="black" fill-opacity="0.1"/>
<path d="M135.628 94.5423L139.064 93.9901C139.297 95.0628 139.409 96.0251 139.409 96.877C139.409 98.2652 139.185 99.3379 138.743 100.103C138.294 100.868 137.707 101.404 136.985 101.72C136.254 102.028 134.729 102.185 132.393 102.185H119.195V104.985H116.168V102.185H110.484L108.148 98.3835H116.16V94.5423H119.186V98.3835H132.602C133.709 98.3835 134.424 98.3204 134.737 98.1784C135.05 98.0443 135.307 97.8235 135.492 97.5237C135.676 97.2161 135.773 96.7823 135.773 96.2223C135.781 95.7964 135.724 95.2364 135.628 94.5423Z" fill="black" fill-opacity="0.1"/>
<path d="M111.903 89.918H107.431V86.1004H111.903V89.918ZM139.102 89.918H116.158V86.1004H139.102V89.918Z" fill="black" fill-opacity="0.1"/>
<path d="M127.629 80.835C123.382 80.835 120.235 79.6755 118.188 77.3566C116.486 75.4162 115.635 73.0579 115.635 70.2657C115.635 67.1659 116.67 64.634 118.734 62.67C120.805 60.706 123.655 59.72 127.3 59.72C130.254 59.72 132.574 60.1538 134.268 61.0215C135.962 61.8891 137.279 63.159 138.21 64.8232C139.149 66.4875 139.615 68.3017 139.615 70.2657C139.615 73.4207 138.587 75.9762 136.524 77.9166C134.469 79.8569 131.506 80.835 127.629 80.835ZM127.629 76.907C130.567 76.907 132.767 76.276 134.228 75.014C135.689 73.7519 136.42 72.1666 136.42 70.2578C136.42 68.3648 135.681 66.7872 134.212 65.5252C132.743 64.2632 130.503 63.6401 127.492 63.6401C124.658 63.6401 122.507 64.2711 121.046 65.541C119.584 66.8109 118.854 68.3805 118.854 70.2657C118.854 72.1744 119.584 73.7598 121.038 75.0218C122.499 76.276 124.69 76.907 127.629 76.907Z" fill="black" fill-opacity="0.1"/>
<path d="M139.101 54.3633H116.156V50.9243H119.416C116.895 49.2679 115.635 46.878 115.635 43.7466C115.635 42.39 115.884 41.1359 116.381 40.0001C116.879 38.8642 117.529 38.0124 118.34 37.4445C119.151 36.8766 120.106 36.4822 121.214 36.2535C121.937 36.1115 123.197 36.0405 124.995 36.0405H139.101V39.8581H125.148C123.566 39.8581 122.378 40.0079 121.592 40.2998C120.805 40.5995 120.179 41.128 119.713 41.8852C119.247 42.6424 119.014 43.5258 119.014 44.5512C119.014 46.176 119.544 47.58 120.596 48.7631C121.648 49.9463 123.639 50.5378 126.577 50.5378H139.109V54.3633H139.101Z" fill="black" fill-opacity="0.1"/>
<path d="M136.267 14.6066C137.487 16.0184 138.354 17.383 138.86 18.6923C139.366 20.0016 139.615 21.4056 139.615 22.9042C139.615 25.3809 138.997 27.2818 137.768 28.6148C136.54 29.9478 134.966 30.6104 133.048 30.6104C131.924 30.6104 130.896 30.358 129.973 29.861C129.05 29.3641 128.295 28.7016 127.733 27.8892C127.171 27.0767 126.746 26.1618 126.457 25.1443C126.256 24.395 126.063 23.2592 125.871 21.7448C125.493 18.6607 125.052 16.3891 124.53 14.9299C124 14.9141 123.655 14.9063 123.518 14.9063C121.937 14.9063 120.821 15.2691 120.171 15.9869C119.287 16.9649 118.854 18.4162 118.854 20.3408C118.854 22.1391 119.175 23.4643 119.817 24.3161C120.46 25.168 121.592 25.8069 123.221 26.217L122.699 29.9557C121.07 29.6165 119.761 29.0565 118.758 28.2756C117.754 27.4948 116.983 26.3748 116.445 24.8998C115.908 23.4248 115.635 21.7211 115.635 19.7808C115.635 17.8562 115.867 16.2945 116.325 15.0877C116.783 13.8888 117.369 12.9975 118.067 12.4375C118.766 11.8696 119.649 11.4752 120.716 11.2465C121.383 11.1203 122.571 11.0572 124.305 11.0572H129.491C133.104 11.0572 135.392 10.9783 136.347 10.8126C137.303 10.647 138.226 10.3315 139.101 9.85037V13.8415C138.298 14.2358 137.351 14.4882 136.267 14.6066ZM127.589 14.922C128.167 16.3103 128.656 18.3926 129.058 21.1611C129.291 22.7307 129.547 23.8429 129.836 24.4896C130.125 25.1443 130.543 25.6412 131.097 25.9961C131.651 26.3511 132.269 26.5246 132.943 26.5246C133.979 26.5246 134.846 26.1381 135.536 25.3651C136.227 24.5922 136.572 23.4642 136.572 21.9814C136.572 20.5064 136.243 19.1971 135.593 18.0534C134.934 16.9097 134.043 16.0657 132.903 15.5294C132.028 15.1192 130.728 14.9142 129.018 14.9142H127.589V14.922Z" fill="black" fill-opacity="0.1"/>
<path d="M139.102 4.35742L107.431 4.35742V0.539856L139.102 0.539856V4.35742Z" fill="black" fill-opacity="0.1"/>
</svg>
