<svg width="40" height="39" viewBox="0 0 36 35" fill="none" xmlns="http://www.w3.org/2000/svg">
    <path
        d="M27.6923 18.3333C28.32 18.3333 28.9292 18.4 29.5385 18.4833V10L18.4615 0H3.69231C1.64308 0 0 1.48333 0 3.33333V30C0 31.85 1.64308 33.3333 3.69231 33.3333H18.1108C17.1692 31.8667 16.6154 30.1667 16.6154 28.3333C16.6154 22.8167 21.5815 18.3333 27.6923 18.3333ZM16.6154 2.5L26.7692 11.6667H16.6154V2.5ZM36 30L31.3846 35L26.7692 30H29.5385V23.3333H33.2308V30H36ZM28.6154 26.6667H25.8462V33.3333H22.1538V26.6667H19.3846L24 21.6667L28.6154 26.6667Z"
        fill="#DADCE0" />
</svg>