<svg xmlns="http://www.w3.org/2000/svg" width="14" height="15" viewBox="0 0 14 15" fill="var(--primary-color)">
  <path d="M8.74976 7.49898V14.0648C8.78475 14.3147 8.69726 14.5814 8.49604 14.7563C8.4151 14.8336 8.31896 14.8949 8.21313 14.9367C8.10729 14.9785 7.99383 15 7.87925 15C7.76467 15 7.65121 14.9785 7.54538 14.9367C7.43954 14.8949 7.3434 14.8336 7.26246 14.7563L5.50396 13.0816C5.40854 12.9927 5.33599 12.8841 5.29197 12.7641C5.24796 12.6441 5.23368 12.5161 5.25024 12.39V7.49898H5.224L0.184694 1.34982C0.0426205 1.17612 -0.0214858 0.955919 0.00638272 0.737342C0.0342512 0.518764 0.151829 0.319579 0.333423 0.183308C0.49965 0.0666576 0.683375 0 0.875848 0H13.1242C13.3166 0 13.5003 0.0666576 13.6666 0.183308C13.8482 0.319579 13.9657 0.518764 13.9936 0.737342C14.0215 0.955919 13.9574 1.17612 13.8153 1.34982L8.776 7.49898H8.74976Z" />
</svg>