<svg width="1695" height="1830" viewBox="0 0 1695 1830" fill="none" xmlns="http://www.w3.org/2000/svg">
<path d="M1622.15 1595.02L1694.23 1389.73L1138.99 682.711C1138.99 682.711 1203.89 561.588 1283.5 375.493C1329.62 259.157 1335.42 131.36 1299.81 11.5501C1298.61 7.51142 1295.72 4.19858 1291.9 2.40798L1290.89 1.93422C1287.08 0.143873 1282.68 0.0316846 1278.8 1.68667C1164.41 50.5041 1069.57 136.146 1009.45 245.067L1008.67 246.53C916.114 426.459 864.169 553.748 864.169 553.748L-35.0629 578.243L-147.251 764.711L413.914 847.575L682.56 922.997C592.95 1090.18 529.809 1270.21 495.381 1456.7L498.243 1443.95L266.848 1430.64L206.566 1558.8L484.59 1619.66C485.19 1647.09 487.022 1670.05 489.907 1692.81L489.582 1689.61L491.404 1702.63C487.616 1704.94 495.23 1700.42 491.404 1702.63C490.625 1698.17 492.146 1706.98 491.404 1702.63L502.927 1695.87C519.602 1685.42 538.466 1672.18 556.67 1657.92L560.021 1655.06L784.401 1829.96L844.684 1701.8L686.716 1532.39C777.861 1424.36 863.493 1291.39 932.258 1145.2C946.507 1114.9 959.871 1084.45 972.278 1053.82L970.547 1058.05L1200.24 1216.48L1622.26 1594.98L1622.15 1595.02Z" fill="url(#paint0_linear_7758_9917)"/>
<defs>
<linearGradient id="paint0_linear_7758_9917" x1="406.695" y1="-412.981" x2="1507.39" y2="1327.91" gradientUnits="userSpaceOnUse">
<stop stop-color="#5D7F9E"/>
<stop offset="1" stop-color="#003566"/>
</linearGradient>
</defs>
</svg>
