<svg width="26" height="18" viewBox="0 0 26 18" fill="none"
    xmlns="http://www.w3.org/2000/svg">
    <path d="M15.2531 16.7695C15.2531 17.1657 15.3752 17.5348 15.5919 17.8531H15.5682C14.6976 17.8531 13.9924 17.247 13.9924 16.4986V13.5189C13.9924 12.9195 13.429 12.4353 12.7317 12.4353H10.2104C9.51307 12.4353 8.94971 12.9195 8.94971 13.5189V16.4986C8.94971 17.247 8.24452 17.8531 7.37387 17.8531H5.17163C5.11254 17.8531 5.05344 17.8497 4.99435 17.8463C4.94707 17.8497 4.8998 17.8531 4.85252 17.8531H4.22219C3.35193 17.8531 2.64635 17.247 2.64635 16.4986V12.7062C2.64635 12.6757 2.64753 12.6418 2.64989 12.6114V10.2546H1.38764C0.677332 10.2546 0.125 9.77718 0.125 9.16768C0.125 8.86293 0.243346 8.59203 0.519354 8.35501L10.6201 0.787546C10.8959 0.550042 11.211 0.516113 11.4868 0.516113C11.7626 0.516113 12.0778 0.583971 12.3181 0.753616L19.4566 6.14725C17.7429 6.66871 16.5138 8.07396 16.5138 9.72639V10.5594C15.7613 10.9319 15.2531 11.6328 15.2531 12.4353V16.7695ZM20.9261 7.01748C22.6674 7.01748 24.0778 8.22972 24.0778 9.72639V11.3517C24.7751 11.3517 25.3385 11.8359 25.3385 12.4353V16.7695C25.3385 17.3689 24.7751 17.8531 24.0778 17.8531H17.7744C17.0771 17.8531 16.5138 17.3689 16.5138 16.7695V12.4353C16.5138 11.8359 17.0771 11.3517 17.7744 11.3517V9.72639C17.7744 8.22972 19.1848 7.01748 20.9261 7.01748ZM20.9261 8.64283C20.2288 8.64283 19.6654 9.12704 19.6654 9.72639V11.3517H22.1868V9.72639C22.1868 9.12704 21.6234 8.64283 20.9261 8.64283Z" fill="var(--primary-color)"/>
</svg>
