 <svg
              xmlns="http://www.w3.org/2000/svg"
              width="22"
              height="21"
              viewBox="0 0 22 21"
              fill="none"
            >
              <path
                d="M21.4806 19.2911C21.4806 19.8925 20.9931 20.38 20.3917 20.38H1.22951C0.628135 20.38 0.140625 19.8925 0.140625 19.2911V18.7358C0.140625 18.4411 0.379481 18.2023 0.674125 18.2023C0.968769 18.2023 1.20763 17.9634 1.20763 17.6688V1.86892C1.20763 1.58013 1.32004 1.30316 1.52014 1.09896C1.72024 0.894751 1.99164 0.780029 2.27463 0.780029H17.2126C17.4956 0.780029 17.767 0.894751 17.9671 1.09896C18.1672 1.30316 18.2796 1.58013 18.2796 1.86892V6.24636C18.2796 6.83565 18.7573 7.31336 19.3466 7.31336C19.9359 7.31336 20.4136 7.79107 20.4136 8.38036V17.6688C20.4136 17.9634 20.6525 18.2023 20.9471 18.2023C21.2418 18.2023 21.4806 18.4411 21.4806 18.7358V19.2911ZM16.1456 17.1353C16.1456 17.7245 16.6233 18.2023 17.2126 18.2023C17.8019 18.2023 18.2796 17.7245 18.2796 17.1353V12.6921C18.2796 10.9243 16.8465 9.49114 15.0786 9.49114C13.3108 9.49114 11.8776 10.9243 11.8776 12.6921V17.1353C11.8776 17.7245 12.3553 18.2023 12.9446 18.2023C13.5339 18.2023 14.0116 17.7245 14.0116 17.1353V12.7359C14.0116 12.1466 14.4893 11.6689 15.0786 11.6689C15.6679 11.6689 16.1456 12.1466 16.1456 12.7359V17.1353ZM13.9678 7.31336C15.1706 7.31336 16.1456 6.33834 16.1456 5.13558C16.1456 3.93283 15.1706 2.95781 13.9678 2.95781H8.19163C5.51305 2.95781 3.34163 5.12923 3.34163 7.80781V15.0013C3.34163 16.7691 4.77476 18.2023 6.54263 18.2023C8.31049 18.2023 9.74363 16.7691 9.74363 15.0013V10.5144C9.74363 8.7465 11.1768 7.31336 12.9446 7.31336H13.9678ZM5.47563 10.5581C5.47563 9.96885 5.95334 9.49114 6.54263 9.49114C7.13191 9.49114 7.60963 9.96885 7.60963 10.5581V10.6019C7.60963 11.1912 7.13191 11.6689 6.54263 11.6689C5.95334 11.6689 5.47563 11.1912 5.47563 10.6019V10.5581ZM5.47563 14.9137C5.47563 14.3244 5.95334 13.8467 6.54263 13.8467C7.13191 13.8467 7.60963 14.3244 7.60963 14.9137V14.9575C7.60963 15.5468 7.13191 16.0245 6.54263 16.0245C5.95334 16.0245 5.47563 15.5468 5.47563 14.9575V14.9137ZM5.47563 6.20259C5.47563 5.6133 5.95334 5.13558 6.54263 5.13558C7.13191 5.13558 7.60963 5.6133 7.60963 6.20258V6.24636C7.60963 6.83565 7.13191 7.31336 6.54263 7.31336C5.95334 7.31336 5.47563 6.83565 5.47563 6.24636V6.20259Z"
                fill="white"
              />
            </svg>