<svg xmlns="http://www.w3.org/2000/svg" width="19" height="19" viewBox="0 0 16 19" fill="none">
  <path d="M8.09844 14.0151C8.57583 14.0151 9.03366 13.8345 9.37123 13.513C9.70879 13.1915 9.89844 12.7554 9.89844 12.3008C9.89844 11.8461 9.70879 11.4101 9.37123 11.0886C9.03366 10.7671 8.57583 10.5865 8.09844 10.5865C7.62105 10.5865 7.16321 10.7671 6.82565 11.0886C6.48808 11.4101 6.29844 11.8461 6.29844 12.3008C6.29844 12.7554 6.48808 13.1915 6.82565 13.513C7.16321 13.8345 7.62105 14.0151 8.09844 14.0151ZM13.4984 6.30078C13.9758 6.30078 14.4337 6.48139 14.7712 6.80288C15.1088 7.12438 15.2984 7.56041 15.2984 8.01507V16.5865C15.2984 17.0412 15.1088 17.4772 14.7712 17.7987C14.4337 18.1202 13.9758 18.3008 13.4984 18.3008H2.69844C2.22105 18.3008 1.76321 18.1202 1.42565 17.7987C1.08808 17.4772 0.898438 17.0412 0.898438 16.5865V8.01507C0.898438 7.56041 1.08808 7.12438 1.42565 6.80288C1.76321 6.48139 2.22105 6.30078 2.69844 6.30078H3.59844V4.5865C3.59844 3.44985 4.07254 2.35977 4.91646 1.55604C5.76037 0.752311 6.90496 0.300781 8.09844 0.300781C8.68939 0.300781 9.27455 0.411635 9.82051 0.627012C10.3665 0.842389 10.8626 1.15807 11.2804 1.55604C11.6983 1.954 12.0297 2.42646 12.2559 2.94642C12.482 3.46639 12.5984 4.02369 12.5984 4.5865V6.30078H13.4984ZM8.09844 2.01507C7.38235 2.01507 6.6956 2.28598 6.18925 2.76822C5.6829 3.25046 5.39844 3.90451 5.39844 4.5865V6.30078H10.7984V4.5865C10.7984 3.90451 10.514 3.25046 10.0076 2.76822C9.50128 2.28598 8.81452 2.01507 8.09844 2.01507Z" />
</svg>