<svg xmlns="http://www.w3.org/2000/svg" viewBox="0 0 211 34" fill="">
  <path d="M32 0H2C0.89543 0 0 0.89543 0 2V32C0 33.1046 0.895432 34 2 34H32C33.1046 34 34 33.1046 34 32V2C34 0.895431 33.1046 0 32 0Z"/>
  <path d="M13.2201 9.78906L15.9222 12.4261L9.50275 18.7658L15.167 24.5328L21.6556 18.0441L24.2339 20.6602L12.6453 32.2508L10.0776 29.7523C10.7426 29.1771 11.2538 28.4453 11.5649 27.623C12.0684 26.2615 12.1481 24.2181 11.0573 23.0979C9.71463 21.7196 6.62239 21.7615 4.30215 24.0104L1.73438 21.342L13.2201 9.78906Z" fill="white"/>
  <path d="M21.9684 1.12891C22.837 1.94847 23.7041 2.77013 24.5698 3.59389C22.1048 5.48196 22.0733 8.87419 23.6929 10.4161C25.2537 11.9035 28.4865 11.7881 30.3116 9.43642L32.913 12.0378L25.5075 19.4684L22.6964 16.7412L24.9034 14.5237L19.3524 9.18049L17.3049 11.1776L14.6406 8.42105L21.9684 1.12891Z" fill="white"/>
  <path d="M19.405 11.3645L17.8281 12.9414L21.151 16.2642L22.7278 14.6874L19.405 11.3645Z" fill="white"/>
  <path d="M16.804 13.8679L11.6328 19.0391L15.0476 22.4539L20.2188 17.2827L16.804 13.8679Z" fill="white"/>
  <path d="M4.17188 21.6333L4.32082 21.4844" stroke="#F1592A" stroke-miterlimit="10"/>
  <path d="M4.61719 21.1828L13.4869 12.2773" stroke="#F1592A" stroke-miterlimit="10" stroke-dasharray="2.03 2.03"/>
  <path d="M13.6406 12.1255L13.7875 11.9766" stroke="#F1592A" stroke-miterlimit="10"/>
  <path d="M12.6641 30.0964L12.8088 29.9453" stroke="#F1592A" stroke-miterlimit="10"/>
  <path d="M13.1094 29.6279L21.805 20.5547" stroke="#F1592A" stroke-miterlimit="10" stroke-dasharray="2.03 2.03"/>
  <path d="M21.9453 20.4089L22.0922 20.2578" stroke="#F1592A" stroke-miterlimit="10"/>
  <path d="M24.8984 17.7797L25.0474 17.6328" stroke="#F1592A" stroke-miterlimit="10"/>
  <path d="M25.3438 17.3518L30.9471 11.8281" stroke="#F1592A" stroke-miterlimit="10" stroke-dasharray="1.92 1.92"/>
  <path d="M31.0781 11.688L31.2292 11.5391" stroke="#F1592A" stroke-miterlimit="10"/>
  <path d="M16.3594 9.26795L16.5083 9.12109" stroke="#F1592A" stroke-miterlimit="10"/>
  <path d="M16.7891 8.83617L22.3924 3.3125" stroke="#F1592A" stroke-miterlimit="10" stroke-dasharray="1.92 1.92"/>
  <path d="M22.5391 3.17029L22.688 3.02344" stroke="#F1592A" stroke-miterlimit="10"/>
  <path d="M58.5423 15.1617C58.5423 18.4973 57.0927 25.1497 49.2677 25.1497C44.5958 25.1497 42.5 22.6637 42.5 18.6463C42.5 14.6876 44.665 8.543 51.6614 8.543C55.8718 8.53251 58.5423 10.9031 58.5423 15.1617ZM48.439 19.326C48.439 20.6623 48.7139 21.3295 49.681 21.3295C51.9362 21.3295 52.6494 15.1848 52.6494 14.2408C52.6494 12.8373 52.3516 12.3758 51.4075 12.3758C49.3139 12.3758 48.439 17.8533 48.439 19.326ZM54.7683 22.3196L58.4962 24.4364L55.9641 27.6356L50.9292 24.7825L54.7683 22.3196Z" fill="#282E2C"/>
  <path d="M72.7025 20.7047C72.2199 22.9829 72.0353 24.0402 71.943 24.7325H66.4739C66.473 24.3621 66.5039 23.9922 66.5662 23.627C65.7837 24.4661 64.9551 25.0304 63.3208 25.0304C60.7426 25.0304 59.7062 23.6731 60.3062 20.8641L62.0999 12.4727H67.7158L66.0816 20.1361C65.9201 20.8725 66.0355 21.1851 66.4739 21.1851C66.8641 21.1851 67.0718 20.7949 67.2564 19.9662L68.8676 12.4748H74.4835L72.7025 20.7047Z" fill="#282E2C"/>
  <path d="M77.5295 12.4753H83.1224L80.5211 24.7436H74.9219L77.5295 12.4753ZM78.4274 8.33203H84.0119L83.3217 11.5313H77.7393L78.4274 8.33203Z" fill="#282E2C"/>
  <path d="M96.8198 20.4314C96.0834 23.0558 94.1723 25.0341 89.9619 25.0341C85.976 25.0341 84.4844 22.8943 84.4844 20.0622C84.4844 16.6112 86.4857 12.168 91.9632 12.168C95.2548 12.168 97.6946 13.6868 97.4638 17.1399H92.2255C92.4101 16.0574 92.4562 15.3441 91.8332 15.3441C90.7528 15.3441 90.0626 19.7874 90.0626 20.937C90.0626 21.7657 90.3143 21.9041 90.5913 21.9041C91.1661 21.9041 91.3507 21.2601 91.6045 20.4356L96.8198 20.4314Z" fill="#282E2C"/>
  <path d="M105.65 16.7492C106.455 15.5513 107.538 13.6654 108.274 12.4675H114.373C112.946 14.171 111.436 15.8975 109.999 17.4856C110.628 19.6023 111.335 22.2036 111.956 24.7358H106.185C105.91 23.3071 105.587 21.5365 105.448 20.9596C105.264 21.1694 104.92 21.5365 104.574 21.8806L103.944 24.7358H98.3828L101.874 8.32422H107.443L105.65 16.7492Z" fill="#282E2C"/>
  <path d="M124.595 12.8599H120.844L121.683 8.94531H134.918L134.079 12.8599H130.372L127.84 24.7359H122.065L124.595 12.8599Z" fill="#282E2C"/>
  <path d="M136.633 12.478H142.225L139.635 24.7358H134.031L136.633 12.478ZM137.537 8.32422H143.13L142.439 11.5235H136.84L137.537 8.32422Z" fill="#282E2C"/>
  <path d="M155.916 20.4314C155.179 23.0558 153.268 25.0341 149.056 25.0341C145.07 25.0341 143.578 22.8943 143.578 20.0622C143.578 16.6112 145.582 12.168 151.059 12.168C154.351 12.168 156.79 13.6868 156.56 17.1399H151.315C151.5 16.0574 151.546 15.3441 150.925 15.3441C149.842 15.3441 149.152 19.7874 149.152 20.937C149.152 21.7657 149.406 21.9041 149.681 21.9041C150.258 21.9041 150.442 21.2601 150.694 20.4356L155.916 20.4314Z" fill="#282E2C"/>
  <path d="M164.758 16.7492C165.563 15.5513 166.646 13.6654 167.382 12.4675H173.481C172.054 14.171 170.544 15.8975 169.109 17.4856C169.738 19.6023 170.443 22.2036 171.064 24.7358H165.288C165.011 23.3071 164.688 21.5365 164.552 20.9596C164.367 21.1694 164.021 21.5365 163.677 21.8806L163.048 24.7358H157.484L160.984 8.32422H166.553L164.758 16.7492Z" fill="#282E2C"/>
  <path d="M178.698 19.6241C178.597 19.9842 178.544 20.3558 178.538 20.7296C178.538 21.466 178.79 21.81 179.252 21.81C179.78 21.81 180.034 21.4198 180.24 20.9352H185.627C184.96 22.8002 183.462 25.0323 178.929 25.0323C174.326 25.0323 173.055 22.5695 173.055 19.7877C173.055 17.2325 174.55 12.1221 180.51 12.1683C184.954 12.1914 186.384 14.5389 186.384 17.2031C186.363 18.021 186.239 18.8329 186.015 19.6199L178.698 19.6241ZM180.909 17.0227C181.01 16.695 181.065 16.3545 181.071 16.0115C181.071 15.5269 180.909 15.229 180.494 15.229C179.919 15.229 179.527 15.8039 179.252 17.0227H180.909Z" fill="#282E2C"/>
  <path d="M189.187 12.4761H190.706L191.373 9.53906H196.805L196.161 12.4761H197.818L197.082 15.9291H195.426L194.436 20.4395C194.277 21.1297 194.413 21.3836 195.082 21.3836C195.363 21.3834 195.643 21.3679 195.921 21.3374L195.229 24.5828C194.323 24.8364 193.387 24.9677 192.445 24.973C189.131 24.973 188.187 23.8695 188.831 20.8318L189.88 15.9291H188.453L189.187 12.4761Z" fill="#282E2C"/>
  <path d="M203.139 20.7545C203.162 21.4447 203.532 21.858 204.176 21.858C204.751 21.858 205.051 21.6734 205.051 21.1909C205.051 20.7545 204.658 20.5615 203.624 20.2468C200.815 19.3489 199.411 18.2455 199.411 16.3112C199.411 14.4232 200.67 12.168 205.12 12.168C209.607 12.168 210.874 14.3791 210.851 16.1036H206.179C206.156 15.5057 205.902 15.0001 205.189 15.0001C204.56 15.0001 204.43 15.2518 204.43 15.598C204.43 15.9441 204.849 16.1728 206.108 16.6112C209.045 17.6245 210.304 18.6587 210.304 20.6853C210.304 22.5482 209.154 25.0341 204.159 25.0341C199.625 25.0341 198.268 22.6174 198.381 20.7545H203.139Z" fill="#282E2C"/>
  <path d="M78.3485 8.26562L84.0253 8.32017L83.3267 11.5236H77.7422L78.3485 8.26562Z"  />
  <path d="M137.529 8.32422H143.122L142.492 11.5235H136.828C137.062 10.4577 137.295 9.39133 137.529 8.32422Z"  />
</svg>