<svg xmlns="http://www.w3.org/2000/svg"  viewBox="0 0 180 29" fill="">
  <path d="M27 0H2C0.895431 0 0 0.89543 0 2V27C0 28.1046 0.89543 29 2 29H27C28.1046 29 29 28.1046 29 27V2C29 0.895431 28.1046 0 27 0Z" />
  <path d="M11.2733 8.34766L13.5779 10.5969L8.10253 16.0043L12.9338 20.9232L18.4682 15.3888L20.6673 17.6201L10.783 27.5062L8.59281 25.3751C9.16003 24.8845 9.59605 24.2603 9.86146 23.5589C10.2909 22.3976 10.3589 20.6548 9.42843 19.6993C8.28325 18.5237 5.64575 18.5595 3.66673 20.4777L1.47656 18.2016L11.2733 8.34766Z" fill="white"/>
  <path d="M18.7346 0.960938C19.4754 1.65998 20.215 2.36081 20.9534 3.06342C18.8509 4.67384 18.824 7.56721 20.2054 8.88238C21.5367 10.151 24.2941 10.0526 25.8508 8.04676L28.0696 10.2656L21.7532 16.6034L19.3555 14.2773L21.2379 12.3859L16.5033 7.82846L14.7568 9.53192L12.4844 7.18071L18.7346 0.960938Z" fill="white"/>
  <path d="M16.5559 9.69409L15.2109 11.0391L18.0451 13.8733L19.3901 12.5283L16.5559 9.69409Z" fill="white"/>
  <path d="M14.3326 11.8315L9.92188 16.2422L12.8345 19.1548L17.2452 14.7441L14.3326 11.8315Z" fill="white"/>
  <path d="M3.55469 18.4513L3.68173 18.3242" stroke="#F1592A" stroke-miterlimit="10"/>
  <path d="M3.9375 18.0685L11.5029 10.4727" stroke="#F1592A" stroke-miterlimit="10" stroke-dasharray="2.03 2.03"/>
  <path d="M11.6328 10.3419L11.7581 10.2148" stroke="#F1592A" stroke-miterlimit="10"/>
  <path d="M10.8047 25.6679L10.9282 25.5391" stroke="#F1592A" stroke-miterlimit="10"/>
  <path d="M11.1797 25.2702L18.5965 17.5312" stroke="#F1592A" stroke-miterlimit="10" stroke-dasharray="2.03 2.03"/>
  <path d="M18.7188 17.4062L18.844 17.2773" stroke="#F1592A" stroke-miterlimit="10"/>
  <path d="M21.2344 15.1682L21.3614 15.043" stroke="#F1592A" stroke-miterlimit="10"/>
  <path d="M21.6094 14.8012L26.3887 10.0898" stroke="#F1592A" stroke-miterlimit="10" stroke-dasharray="1.92 1.92"/>
  <path d="M26.5156 9.96688L26.6445 9.83984" stroke="#F1592A" stroke-miterlimit="10"/>
  <path d="M13.9531 7.9026L14.0802 7.77734" stroke="#F1592A" stroke-miterlimit="10"/>
  <path d="M14.3203 7.53558L19.0997 2.82422" stroke="#F1592A" stroke-miterlimit="10" stroke-dasharray="1.92 1.92"/>
  <path d="M19.2188 2.70729L19.3458 2.58203" stroke="#F1592A" stroke-miterlimit="10"/>
  <path d="M49.9332 14.6767C49.9332 17.5217 48.6967 23.1958 42.0224 23.1958C38.0376 23.1958 36.25 21.0754 36.25 17.6488C36.25 14.2723 38.0966 9.03128 44.0641 9.03128C47.6553 9.02233 49.9332 11.0443 49.9332 14.6767ZM41.3156 18.2285C41.3156 19.3684 41.5501 19.9374 42.3749 19.9374C44.2985 19.9374 44.9069 14.6964 44.9069 13.8912C44.9069 12.6941 44.6528 12.3004 43.8476 12.3004C42.0618 12.3004 41.3156 16.9724 41.3156 18.2285ZM46.7141 20.7819L49.8938 22.5874L47.7341 25.3162L43.4396 22.8826L46.7141 20.7819Z" fill="white"/>
  <path d="M62.0114 19.4081C61.5998 21.3514 61.4424 22.2532 61.3636 22.8437H56.6988C56.6981 22.5277 56.7244 22.2122 56.7775 21.9007C56.1101 22.6164 55.4033 23.0978 54.0094 23.0978C51.8103 23.0978 50.9264 21.9401 51.4381 19.5441L52.968 12.3867H57.7581L56.3642 18.9232C56.2264 19.5513 56.3248 19.8179 56.6988 19.8179C57.0316 19.8179 57.2088 19.4851 57.3662 18.7783L58.7404 12.3885H63.5305L62.0114 19.4081Z" fill="white"/>
  <path d="M66.1304 12.3855H70.9008L68.682 22.8496H63.9062L66.1304 12.3855ZM66.8963 8.85156H71.6595L71.0708 11.5803H66.3093L66.8963 8.85156Z" fill="white"/>
  <path d="M82.5761 19.1693C81.948 21.4078 80.3179 23.0952 76.7267 23.0952C73.3269 23.0952 72.0547 21.27 72.0547 18.8544C72.0547 15.9109 73.7617 12.1211 78.4337 12.1211C81.2412 12.1211 83.3222 13.4166 83.1254 16.3618H78.6574C78.8149 15.4385 78.8542 14.8302 78.3228 14.8302C77.4013 14.8302 76.8126 18.62 76.8126 19.6006C76.8126 20.3074 77.0273 20.4255 77.2635 20.4255C77.7538 20.4255 77.9112 19.8761 78.1277 19.1729L82.5761 19.1693Z" fill="white"/>
  <path d="M90.1046 16.0298C90.7917 15.0081 91.715 13.3994 92.343 12.3777H97.5447C96.3279 13.8307 95.0396 15.3033 93.8139 16.6578C94.3507 18.4633 94.9537 20.6821 95.4833 22.8418H90.5608C90.3264 21.6233 90.0509 20.1131 89.9328 19.621C89.7753 19.7999 89.4819 20.1131 89.1866 20.4065L88.6498 22.8418H83.9062L86.8837 8.84375H91.6345L90.1046 16.0298Z" fill="white"/>
  <path d="M106.27 12.7139H103.07L103.786 9.375H115.075L114.359 12.7139H111.198L109.038 22.8434H104.112L106.27 12.7139Z" fill="white"/>
  <path d="M116.539 12.3867H121.31L119.1 22.8418H114.32L116.539 12.3867ZM117.31 8.84375H122.081L121.492 11.5725H116.716L117.31 8.84375Z" fill="white"/>
  <path d="M132.992 19.1693C132.364 21.4078 130.734 23.0952 127.141 23.0952C123.741 23.0952 122.469 21.27 122.469 18.8544C122.469 15.9109 124.178 12.1211 128.85 12.1211C131.657 12.1211 133.738 13.4166 133.541 16.3618H129.068C129.225 15.4385 129.265 14.8302 128.735 14.8302C127.812 14.8302 127.223 18.62 127.223 19.6006C127.223 20.3074 127.44 20.4255 127.674 20.4255C128.166 20.4255 128.324 19.8761 128.538 19.1729L132.992 19.1693Z" fill="white"/>
  <path d="M140.524 16.0298C141.211 15.0081 142.134 13.3994 142.762 12.3777H147.964C146.747 13.8307 145.459 15.3033 144.235 16.6578C144.772 18.4633 145.373 20.6821 145.903 22.8418H140.977C140.741 21.6233 140.465 20.1131 140.349 19.621C140.191 19.7999 139.896 20.1131 139.602 20.4065L139.066 22.8418H134.32L137.305 8.84375H142.056L140.524 16.0298Z" fill="white"/>
  <path d="M152.423 18.4846C152.337 18.7918 152.291 19.1087 152.287 19.4276C152.287 20.0557 152.501 20.3491 152.895 20.3491C153.346 20.3491 153.563 20.0163 153.738 19.603H158.333C157.764 21.1937 156.486 23.0976 152.62 23.0976C148.694 23.0976 147.609 20.9969 147.609 18.6242C147.609 16.4447 148.885 12.0859 153.969 12.1253C157.759 12.1449 158.979 14.1472 158.979 16.4197C158.961 17.1173 158.855 17.8098 158.664 18.481L152.423 18.4846ZM154.309 16.2658C154.395 15.9863 154.441 15.6959 154.446 15.4033C154.446 14.99 154.309 14.7359 153.954 14.7359C153.464 14.7359 153.13 15.2262 152.895 16.2658H154.309Z" fill="white"/>
  <path d="M161.368 12.3879H162.664L163.233 9.88281H167.866L167.316 12.3879H168.73L168.102 15.3332H166.69L165.845 19.1803C165.709 19.769 165.826 19.9855 166.397 19.9855C166.636 19.9853 166.875 19.9722 167.112 19.9461L166.522 22.7142C165.749 22.9306 164.95 23.0425 164.147 23.0471C161.32 23.0471 160.515 22.1059 161.064 19.5149L161.959 15.3332H160.742L161.368 12.3879Z" fill="white"/>
  <path d="M173.267 19.4449C173.287 20.0336 173.601 20.3861 174.151 20.3861C174.641 20.3861 174.897 20.2286 174.897 19.8171C174.897 19.4449 174.562 19.2803 173.68 19.0119C171.284 18.246 170.087 17.3048 170.087 15.6551C170.087 14.0446 171.161 12.1211 174.956 12.1211C178.783 12.1211 179.864 14.0071 179.845 15.4779H175.86C175.84 14.968 175.623 14.5367 175.015 14.5367C174.478 14.5367 174.367 14.7514 174.367 15.0467C174.367 15.3419 174.725 15.537 175.799 15.9109C178.304 16.7752 179.377 17.6573 179.377 19.3859C179.377 20.9748 178.397 23.0952 174.136 23.0952C170.27 23.0952 169.112 21.0338 169.209 19.4449H173.267Z" fill="white"/>
  <path d="M66.8296 8.79297L71.6716 8.83949L71.0757 11.5718H66.3125L66.8296 8.79297Z" />
  <path d="M117.309 8.84375H122.079L121.542 11.5725H116.711C116.91 10.6635 117.109 9.75393 117.309 8.84375Z"/>
</svg>