<svg width="25" height="24" viewBox="0 0 25 24" fill="none" xmlns="http://www.w3.org/2000/svg">
<g id="Group">
<path id="Vector" d="M15.6739 0C14.1632 0 12.9443 -1.64675e-08 11.9861 0.129299C10.9915 0.261913 10.1538 0.549243 9.48856 1.21342C8.90948 1.7936 8.61552 2.5064 8.46191 3.34408C8.31272 4.15855 8.28399 5.15426 8.27736 6.35C8.27618 6.56982 8.36238 6.7811 8.51699 6.93737C8.6716 7.09364 8.88195 7.18208 9.10177 7.18326C9.32159 7.18443 9.53288 7.09823 9.68915 6.94362C9.84541 6.78901 9.93386 6.57866 9.93503 6.35884C9.94166 5.15095 9.97261 4.29448 10.092 3.64357C10.208 3.01807 10.3926 2.65449 10.6611 2.38595C10.9672 2.07983 11.3971 1.88091 12.2083 1.7715C13.0426 1.65988 14.1488 1.65767 15.7347 1.65767H16.8398C18.4268 1.65767 19.533 1.65988 20.3673 1.7715C21.1785 1.88091 21.6073 2.08093 21.9145 2.38595C22.2195 2.69206 22.4184 3.12085 22.5278 3.93311C22.6406 4.76637 22.6417 5.87369 22.6417 7.45953V16.3005C22.6417 17.8863 22.6406 18.9925 22.5278 19.828C22.4184 20.6392 22.2195 21.0679 21.9134 21.3741C21.6073 21.6802 21.1785 21.8791 20.3673 21.9885C19.533 22.1001 18.4268 22.1023 16.8398 22.1023H15.7347C14.1488 22.1023 13.0426 22.1001 12.2072 21.9885C11.3971 21.8791 10.9672 21.6791 10.6611 21.3741C10.3926 21.1044 10.208 20.7419 10.092 20.1164C9.97261 19.4655 9.94166 18.6091 9.93503 17.4012C9.93445 17.2923 9.91244 17.1847 9.87025 17.0843C9.82806 16.984 9.76652 16.8929 9.68915 16.8164C9.61177 16.7398 9.52007 16.6793 9.41929 16.6381C9.31851 16.597 9.21062 16.5762 9.10177 16.5767C8.99293 16.5773 8.88526 16.5993 8.78493 16.6415C8.68459 16.6837 8.59355 16.7453 8.51699 16.8226C8.44044 16.9 8.37987 16.9917 8.33876 17.0925C8.29764 17.1933 8.27678 17.3012 8.27736 17.41C8.28399 18.6057 8.31272 19.6014 8.46191 20.4159C8.61663 21.2536 8.90948 21.9664 9.48967 22.5466C10.1538 23.2119 10.9926 23.497 11.9872 23.6318C12.9443 23.76 14.1632 23.76 15.6739 23.76H16.9006C18.4124 23.76 19.6302 23.76 20.5884 23.6318C21.583 23.497 22.4206 23.2119 23.0859 22.5466C23.7512 21.8813 24.0363 21.0436 24.1712 20.049C24.2993 19.0909 24.2993 17.8719 24.2993 16.3612V7.39875C24.2993 5.88806 24.2993 4.66912 24.1712 3.71098C24.0374 2.71638 23.7512 1.8787 23.0859 1.21342C22.4206 0.548138 21.583 0.263018 20.5884 0.129299C19.6302 -1.64675e-08 18.4113 0 16.9006 0H15.6739Z" fill="#5F6368"/>
<path id="Vector_2" d="M15.735 11.0511C15.9549 11.0511 16.1657 11.1384 16.3211 11.2939C16.4766 11.4493 16.5639 11.6601 16.5639 11.8799C16.5639 12.0998 16.4766 12.3106 16.3211 12.466C16.1657 12.6215 15.9549 12.7088 15.735 12.7088H3.60859L5.77572 14.5654C5.94279 14.7084 6.04619 14.9119 6.06319 15.1312C6.08018 15.3505 6.00937 15.5675 5.86634 15.7346C5.72331 15.9016 5.51978 16.0051 5.30051 16.022C5.08123 16.039 4.86419 15.9682 4.69713 15.8252L0.829219 12.5099C0.73823 12.432 0.665178 12.3354 0.615088 12.2267C0.564999 12.118 0.539062 11.9997 0.539062 11.8799C0.539062 11.7602 0.564999 11.6419 0.615088 11.5332C0.665178 11.4244 0.73823 11.3278 0.829219 11.25L4.69713 7.93467C4.77985 7.86385 4.87571 7.81002 4.97924 7.77624C5.08277 7.74247 5.19193 7.72942 5.30051 7.73783C5.40908 7.74625 5.51493 7.77596 5.61201 7.82529C5.7091 7.87461 5.79552 7.94257 5.86634 8.02529C5.93717 8.10802 5.991 8.20388 6.02478 8.3074C6.05855 8.41093 6.0716 8.5201 6.06319 8.62867C6.05477 8.73724 6.02505 8.84309 5.97573 8.94018C5.92641 9.03726 5.85845 9.12368 5.77572 9.19451L3.60969 11.0511H15.735Z" fill="#5F6368"/>
</g>
</svg>
