<svg width="117" height="45" viewBox="0 0 117 45" fill="none" xmlns="http://www.w3.org/2000/svg">
<path d="M32.2578 44.6304C34.7038 34.3492 32.8795 22.095 52.1757 8.24219C52.465 8.33258 52.8862 9.07636 52.7289 9.57737C51.176 13.7869 41.1486 17.7331 38.8269 44.6304C36.995 44.6304 34.3866 44.6304 32.2578 44.6304Z" fill="#EB2127"/>
<path d="M56.0665 3.84163C55.8559 3.71251 55.6529 3.58855 55.4499 3.46717C54.0899 2.63817 53.5291 2.31018 52.1666 1.48376C52.0474 1.41145 52.0474 1.34431 52.1641 1.272C52.3747 1.14803 52.5878 1.02407 52.7959 0.894941C52.8796 0.84329 52.9608 0.83296 53.0572 0.858785C54.5771 1.28491 57.1397 2.05451 57.4417 2.14231C57.5051 2.16039 57.5406 2.1449 57.5812 2.09841C58.0963 1.54575 58.378 1.28232 58.9032 0.739988C59.3371 0.290624 60.2074 -0.114837 60.862 0.0297861C60.9559 0.0452814 60.9889 0.0788559 61.0041 0.17441C61.0904 0.783893 60.7148 1.65938 60.2759 2.13715C59.8141 2.63817 59.3802 3.0617 58.9387 3.48266C58.893 3.52656 58.8803 3.56272 58.8981 3.62728C59.398 5.47639 59.6796 6.24857 60.182 8.09768C60.2099 8.20098 60.1998 8.29137 60.1465 8.38176C60.0196 8.59353 59.9004 8.81046 59.776 9.02482C59.7126 9.13328 59.6441 9.13587 59.5806 9.0274C58.926 7.9169 58.7687 7.62507 58.1141 6.51199C57.8375 6.03939 57.5584 5.56678 57.2818 5.09417C57.2742 5.08126 57.2666 5.07093 57.2539 5.05027C57.1651 5.13291 57.0763 5.21039 56.99 5.29045C56.3126 5.9051 55.6351 6.51974 54.9577 7.13181C54.9069 7.17829 54.8993 7.21961 54.9145 7.2816C55.016 7.72579 55.115 8.16741 55.219 8.61161C55.2393 8.69684 55.2215 8.76914 55.1581 8.83113C55.0769 8.91377 54.9957 8.99641 54.9145 9.07905C54.846 9.14878 54.808 9.14362 54.7597 9.05581C54.5111 8.59353 54.0188 7.46496 53.9199 7.24286C53.7245 7.14988 52.6005 6.64112 52.1438 6.38803C52.0423 6.33122 52.0372 6.29764 52.1209 6.215C52.1971 6.13753 52.2757 6.06005 52.3493 5.98257C52.4127 5.91543 52.4812 5.89735 52.57 5.91801C53.0065 6.02131 53.4403 6.12203 53.8768 6.22791C53.9402 6.24341 53.9783 6.23308 54.0239 6.18143C54.6912 5.41441 55.3611 4.65256 56.0284 3.88812C56.0386 3.87521 56.0487 3.8623 56.0665 3.84163Z" fill="#EB2127"/>
<path d="M11.8087 20.5979H3.75015V15.6859H14.5058V12.4551H1.92075C0.880449 12.4551 0 13.3925 0 14.5005V33.0148H3.75015V23.7331H9.79658C10.8876 23.7331 11.8061 22.8369 11.8061 21.7781V20.5979H11.8087Z" fill="#333333"/>
<path d="M16.7227 33.0148H30.5916V29.5697H20.5337V12.4551H18.6434C17.6031 12.4551 16.7227 13.3925 16.7227 14.5005V33.0148Z" fill="#333333"/>
<path d="M65.4024 20.5979H57.3439V15.6859H68.0996V12.4551H55.5145C54.4742 12.4551 53.5938 13.3925 53.5938 14.5005V33.0148H57.3439V23.7331H63.3929C64.4839 23.7331 65.4024 22.8369 65.4024 21.7781V20.5979Z" fill="#333333"/>
<path d="M79.9005 28.7297L81.2631 33.0167H85.2847L78.0356 12.457H74.7828C73.8414 12.457 73.2477 12.8651 72.9737 13.7044L66.1914 33.0167H70.2739L71.6365 28.7297H79.9005ZM75.7241 15.8118L78.8501 25.5919H72.6337L75.7241 15.8118Z" fill="#333333"/>
<path d="M99.5852 28.3965C99.6233 30.93 99.6994 31.6971 99.7603 31.8959L99.7679 31.9398C99.7958 32.353 99.8821 32.7068 100.024 33.0142H104.043C103.82 32.7068 103.691 32.3091 103.668 31.8417L103.485 27.7406C103.389 26.3047 103.193 25.3414 102.871 24.7112C102.48 24.1147 101.851 23.655 101.014 23.3606L100.402 23.1462L101.026 22.9706C102.924 22.436 103.97 20.7522 103.97 18.2342C103.97 14.239 101.986 12.457 97.5351 12.457H89.7176C88.6773 12.457 87.7969 13.3945 87.7969 14.5024V33.0167H91.6054V24.8739H96.2893C98.9103 24.8739 99.4305 25.7985 99.5852 28.3965ZM91.6105 15.6852H97.0226C99.0651 15.6852 100.103 16.6769 100.103 18.6345C100.103 20.667 99.0473 21.6148 96.7815 21.6148H91.613V15.6852H91.6105Z" fill="#333333"/>
<path d="M31.6458 12.3848H25.0234L34.7896 25.2769C35.2869 23.4897 35.9415 21.9402 36.8879 20.2977L31.6458 12.3848Z" fill="#333333"/>
<path d="M42.3477 44.6289V37.2479H43.4539V38.2965C43.9868 37.4855 44.7556 37.0801 45.7629 37.0801C46.1993 37.0801 46.6027 37.1601 46.9681 37.3203C47.3335 37.4804 47.6075 37.6896 47.7902 37.9504C47.9729 38.2112 48.0998 38.5186 48.1733 38.875C48.219 39.1074 48.2418 39.5128 48.2418 40.0913V44.6289H47.0138V40.1404C47.0138 39.6316 46.9656 39.2494 46.8717 38.9963C46.7753 38.7432 46.6053 38.5418 46.3617 38.392C46.1181 38.2422 45.8339 38.1673 45.5041 38.1673C44.9814 38.1673 44.5297 38.3378 44.1492 38.6761C43.7686 39.0144 43.5783 39.6549 43.5783 40.6001V44.6315H42.3477V44.6289Z" fill="#333333"/>
<path d="M53.086 43.512L53.2636 44.6173C52.9185 44.6922 52.609 44.7283 52.3349 44.7283C51.8884 44.7283 51.5433 44.656 51.2972 44.514C51.051 44.3694 50.8785 44.1808 50.777 43.9484C50.6781 43.7134 50.6273 43.2227 50.6273 42.4712V38.2255H49.7266V37.2518H50.6273V35.4234L51.8503 34.6719V37.2493H53.086V38.2229H51.8503V42.5383C51.8503 42.8947 51.8706 43.1246 51.9163 43.2253C51.9594 43.326 52.0304 43.4086 52.1269 43.468C52.2258 43.5274 52.3654 43.5584 52.5455 43.5584C52.6851 43.561 52.8627 43.5429 53.086 43.512Z" fill="#333333"/>
<path d="M59.5356 42.2536L60.8068 42.4137C60.6063 43.1678 60.2359 43.7567 59.6929 44.1725C59.1499 44.5883 58.4597 44.7974 57.6173 44.7974C56.5567 44.7974 55.7169 44.4643 55.0953 43.8006C54.4736 43.1369 54.1641 42.202 54.1641 41.0037C54.1641 39.7615 54.4787 38.7982 55.1054 38.1138C55.7347 37.4268 56.5491 37.0859 57.5488 37.0859C58.5181 37.0859 59.3097 37.4217 59.9263 38.0931C60.5403 38.7646 60.8474 39.7098 60.8474 40.9288C60.8474 41.0037 60.8448 41.1147 60.8397 41.2619H55.4327C55.4784 42.0728 55.7042 42.6927 56.1102 43.1239C56.5162 43.5552 57.0211 43.7696 57.625 43.7696C58.0766 43.7696 58.4597 43.6482 58.7794 43.408C59.0966 43.1653 59.3478 42.7805 59.5356 42.2536ZM55.4987 40.2315H59.5482C59.4924 39.6117 59.3402 39.1442 59.0839 38.8343C58.6932 38.3514 58.1857 38.1112 57.5615 38.1112C56.9982 38.1112 56.5212 38.3023 56.1381 38.6871C55.7524 39.0719 55.5393 39.5859 55.4987 40.2315Z" fill="#333333"/>
<path d="M62.6133 44.6289V37.2479H63.7196V38.3662C64.0012 37.8419 64.2625 37.4984 64.501 37.3306C64.7396 37.1627 65.0034 37.0801 65.2902 37.0801C65.7037 37.0801 66.1249 37.2144 66.5537 37.483L66.13 38.6425C65.8306 38.4617 65.5287 38.3714 65.2293 38.3714C64.9603 38.3714 64.7193 38.454 64.5061 38.6167C64.293 38.782 64.1407 39.0092 64.0494 39.3011C63.9124 39.7453 63.8439 40.2334 63.8439 40.7602V44.6237H62.6133V44.6289Z" fill="#333333"/>
<path d="M67.5625 44.6289V37.2479H68.6688V38.2965C69.2016 37.4855 69.9704 37.0801 70.9777 37.0801C71.4141 37.0801 71.8176 37.1601 72.183 37.3203C72.5483 37.4804 72.8224 37.6896 73.005 37.9504C73.1877 38.2112 73.3146 38.5186 73.3882 38.875C73.4338 39.1074 73.4567 39.5128 73.4567 40.0913V44.6289H72.2286V40.1404C72.2286 39.6316 72.1804 39.2494 72.0865 38.9963C71.9901 38.7432 71.8201 38.5418 71.5765 38.392C71.333 38.2422 71.0488 38.1673 70.7189 38.1673C70.1962 38.1673 69.7446 38.3378 69.364 38.6761C68.9834 39.0144 68.7931 39.6549 68.7931 40.6001V44.6315H67.5625V44.6289Z" fill="#333333"/>
<path d="M80.3513 43.7172C79.8972 44.1098 79.4582 44.3887 79.037 44.5514C78.6158 44.7141 78.1642 44.7942 77.6821 44.7942C76.8854 44.7942 76.2739 44.5953 75.8451 44.2002C75.4163 43.805 75.2031 43.2989 75.2031 42.6816C75.2031 42.3201 75.2843 41.9895 75.4442 41.6925C75.604 41.3955 75.8172 41.1528 76.0785 40.972C76.3398 40.7912 76.6342 40.6543 76.9615 40.5614C77.2025 40.4968 77.5679 40.4348 78.0551 40.3728C79.0472 40.2515 79.7779 40.1094 80.2473 39.9415C80.2524 39.7711 80.2549 39.66 80.2549 39.6161C80.2549 39.1074 80.1382 38.7484 79.9073 38.5392C79.5927 38.2551 79.1258 38.1157 78.5067 38.1157C77.9282 38.1157 77.5019 38.219 77.2279 38.4256C76.9539 38.6322 76.7484 38.9963 76.6164 39.5206L75.4137 39.3527C75.5228 38.8285 75.703 38.4075 75.9542 38.0847C76.2054 37.7619 76.5657 37.5139 77.0401 37.3409C77.5146 37.1679 78.0627 37.0801 78.6869 37.0801C79.306 37.0801 79.8084 37.155 80.1966 37.3022C80.5822 37.4494 80.869 37.6379 81.0491 37.8626C81.2318 38.0873 81.3587 38.3714 81.4322 38.7148C81.4728 38.9292 81.4931 39.3114 81.4931 39.8692V41.5376C81.4931 42.6997 81.5185 43.4357 81.5718 43.7431C81.6251 44.0504 81.7266 44.3474 81.8813 44.6289H80.5975C80.4706 44.3706 80.3894 44.0659 80.3513 43.7172ZM80.2499 40.9255C79.8033 41.1114 79.1334 41.269 78.2428 41.3981C77.7379 41.473 77.3801 41.5556 77.1721 41.6486C76.9615 41.7416 76.8016 41.8759 76.6875 42.0541C76.5733 42.2323 76.5175 42.4311 76.5175 42.6481C76.5175 42.9812 76.6418 43.2601 76.8904 43.4822C77.1391 43.7043 77.5019 43.8154 77.9789 43.8154C78.4534 43.8154 78.8746 43.7095 79.2425 43.5003C79.6104 43.2885 79.8819 43.0019 80.0545 42.6351C80.1864 42.3536 80.2524 41.9353 80.2524 41.3852V40.9255H80.2499Z" fill="#333333"/>
<path d="M86.3594 43.512L86.537 44.6173C86.1919 44.6922 85.8824 44.7283 85.6084 44.7283C85.1618 44.7283 84.8167 44.656 84.5706 44.514C84.3245 44.3694 84.1519 44.1808 84.0505 43.9484C83.9515 43.7134 83.9007 43.2227 83.9007 42.4712V38.2255H83V37.2518H83.9007V35.4234L85.1237 34.6719V37.2493H86.3594V38.2229H85.1237V42.5383C85.1237 42.8947 85.144 43.1246 85.1897 43.2253C85.2328 43.326 85.3039 43.4086 85.4003 43.468C85.4993 43.5274 85.6388 43.5584 85.819 43.5584C85.956 43.561 86.1361 43.5429 86.3594 43.512Z" fill="#333333"/>
<path d="M87.8477 35.8799V34.4414H89.0757V35.8799H87.8477ZM87.8477 44.6296V37.2486H89.0757V44.6296H87.8477Z" fill="#333333"/>
<path d="M90.7695 40.9384C90.7695 39.5722 91.1425 38.5599 91.8885 37.9013C92.5127 37.3538 93.2713 37.0801 94.1695 37.0801C95.1667 37.0801 95.9812 37.4132 96.613 38.0769C97.2448 38.7432 97.5619 39.66 97.5619 40.8325C97.5619 41.7829 97.4224 42.5293 97.1433 43.0742C96.8642 43.6191 96.4557 44.0426 95.9203 44.3422C95.3849 44.6444 94.8013 44.7942 94.1695 44.7942C93.1546 44.7942 92.3325 44.4636 91.7083 43.7999C91.0842 43.1387 90.7695 42.1858 90.7695 40.9384ZM92.0331 40.9384C92.0331 41.8836 92.2361 42.5912 92.6421 43.0613C93.048 43.5313 93.558 43.7663 94.1721 43.7663C94.781 43.7663 95.2885 43.5287 95.6945 43.0561C96.1004 42.5835 96.3009 41.863 96.3009 40.8945C96.3009 39.9829 96.0979 39.2907 95.6894 38.8207C95.2809 38.3507 94.776 38.1157 94.1695 38.1157C93.5555 38.1157 93.0455 38.3507 92.6395 38.8181C92.2361 39.2882 92.0331 39.9932 92.0331 40.9384Z" fill="#333333"/>
<path d="M99.2852 44.6289V37.2479H100.391V38.2965C100.924 37.4855 101.693 37.0801 102.7 37.0801C103.137 37.0801 103.54 37.1601 103.906 37.3203C104.271 37.4804 104.545 37.6896 104.728 37.9504C104.91 38.2112 105.037 38.5186 105.111 38.875C105.157 39.1074 105.179 39.5128 105.179 40.0913V44.6289H103.951V40.1404C103.951 39.6316 103.903 39.2494 103.809 38.9963C103.713 38.7432 103.543 38.5418 103.299 38.392C103.056 38.2422 102.771 38.1673 102.442 38.1673C101.919 38.1673 101.467 38.3378 101.087 38.6761C100.706 39.0144 100.516 39.6549 100.516 40.6001V44.6315H99.2852V44.6289Z" fill="#333333"/>
<path d="M112.074 43.7172C111.62 44.1098 111.181 44.3887 110.76 44.5514C110.338 44.7141 109.887 44.7942 109.405 44.7942C108.608 44.7942 107.997 44.5953 107.568 44.2002C107.139 43.805 106.926 43.2989 106.926 42.6816C106.926 42.3201 107.007 41.9895 107.167 41.6925C107.327 41.3955 107.54 41.1528 107.801 40.972C108.062 40.7912 108.357 40.6543 108.684 40.5614C108.925 40.4968 109.291 40.4348 109.778 40.3728C110.77 40.2515 111.501 40.1094 111.97 39.9415C111.975 39.7711 111.978 39.66 111.978 39.6161C111.978 39.1074 111.861 38.7484 111.63 38.5392C111.315 38.2551 110.848 38.1157 110.229 38.1157C109.651 38.1157 109.225 38.219 108.951 38.4256C108.677 38.6322 108.471 38.9963 108.339 39.5206L107.136 39.3527C107.245 38.8285 107.426 38.4075 107.677 38.0847C107.928 37.7619 108.288 37.5139 108.763 37.3409C109.237 37.1679 109.785 37.0801 110.41 37.0801C111.029 37.0801 111.531 37.155 111.919 37.3022C112.305 37.4494 112.592 37.6379 112.772 37.8626C112.954 38.0873 113.081 38.3714 113.155 38.7148C113.195 38.9292 113.216 39.3114 113.216 39.8692V41.5376C113.216 42.6997 113.241 43.4357 113.294 43.7431C113.348 44.0504 113.449 44.3474 113.604 44.6289H112.32C112.193 44.3706 112.112 44.0659 112.074 43.7172ZM111.972 40.9255C111.526 41.1114 110.856 41.269 109.965 41.3981C109.461 41.473 109.103 41.5556 108.895 41.6486C108.684 41.7416 108.524 41.8759 108.41 42.0541C108.296 42.2323 108.24 42.4311 108.24 42.6481C108.24 42.9812 108.364 43.2601 108.613 43.4822C108.862 43.7043 109.225 43.8154 109.702 43.8154C110.176 43.8154 110.597 43.7095 110.965 43.5003C111.333 43.2885 111.605 43.0019 111.777 42.6351C111.909 42.3536 111.975 41.9353 111.975 41.3852V40.9255H111.972Z" fill="#333333"/>
<path d="M115.371 44.6296V34.4414H116.599V44.6296H115.371Z" fill="#333333"/>
</svg>
