                <svg
                  xmlns="http://www.w3.org/2000/svg"
                  width="20"
                  height="19"
                  viewBox="0 0 13 19"
                  fill=""
                >
                  <path
                    d="M4.06125 15.2725V7.15002H2.7075V15.2725M6.99438 15.2725V7.15002H5.64062V15.2725M9.9275 15.2725V7.15002H8.57375V15.2725M10.8571 4.44252C11.8318 4.44252 12.635 5.23672 12.635 6.24752V16.175C12.635 17.1948 11.8318 17.98 10.8571 17.98C10.8571 18.5035 10.4329 18.8825 9.9275 18.8825C9.47625 18.8825 9.025 18.5035 9.025 17.98H3.61C3.61 18.5035 3.15875 18.8825 2.7075 18.8825C2.2021 18.8825 1.77792 18.5035 1.77792 17.98C0.803225 17.98 0 17.1948 0 16.175V6.24752C0 5.23672 0.803225 4.44252 1.77792 4.44252H3.61V1.73502C3.61 1.21157 4.02515 0.83252 4.5125 0.83252H8.1225C8.60985 0.83252 9.025 1.21157 9.025 1.73502V4.44252M4.96375 2.18627V4.44252H7.67125V2.18627M10.8571 16.175V6.24752H1.77792V16.175"
                    fill=""
                  />
                </svg>