<svg width="25" height="24" viewBox="0 0 25 24" fill="#5F6368" xmlns="http://www.w3.org/2000/svg">
<path id="Vector" d="M22.78 17.3901L24.0803 16.2586L22.9397 14.3013L21.2857 14.8557C20.9207 14.5502 20.5101 14.3126 20.0538 14.1429L19.7116 12.4457H17.4303L17.0881 14.1315C16.6318 14.3013 16.2212 14.5389 15.8562 14.8443L14.2022 14.2899L13.0615 16.2473L14.3619 17.3787C14.2706 17.9445 14.2706 18.2386 14.3619 18.8043L13.0615 19.9358L14.2022 21.8931L15.8562 21.3387C16.2212 21.6442 16.6318 21.8818 17.0881 22.0515L17.4303 23.76H19.7116L20.0538 22.0742C20.5101 21.9045 20.9207 21.6669 21.2857 21.3614L22.9397 21.9158L24.0803 19.9584L22.78 18.827C22.8712 18.2499 22.8712 17.9558 22.78 17.3901ZM18.5709 20.3657C17.3162 20.3657 16.2896 19.3474 16.2896 18.1029C16.2896 16.8583 17.3162 15.84 18.5709 15.84C19.8257 15.84 20.8523 16.8583 20.8523 18.1029C20.8523 19.3474 19.8257 20.3657 18.5709 20.3657ZM9.44562 4.52571V10.6467L12.1376 13.3169L13.3239 11.2917L11.7269 9.71897V4.52571H9.44562ZM20.8523 10.1829C20.8523 7.48219 19.7707 4.89215 17.8454 2.98249C15.9202 1.07283 13.309 0 10.5863 0C7.35821 0 4.48373 1.49349 2.60164 3.8016V1.13143H0.320312V7.92H7.16429V5.65714H4.03888C4.77458 4.61079 5.75387 3.7559 6.89369 3.165C8.0335 2.57411 9.30019 2.26464 10.5863 2.26286C14.9892 2.26286 18.5709 5.81554 18.5709 10.1829H20.8523ZM9.28593 18.001C5.87534 17.4466 3.18338 14.7199 2.69289 11.3143H0.388752C0.959084 16.4057 5.30501 20.3657 10.5863 20.3657H10.6661L9.28593 18.001Z" />
</svg>
