<svg xmlns="http://www.w3.org/2000/svg" width="15" height="24" viewBox="0 0 17 24" fill="#D9D9D9">
  <path d="M8.49902 11.4C7.6939 11.4 6.92176 11.0839 6.35245 10.5213C5.78314 9.95871 5.46331 9.19565 5.46331 8.4C5.46331 7.60435 5.78314 6.84129 6.35245 6.27868C6.92176 5.71607 7.6939 5.4 8.49902 5.4C9.30414 5.4 10.0763 5.71607 10.6456 6.27868C11.2149 6.84129 11.5347 7.60435 11.5347 8.4C11.5347 8.79397 11.4562 9.18407 11.3037 9.54805C11.1511 9.91203 10.9275 10.2427 10.6456 10.5213C10.3637 10.7999 10.0291 11.0209 9.66074 11.1716C9.29243 11.3224 8.89768 11.4 8.49902 11.4ZM8.49902 0C6.24468 0 4.08267 0.884997 2.48862 2.4603C0.894557 4.03561 -0.000976562 6.17218 -0.000976562 8.4C-0.000976562 14.7 8.49902 24 8.49902 24C8.49902 24 16.999 14.7 16.999 8.4C16.999 6.17218 16.1035 4.03561 14.5094 2.4603C12.9154 0.884997 10.7534 0 8.49902 0Z" />
</svg>