<svg xmlns="http://www.w3.org/2000/svg"   viewBox="0 0 107 107" fill="var(--primary-color)">
  <circle cx="53.5" cy="53.5" r="53.5" fill="var(--third-color)" />
  <path d="M70.1646 45.3425L59.2701 34.6837C59.1255 34.5423 58.9538 34.4302 58.7648 34.3538C58.5759 34.2774 58.3734 34.2381 58.169 34.2383H39.4926C38.6671 34.2383 37.8753 34.5591 37.2916 35.1303C36.7078 35.7014 36.3799 36.476 36.3799 37.2837V70.7829C36.3799 71.5906 36.7078 72.3652 37.2916 72.9363C37.8753 73.5074 38.6671 73.8283 39.4926 73.8283H67.5072C68.3327 73.8283 69.1244 73.5074 69.7082 72.9363C70.2919 72.3652 70.6199 71.5906 70.6199 70.7829V46.4198C70.62 46.2198 70.5799 46.0217 70.5018 45.8369C70.4237 45.652 70.3091 45.484 70.1646 45.3425ZM59.2701 62.0921C59.4147 62.2336 59.5294 62.4016 59.6077 62.5864C59.6859 62.7712 59.7262 62.9694 59.7262 63.1694C59.7262 63.3695 59.6859 63.5676 59.6077 63.7525C59.5294 63.9373 59.4147 64.1053 59.2701 64.2467C59.1255 64.3882 58.9538 64.5004 58.7649 64.577C58.576 64.6536 58.3735 64.693 58.169 64.693C57.9645 64.693 57.762 64.6536 57.573 64.577C57.3841 64.5004 57.2124 64.3882 57.0678 64.2467L53.4999 60.7541L49.9319 64.2467C49.7873 64.3882 49.6157 64.5004 49.4267 64.577C49.2378 64.6536 49.0353 64.693 48.8308 64.693C48.6263 64.693 48.4238 64.6536 48.2349 64.577C48.0459 64.5004 47.8743 64.3882 47.7297 64.2467C47.5851 64.1053 47.4704 63.9373 47.3921 63.7525C47.3138 63.5676 47.2736 63.3695 47.2736 63.1694C47.2736 62.9694 47.3138 62.7712 47.3921 62.5864C47.4704 62.4016 47.5851 62.2336 47.7297 62.0921L51.2996 58.6014L47.7297 55.1106C47.4376 54.8249 47.2736 54.4373 47.2736 54.0333C47.2736 53.6292 47.4376 53.2417 47.7297 52.956C48.0217 52.6703 48.4178 52.5097 48.8308 52.5097C49.2438 52.5097 49.6399 52.6703 49.9319 52.956L53.4999 56.4487L57.0678 52.956C57.2124 52.8145 57.3841 52.7023 57.573 52.6257C57.762 52.5491 57.9645 52.5097 58.169 52.5097C58.3735 52.5097 58.576 52.5491 58.7649 52.6257C58.9538 52.7023 59.1255 52.8145 59.2701 52.956C59.4147 53.0975 59.5294 53.2654 59.6077 53.4502C59.6859 53.6351 59.7262 53.8332 59.7262 54.0333C59.7262 54.2334 59.6859 54.4315 59.6077 54.6163C59.5294 54.8012 59.4147 54.9691 59.2701 55.1106L55.7002 58.6014L59.2701 62.0921ZM58.169 46.4198V38.045L66.729 46.4198H58.169Z" fill="var(--primary-color)" />
</svg>