<svg width="13" height="17" viewBox="0 0 13 17" fill="none" xmlns="http://www.w3.org/2000/svg">
<path d="M6.70059 7.2C7.4126 7.2 8.10862 6.98886 8.70064 6.59329C9.29265 6.19772 9.75408 5.63548 10.0266 4.97766C10.299 4.31985 10.3703 3.59601 10.2314 2.89768C10.0925 2.19934 9.74964 1.55789 9.24617 1.05442C8.7427 0.550948 8.10124 0.208081 7.40291 0.0691746C6.70458 -0.0697322 5.98074 0.00155981 5.32293 0.274035C4.66511 0.546511 4.10287 1.00793 3.7073 1.59995C3.31172 2.19197 3.10059 2.88799 3.10059 3.6C3.10166 4.55445 3.48129 5.4695 4.15619 6.1444C4.83108 6.8193 5.74614 7.19893 6.70059 7.2ZM6.70059 1.8C7.05659 1.8 7.4046 1.90557 7.70061 2.10336C7.99662 2.30114 8.22733 2.58226 8.36357 2.91117C8.49981 3.24008 8.53545 3.602 8.466 3.95116C8.39655 4.30033 8.22511 4.62106 7.97338 4.87279C7.72164 5.12453 7.40091 5.29596 7.05175 5.36542C6.70258 5.43487 6.34066 5.39922 6.01176 5.26298C5.68285 5.12675 5.40173 4.89604 5.20394 4.60003C5.00615 4.30402 4.90059 3.95601 4.90059 3.6C4.90106 3.12276 5.09086 2.6652 5.42832 2.32774C5.76578 1.99027 6.22334 1.80048 6.70059 1.8Z" fill="#434244"/>
<path d="M12.9054 12.1979L12.7156 11.8173C12.1571 10.7002 11.2985 9.76075 10.2361 9.10414C9.17363 8.44752 7.94935 8.09973 6.70039 8.09973C5.45143 8.09973 4.22715 8.44752 3.16472 9.10414C2.1023 9.76075 1.2437 10.7002 0.685151 11.8173L0.495341 12.1974C0.432801 12.3224 0.400289 12.4602 0.400391 12.6V15.3C0.400391 15.5387 0.495212 15.7676 0.663995 15.9364C0.832778 16.1052 1.0617 16.2 1.30039 16.2H12.1004C12.3391 16.2 12.568 16.1052 12.7368 15.9364C12.9056 15.7676 13.0004 15.5387 13.0004 15.3V12.6C13.0004 12.4604 12.9679 12.3227 12.9054 12.1979ZM11.2004 14.4H2.20039V12.8122L2.29534 12.6224C2.70444 11.8044 3.33323 11.1165 4.11125 10.6357C4.88927 10.1549 5.7858 9.90024 6.70039 9.90024C7.61498 9.90024 8.51151 10.1549 9.28953 10.6357C10.0676 11.1165 10.6963 11.8044 11.1054 12.6224L11.2004 12.8122V14.4Z" fill="#434244"/>
</svg>
