<svg width="50" height="38" viewBox="0 0 609 484" fill="none" xmlns="http://www.w3.org/2000/svg">
<path d="M218.288 484L465.153 380.634C488.259 396.442 521.698 418.942 544.805 434.143C573.99 452.991 594.667 449.344 603.785 434.749C613.515 420.155 608.043 400.7 578.854 381.851C555.748 366.65 521.697 344.153 497.985 329.559L491.296 155.659C491.296 155.659 476.095 184.237 438.398 165.996C432.315 177.549 417.725 179.98 417.725 179.98L394.623 266.321L268.758 193.968L265.111 111.274L240.791 95.4661L214.648 182.414L145.934 240.784L170.253 256.592L247.475 226.19L365.435 310.707L177.551 457.245L212.817 479.742" fill="var(--primary-color)"/>
<path d="M342.936 34.0493C346.583 38.9142 347.801 41.3445 351.448 49.2504C355.706 58.3692 356.92 60.8042 358.137 68.0985C359.961 75.3937 360.567 83.2996 359.354 89.3822C358.748 92.4232 358.137 94.8536 357.53 94.8536C356.313 94.8536 353.883 92.4232 351.448 89.3822C350.231 88.1649 349.018 86.3411 349.018 86.3411C349.018 85.7346 347.801 96.6773 348.411 103.366C349.018 114.309 350.842 122.826 355.1 131.944C357.53 137.416 359.358 139.85 363.006 144.104C372.125 154.44 384.895 161.735 398.879 164.169C403.744 165.387 410.433 164.776 412.863 163.563C414.08 162.956 413.47 162.346 411.646 161.132C407.998 158.091 403.74 153.227 401.31 148.973C398.879 144.714 395.227 137.419 394.014 131.948C392.191 125.259 392.191 117.964 392.797 110.664C392.797 108.234 394.621 100.328 395.227 98.5042C395.227 97.8977 395.834 98.5042 397.658 99.1107C408.6 103.369 418.33 114.312 422.589 126.472C425.63 134.377 427.453 142.89 427.453 152.009V156.874C428.06 156.874 431.712 152.009 433.536 149.579C434.142 148.362 435.359 147.149 435.359 147.149C435.359 147.149 435.966 147.149 436.577 148.366C443.265 154.448 452.995 158.702 465.155 158.702H468.196C468.196 158.096 466.978 157.485 465.765 156.272C462.724 153.841 459.077 150.19 456.646 147.153C454.216 143.505 451.175 136.21 449.958 133.169C448.741 127.698 449.351 121.615 449.958 117.968L450.564 116.144L452.388 116.751C454.818 117.357 459.077 121.009 462.118 122.833C471.237 129.521 476.712 138.641 477.926 150.194C478.532 152.624 478.532 154.452 478.532 154.452C479.139 154.452 481.573 152.628 483.397 150.194C485.221 147.153 487.045 144.111 488.869 140.464C491.91 132.558 491.91 124.656 490.086 116.144C488.869 112.497 485.827 105.808 484.004 102.768C479.745 96.0789 473.667 90.6078 466.373 86.3493L464.549 85.7428V86.9601C464.549 87.5666 464.549 88.7839 465.155 89.3904C465.762 91.8207 465.762 93.6488 465.155 94.2553C464.549 94.8618 462.114 93.038 459.684 91.2142C454.819 88.7839 450.565 83.3084 446.913 77.8373C445.089 74.7962 440.224 65.6776 439.007 61.4191C439.007 59.5953 437.79 57.7715 437.79 57.7715C437.79 57.7715 436.573 59.5953 435.359 62.6364C433.536 67.5013 431.101 74.7961 429.888 79.6615L429.282 81.4854L427.458 79.6615C426.24 79.055 424.417 77.2312 422.593 75.4032C404.958 59.5876 377.597 44.9924 342.936 34.0499H340.506L342.936 34.0493Z" fill="var(--primary-color)"/>
<path d="M89.3809 1.82412L223.15 102.76L227.408 88.7762L91.8151 0L89.3809 1.82412Z" fill="var(--primary-color)"/>
<path d="M0 132.552L133.769 233.488L145.929 224.369L2.43108 131.334L0 132.552Z" fill="var(--primary-color)"/>
<path d="M82.0859 91.2052L194.574 176.329L200.656 173.288L202.48 167.206L84.5195 89.9875L82.0859 91.2052Z" fill="var(--primary-color)"/>
<path d="M100.326 290.035L234.095 390.971L246.255 381.852L102.757 288.211L100.326 290.035Z" fill="var(--primary-color)"/>
</svg>
