<svg width="114" height="33" viewBox="0 0 114 33" fill="none" xmlns="http://www.w3.org/2000/svg">
<path d="M109.584 33H4.21476C1.85449 33 0 31.1892 0 28.8845V4.19165C0 1.88698 1.85449 0.0761719 4.21476 0.0761719H109.584C111.944 0.0761719 113.798 1.88698 113.798 4.19165V28.8845C113.798 31.1892 111.944 33 109.584 33Z" fill="black"/>
<path d="M109.584 0.734649C111.522 0.734649 113.124 2.29853 113.124 4.19165V28.8845C113.124 30.7777 111.522 32.3415 109.584 32.3415H4.21476C2.27597 32.3415 0.674361 30.7777 0.674361 28.8845V4.19165C0.674361 2.29853 2.27597 0.734649 4.21476 0.734649H109.584ZM109.584 0.0761719H4.21476C1.85449 0.0761719 0 1.96929 0 4.19165V28.8845C0 31.1892 1.85449 33 4.21476 33H109.584C111.944 33 113.798 31.1892 113.798 28.8845V4.19165C113.798 1.96929 111.944 0.0761719 109.584 0.0761719Z" fill="#A6A6A6"/>
<path d="M39.9559 8.47183C39.9559 9.13031 39.7873 9.70648 39.3658 10.118C38.8601 10.6119 38.27 10.8588 37.5114 10.8588C36.7527 10.8588 36.1626 10.6119 35.6569 10.118C35.1511 9.62417 34.8982 9.048 34.8982 8.30721C34.8982 7.56643 35.1511 6.99026 35.6569 6.4964C36.1626 6.00254 36.7527 5.75562 37.5114 5.75562C37.8485 5.75562 38.1857 5.83792 38.5229 6.00254C38.8601 6.16716 39.113 6.33178 39.2816 6.57871L38.8601 6.99026C38.5229 6.57871 38.1014 6.41409 37.5114 6.41409C37.0056 6.41409 36.4998 6.57871 36.1626 6.99026C35.7412 7.3195 35.5726 7.81336 35.5726 8.38952C35.5726 8.96569 35.7412 9.45955 36.1626 9.78879C36.5841 10.118 37.0056 10.365 37.5114 10.365C38.1014 10.365 38.5229 10.2003 38.9444 9.78879C39.1973 9.54186 39.3658 9.21262 39.3658 8.80107H37.5114V8.14259H39.9559V8.47183ZM43.8335 6.41409H41.5575V7.97797H43.6649V8.55414H41.5575V10.118H43.8335V10.7765H40.8832V5.83792H43.8335V6.41409ZM46.6152 10.7765H45.9409V6.41409H44.5079V5.83792H48.0482V6.41409H46.6152V10.7765ZM50.4928 10.7765V5.83792H51.1672V10.7765H50.4928ZM54.0332 10.7765H53.3588V6.41409H51.9258V5.83792H55.3819V6.41409H53.9489V10.7765H54.0332ZM62.0412 10.118C61.5355 10.6119 60.9454 10.8588 60.1867 10.8588C59.4281 10.8588 58.838 10.6119 58.3323 10.118C57.8265 9.62417 57.5736 9.048 57.5736 8.30721C57.5736 7.56643 57.8265 6.99026 58.3323 6.4964C58.838 6.00254 59.4281 5.75562 60.1867 5.75562C60.9454 5.75562 61.5355 6.00254 62.0412 6.4964C62.547 6.99026 62.7999 7.56643 62.7999 8.30721C62.7999 9.048 62.547 9.62417 62.0412 10.118ZM58.838 9.70648C59.1752 10.0357 59.681 10.2826 60.1867 10.2826C60.6925 10.2826 61.1983 10.118 61.5355 9.70648C61.8727 9.37724 62.1255 8.88338 62.1255 8.30721C62.1255 7.73105 61.9569 7.23719 61.5355 6.90795C61.1983 6.57871 60.6925 6.33178 60.1867 6.33178C59.681 6.33178 59.1752 6.4964 58.838 6.90795C58.5008 7.23719 58.248 7.73105 58.248 8.30721C58.248 8.88338 58.4166 9.37724 58.838 9.70648ZM63.7271 10.7765V5.83792H64.4858L66.9304 9.70648V5.83792H67.6047V10.7765H66.9304L64.3172 6.74333V10.7765H63.7271Z" fill="white"/>
<path d="M57.4051 18.0197C55.382 18.0197 53.7804 19.5012 53.7804 21.559C53.7804 23.5344 55.382 25.0983 57.4051 25.0983C59.4282 25.0983 61.0298 23.6167 61.0298 21.559C61.0298 19.4189 59.4282 18.0197 57.4051 18.0197ZM57.4051 23.6167C56.3093 23.6167 55.382 22.7113 55.382 21.4767C55.382 20.242 56.3093 19.3366 57.4051 19.3366C58.5009 19.3366 59.4282 20.1597 59.4282 21.4767C59.4282 22.7113 58.5009 23.6167 57.4051 23.6167ZM49.5656 18.0197C47.5426 18.0197 45.941 19.5012 45.941 21.559C45.941 23.5344 47.5426 25.0983 49.5656 25.0983C51.5887 25.0983 53.1903 23.6167 53.1903 21.559C53.1903 19.4189 51.5887 18.0197 49.5656 18.0197ZM49.5656 23.6167C48.4698 23.6167 47.5426 22.7113 47.5426 21.4767C47.5426 20.242 48.4698 19.3366 49.5656 19.3366C50.6615 19.3366 51.5887 20.1597 51.5887 21.4767C51.5887 22.7113 50.6615 23.6167 49.5656 23.6167ZM40.2089 19.0897V20.5713H43.8336C43.7493 21.3944 43.4121 22.0528 42.9906 22.4644C42.4848 22.9583 41.6419 23.5344 40.2089 23.5344C37.9329 23.5344 36.247 21.8059 36.247 19.5836C36.247 17.3612 38.0172 15.6327 40.2089 15.6327C41.389 15.6327 42.3163 16.1266 42.9906 16.7027L44.0865 15.6327C43.1592 14.8096 41.9791 14.1511 40.2932 14.1511C37.2586 14.1511 34.6454 16.6204 34.6454 19.5836C34.6454 22.5467 37.2586 25.016 40.2932 25.016C41.9791 25.016 43.1592 24.5221 44.1708 23.4521C45.1823 22.4644 45.5195 21.0651 45.5195 19.9951C45.5195 19.6659 45.5195 19.3366 45.4352 19.0897H40.2089ZM78.4789 20.242C78.1417 19.4189 77.2987 18.0197 75.4442 18.0197C73.5898 18.0197 72.0724 19.4189 72.0724 21.559C72.0724 23.5344 73.5898 25.0983 75.6128 25.0983C77.2144 25.0983 78.226 24.1106 78.5632 23.5344L77.383 22.7113C76.9616 23.2875 76.4558 23.699 75.6128 23.699C74.7699 23.699 74.2641 23.3698 73.8426 22.629L78.6475 20.6536L78.4789 20.242ZM73.5898 21.3944C73.5898 20.0774 74.6856 19.3366 75.4442 19.3366C76.0343 19.3366 76.6244 19.6659 76.793 20.0774L73.5898 21.3944ZM69.6279 24.7691H71.2295V14.4804H69.6279V24.7691ZM67.099 18.7605C66.6776 18.3489 66.0032 17.9374 65.1602 17.9374C63.39 17.9374 61.7041 19.5012 61.7041 21.4767C61.7041 23.4521 63.3058 24.9337 65.1602 24.9337C66.0032 24.9337 66.6776 24.5221 67.0147 24.1106H67.099V24.6044C67.099 25.9214 66.3404 26.6622 65.1602 26.6622C64.233 26.6622 63.5586 26.0037 63.39 25.4275L62.0413 26.0037C62.4628 26.9091 63.4743 28.0614 65.2445 28.0614C67.099 28.0614 68.6163 26.9914 68.6163 24.4398V18.1843H67.099V18.7605ZM65.2445 23.6167C64.1487 23.6167 63.2215 22.7113 63.2215 21.4767C63.2215 20.242 64.1487 19.3366 65.2445 19.3366C66.3404 19.3366 67.1833 20.242 67.1833 21.4767C67.1833 22.7113 66.3404 23.6167 65.2445 23.6167ZM85.8126 14.4804H82.0193V24.7691H83.6209V20.9005H85.8126C87.5827 20.9005 89.2687 19.6659 89.2687 17.6904C89.2687 15.715 87.5827 14.4804 85.8126 14.4804ZM85.8968 19.4189H83.6209V15.8796H85.8968C87.077 15.8796 87.7513 16.8673 87.7513 17.6081C87.667 18.5135 86.9927 19.4189 85.8968 19.4189ZM95.5908 17.9374C94.4107 17.9374 93.2305 18.4312 92.809 19.5012L94.2421 20.0774C94.5792 19.5012 95.085 19.3366 95.6751 19.3366C96.518 19.3366 97.2767 19.8305 97.361 20.6536V20.7359C97.1081 20.5713 96.4337 20.3243 95.7594 20.3243C94.2421 20.3243 92.7248 21.1474 92.7248 22.629C92.7248 24.0283 93.9892 24.9337 95.3379 24.9337C96.4337 24.9337 96.9395 24.4398 97.361 23.946H97.4453V24.7691H98.9626V20.8182C98.794 19.0074 97.361 17.9374 95.5908 17.9374ZM95.4222 23.6167C94.9164 23.6167 94.1578 23.3698 94.1578 22.7113C94.1578 21.8882 95.085 21.6413 95.8437 21.6413C96.518 21.6413 96.8552 21.8059 97.2767 21.9705C97.1081 22.9583 96.2651 23.6167 95.4222 23.6167ZM104.273 18.1843L102.503 22.629H102.419L100.564 18.1843H98.8783L101.66 24.4398L100.058 27.8968H101.66L105.959 18.1843H104.273ZM90.1116 24.7691H91.7132V14.4804H90.1116V24.7691Z" fill="white"/>
<path d="M8.76665 6.24905C8.51377 6.49598 8.42947 6.90753 8.42947 7.40139V25.5918C8.42947 26.0857 8.59806 26.4972 8.85095 26.7441L8.93525 26.8265L19.3878 16.6201V16.4554L8.76665 6.24905Z" fill="url(#paint0_linear_3897_9369)"/>
<path d="M22.7599 20.0771L19.3038 16.7024V16.4555L22.7599 13.0808L22.8442 13.1631L26.9746 15.4678C28.1548 16.1263 28.1548 17.1963 26.9746 17.8548L22.7599 20.0771Z" fill="url(#paint1_linear_3897_9369)"/>
<path d="M22.8439 19.9948L19.3035 16.5378L8.76662 26.8265C9.18809 27.2381 9.77816 27.2381 10.5368 26.9088L22.8439 19.9948Z" fill="url(#paint2_linear_3897_9369)"/>
<path d="M22.8439 13.0807L10.5368 6.24903C9.77816 5.83748 9.18809 5.91979 8.76662 6.33134L19.3035 16.5377L22.8439 13.0807Z" fill="url(#paint3_linear_3897_9369)"/>
<path opacity="0.2" d="M22.7596 19.9124L10.5368 26.6618C9.86245 27.0733 9.27239 26.991 8.85091 26.6618L8.76662 26.7441L8.85091 26.8264C9.27239 27.1557 9.86245 27.238 10.5368 26.8264L22.7596 19.9124Z" fill="black"/>
<path opacity="0.12" d="M8.76665 26.6619C8.51377 26.415 8.42947 26.0034 8.42947 25.5096V25.5919C8.42947 26.0858 8.59806 26.4973 8.85095 26.7442V26.6619H8.76665ZM26.9744 17.6079L22.7596 19.9125L22.8439 19.9948L26.9744 17.6902C27.5645 17.3609 27.8174 16.9494 27.8174 16.5378C27.8174 16.9494 27.4802 17.2786 26.9744 17.6079Z" fill="black"/>
<path opacity="0.25" d="M10.5369 6.33145L26.9745 15.4678C27.4802 15.7971 27.8174 16.1263 27.8174 16.5378C27.8174 16.1263 27.5645 15.7147 26.9745 15.3855L10.5369 6.24914C9.35678 5.59066 8.42953 6.08452 8.42953 7.40147V7.48378C8.42953 6.24914 9.35678 5.67297 10.5369 6.33145Z" fill="white"/>
<defs>
<linearGradient id="paint0_linear_3897_9369" x1="18.3763" y1="7.245" x2="4.56618" y2="21.3874" gradientUnits="userSpaceOnUse">
<stop stop-color="#00A0FF"/>
<stop offset="0.007" stop-color="#00A1FF"/>
<stop offset="0.26" stop-color="#00BEFF"/>
<stop offset="0.512" stop-color="#00D2FF"/>
<stop offset="0.76" stop-color="#00DFFF"/>
<stop offset="1" stop-color="#00E3FF"/>
</linearGradient>
<linearGradient id="paint1_linear_3897_9369" x1="28.5206" y1="16.5386" x2="8.12371" y2="16.5386" gradientUnits="userSpaceOnUse">
<stop stop-color="#FFE000"/>
<stop offset="0.409" stop-color="#FFBD00"/>
<stop offset="0.775" stop-color="#FFA500"/>
<stop offset="1" stop-color="#FF9C00"/>
</linearGradient>
<linearGradient id="paint2_linear_3897_9369" x1="20.9279" y1="18.4277" x2="2.20118" y2="37.6061" gradientUnits="userSpaceOnUse">
<stop stop-color="#FF3A44"/>
<stop offset="1" stop-color="#C31162"/>
</linearGradient>
<linearGradient id="paint3_linear_3897_9369" x1="6.15094" y1="0.220672" x2="14.5137" y2="8.78515" gradientUnits="userSpaceOnUse">
<stop stop-color="#32A071"/>
<stop offset="0.069" stop-color="#2DA771"/>
<stop offset="0.476" stop-color="#15CF74"/>
<stop offset="0.801" stop-color="#06E775"/>
<stop offset="1" stop-color="#00F076"/>
</linearGradient>
</defs>
</svg>
