<svg xmlns="http://www.w3.org/2000/svg" width="20" height="22" viewBox="0 0 20 22" fill="white">
  <path d="M14.2854 7.61801L19.3904 16.1356L18.4639 18.0545L12.1883 11.9615L9.70537 17.1043L11.7258 20.0787L11.0309 21.5179L7.30593 18.4945L2.65446 17.3899L3.34932 15.9507L6.91369 15.7273L9.39664 10.5845L0.780298 9.33976L1.70677 7.42083L11.4933 6.242L14.0165 1.01579C14.2008 0.634087 14.5246 0.340507 14.9167 0.19963C15.3089 0.0587538 15.7372 0.0821212 16.1074 0.264591C16.4777 0.447062 16.7596 0.773688 16.8911 1.17262C17.0226 1.57155 16.9929 2.0101 16.8087 2.3918L14.2854 7.61801Z" />
</svg>