 <svg
                  xmlns="http://www.w3.org/2000/svg"
                  width="36"
                  height="36"
                  viewBox="0 0 36 36"
                 
                >
                  <path
                    fillRule="evenodd"
                    clipRule="evenodd"
                    d="M16.209 0.859131C13.6196 0.8594 11.0679 1.45463 8.76751 2.59498C6.46716 3.73534 4.48511 5.38764 2.98726 7.41357C1.48942 9.4395 0.519381 11.7801 0.158343 14.2394C-0.202694 16.6988 0.0557789 19.2053 0.912125 21.5492C1.76847 23.893 3.19777 26.006 5.08038 27.7113C6.96298 29.4165 9.2441 30.6644 11.7328 31.3504C14.2215 32.0365 16.8453 32.1408 19.3846 31.6545C21.924 31.1682 24.3049 30.1056 26.3281 28.5556L32.9475 34.9044C33.2872 35.2191 33.7422 35.3932 34.2145 35.3893C34.6867 35.3853 35.1385 35.2036 35.4724 34.8833C35.8064 34.563 35.9958 34.1297 35.9999 33.6768C36.004 33.2238 35.8225 32.7874 35.4944 32.4616L28.875 26.1128C30.7806 23.8252 31.9741 21.0681 32.318 18.1586C32.6619 15.2492 32.1422 12.3058 30.8188 9.66715C29.4954 7.02851 27.422 4.80193 24.8374 3.24369C22.2527 1.68544 19.2618 0.858878 16.209 0.859131ZM5.40183 16.4073C5.40183 15.0461 5.68137 13.6982 6.22448 12.4406C6.76759 11.183 7.56364 10.0403 8.56717 9.07781C9.57071 8.11529 10.7621 7.35178 12.0733 6.83087C13.3845 6.30995 14.7898 6.04184 16.209 6.04184C17.6282 6.04184 19.0335 6.30995 20.3447 6.83087C21.6559 7.35178 22.8473 8.11529 23.8508 9.07781C24.8544 10.0403 25.6504 11.183 26.1935 12.4406C26.7366 13.6982 27.0162 15.0461 27.0162 16.4073C27.0162 19.1564 25.8776 21.7928 23.8508 23.7367C21.8241 25.6806 19.0752 26.7727 16.209 26.7727C13.3428 26.7727 10.5939 25.6806 8.56717 23.7367C6.54044 21.7928 5.40183 19.1564 5.40183 16.4073Z"
                   
                  />
                </svg>