<svg width="24" height="23" viewBox="0 0 24 23" fill="#5F6368" xmlns="http://www.w3.org/2000/svg">
<path id="Vector" d="M11.7592 6.31262C10.7453 6.31262 9.75415 6.61322 8.91111 7.17641C8.06808 7.7396 7.41101 8.54008 7.023 9.47663C6.63499 10.4132 6.53347 11.4437 6.73128 12.438C6.92908 13.4322 7.41733 14.3455 8.13427 15.0623C8.85122 15.7791 9.76466 16.2672 10.7591 16.465C11.7535 16.6627 12.7843 16.5612 13.721 16.1733C14.6577 15.7854 15.4584 15.1284 16.0217 14.2856C16.585 13.4427 16.8856 12.4518 16.8856 11.438C16.8839 10.0792 16.3432 8.77659 15.3822 7.81577C14.4212 6.85495 13.1183 6.31439 11.7592 6.31262ZM11.7592 15.2264C11.0098 15.2264 10.2772 15.0042 9.65409 14.5879C9.03098 14.1717 8.54532 13.58 8.25853 12.8878C7.97174 12.1956 7.89671 11.4338 8.04291 10.699C8.18911 9.9641 8.54999 9.28908 9.07991 8.75927C9.60982 8.22946 10.285 7.86865 11.02 7.72248C11.755 7.5763 12.5169 7.65133 13.2092 7.93806C13.9016 8.22479 14.4934 8.71035 14.9097 9.33334C15.3261 9.95634 15.5483 10.6888 15.5483 11.438C15.5483 12.4428 15.1491 13.4064 14.4385 14.1168C13.7279 14.8273 12.7641 15.2264 11.7592 15.2264ZM21.3434 11.7545C21.3501 11.5439 21.3501 11.3322 21.3434 11.1216L23.0519 8.98675C23.1172 8.90503 23.1624 8.80913 23.1839 8.70676C23.2053 8.60439 23.2025 8.4984 23.1756 8.39733C22.9083 7.39015 22.508 6.42305 21.9853 5.52152C21.9334 5.43002 21.8606 5.35206 21.7729 5.29398C21.6852 5.2359 21.585 5.19933 21.4805 5.18725L18.7557 4.8853C18.6123 4.73154 18.4637 4.58297 18.3099 4.43961L18.0068 1.71422C17.9947 1.60972 17.9581 1.50955 17.9 1.42184C17.8419 1.33414 17.764 1.26138 17.6724 1.20948C16.7718 0.688419 15.8061 0.28902 14.8005 0.0217159C14.6992 -0.00476093 14.593 -0.0070604 14.4906 0.015003C14.3882 0.0370663 14.2924 0.0828752 14.211 0.148737L12.0713 1.8613C11.8603 1.85461 11.6492 1.85461 11.4382 1.8613L9.30743 0.147623C9.2257 0.0823335 9.12978 0.0371312 9.02738 0.0156507C8.92499 -0.00582979 8.81899 -0.0029892 8.71789 0.0239442C7.71052 0.291192 6.74323 0.691373 5.84152 1.21393C5.75 1.26584 5.67203 1.3386 5.61393 1.4263C5.55584 1.51401 5.51927 1.61418 5.50719 1.71868L5.20963 4.44295C5.05584 4.58706 4.90724 4.73562 4.76385 4.88864L2.03681 5.19839C1.93229 5.21047 1.8321 5.24704 1.74438 5.30512C1.65666 5.3632 1.58388 5.44116 1.53197 5.53266C1.01081 6.43309 0.61133 7.39862 0.343973 8.40401C0.318131 8.5041 0.315852 8.60881 0.337316 8.70992C0.35878 8.81103 0.403402 8.90579 0.467677 8.98675L2.18057 11.1261C2.17389 11.337 2.17389 11.548 2.18057 11.7589L0.466562 13.8949C0.40126 13.9766 0.356049 14.0725 0.334564 14.1749C0.313079 14.2773 0.31592 14.3833 0.342859 14.4843C0.610625 15.4896 1.01087 16.4548 1.53308 17.3546C1.585 17.4461 1.65777 17.524 1.74549 17.5821C1.83321 17.6402 1.93341 17.6768 2.03793 17.6888L4.76274 17.9908C4.90687 18.1445 5.05546 18.2931 5.20852 18.4365L5.51833 21.1585C5.53041 21.263 5.56698 21.3632 5.62508 21.4509C5.68317 21.5386 5.76115 21.6114 5.85266 21.6633C6.75327 22.1843 7.71899 22.5837 8.72458 22.851C8.82567 22.878 8.93168 22.8808 9.03407 22.8593C9.13646 22.8378 9.23238 22.7926 9.31412 22.7273L11.4427 21.0204C11.6533 21.027 11.8651 21.027 12.0757 21.0204L14.2166 22.734C14.3352 22.8287 14.4826 22.8802 14.6345 22.88C14.6924 22.8798 14.75 22.8723 14.8061 22.8577C15.8115 22.59 16.7769 22.1898 17.6769 21.6677C17.7684 21.6158 17.8464 21.5431 17.9045 21.4554C17.9626 21.3676 17.9992 21.2675 18.0112 21.163L18.3132 18.4387C18.467 18.2953 18.6156 18.1468 18.759 17.993L21.4849 17.6899C21.5895 17.6779 21.6897 17.6413 21.7774 17.5832C21.8651 17.5251 21.9379 17.4472 21.9898 17.3557C22.5111 16.4553 22.9106 15.4898 23.1778 14.4843C23.2047 14.3833 23.2076 14.2773 23.1861 14.1749C23.1646 14.0725 23.1194 13.9766 23.0541 13.8949L21.3434 11.7545ZM20.9979 16.393L18.3634 16.686C18.1988 16.705 18.0471 16.7844 17.9377 16.9089C17.7174 17.157 17.4826 17.3917 17.2345 17.6119C17.11 17.7213 17.0306 17.873 17.0116 18.0376L16.7185 20.6705C16.1017 20.9994 15.4536 21.2659 14.7838 21.466L12.7143 19.8103C12.5956 19.7156 12.4482 19.6642 12.2964 19.6643H12.2563C11.9252 19.6833 11.5933 19.6833 11.2622 19.6643C11.0968 19.6542 10.9336 19.7059 10.8041 19.8092L8.73573 21.466C8.06657 21.2648 7.41921 20.9971 6.80328 20.6671L6.51018 18.0354C6.49121 17.8708 6.41178 17.7191 6.2873 17.6097C6.03917 17.3895 5.80435 17.1547 5.58408 16.9066C5.4747 16.7822 5.32299 16.7028 5.15836 16.6838L2.52494 16.3908C2.19634 15.7758 1.92979 15.1298 1.72923 14.462L3.38529 12.3929C3.48865 12.2635 3.54028 12.1003 3.53016 11.935C3.51122 11.604 3.51122 11.2721 3.53016 10.9411C3.54028 10.7758 3.48865 10.6126 3.38529 10.4832L1.72923 8.41516C1.93055 7.74613 2.19823 7.0989 2.52828 6.48309L5.16059 6.19005C5.32522 6.17108 5.47693 6.09167 5.58631 5.96721C5.80658 5.71913 6.0414 5.48436 6.28952 5.26413C6.414 5.15477 6.49343 5.00309 6.51241 4.8385L6.80551 2.20559C7.42055 1.87706 8.06677 1.61056 8.73461 1.41004L10.8041 3.06577C10.9336 3.16912 11.0968 3.22073 11.2622 3.21062C11.5933 3.19168 11.9252 3.19168 12.2563 3.21062C12.4216 3.22073 12.5848 3.16912 12.7143 3.06577L14.7827 1.41004C15.4518 1.61132 16.0992 1.87895 16.7151 2.20893L17.0082 4.84296C17.0272 5.00755 17.1066 5.15923 17.2311 5.26859C17.4792 5.48881 17.7141 5.72359 17.9343 5.97167C18.0437 6.09612 18.1954 6.17554 18.3601 6.19451L20.9935 6.48755C21.3219 7.10175 21.5885 7.74709 21.7892 8.41404L20.1331 10.4832C20.0298 10.6126 19.9781 10.7758 19.9883 10.9411C20.0072 11.2721 20.0072 11.604 19.9883 11.935C19.9781 12.1003 20.0298 12.2635 20.1331 12.3929L21.7892 14.4609C21.5886 15.1299 21.3216 15.7771 20.9924 16.393H20.9979Z"  />
</svg>
