<svg width="33" height="33" viewBox="0 0 33 33" fill="none" xmlns="http://www.w3.org/2000/svg">
<path d="M29.6647 10.4405C30.4458 10.4405 31.195 10.7518 31.7473 11.3058C32.2997 11.8599 32.61 12.6114 32.61 13.3949V19.3038C32.61 20.0874 32.2997 20.8388 31.7473 21.3929C31.195 21.947 30.4458 22.2582 29.6647 22.2582H28.1008C27.7418 25.1141 26.3561 27.7405 24.2038 29.6443C22.0516 31.5482 19.2806 32.5987 16.4111 32.5988V29.6443C18.7544 29.6443 21.0019 28.7105 22.6589 27.0483C24.3159 25.3861 25.2468 23.1317 25.2468 20.781V11.9177C25.2468 9.56702 24.3159 7.3126 22.6589 5.65041C21.0019 3.98822 18.7544 3.05441 16.4111 3.05441C14.0677 3.05441 11.8203 3.98822 10.1632 5.65041C8.5062 7.3126 7.57529 9.56702 7.57529 11.9177V22.2582H3.15741C2.37628 22.2582 1.62715 21.947 1.0748 21.3929C0.522461 20.8388 0.212158 20.0874 0.212158 19.3038V13.3949C0.212158 12.6114 0.522461 11.8599 1.0748 11.3058C1.62715 10.7518 2.37628 10.4405 3.15741 10.4405H4.72134C5.08071 7.58488 6.46652 4.95894 8.61876 3.05541C10.771 1.15187 13.5417 0.101562 16.4111 0.101562C19.2804 0.101562 22.0511 1.15187 24.2034 3.05541C26.3556 4.95894 27.7414 7.58488 28.1008 10.4405H29.6647ZM10.1671 21.9406L11.7281 19.4353C13.1316 20.3172 14.7549 20.7837 16.4111 20.781C18.0672 20.7837 19.6905 20.3172 21.094 19.4353L22.655 21.9406C20.7837 23.1167 18.6193 23.7389 16.4111 23.7355C14.2028 23.7389 12.0384 23.1167 10.1671 21.9406Z" fill="white"/>
</svg>
