<svg xmlns="http://www.w3.org/2000/svg" width="27" height="26" viewBox="0 0 32 31" fill="#D9D9D9">
  <rect width="32" height="31" rx="3" />
  <path d="M16.1579 13.1596C18.4112 13.1596 20.2378 11.333 20.2378 9.07982C20.2378 6.8266 18.4112 5 16.1579 5C13.9047 5 12.0781 6.8266 12.0781 9.07982C12.0781 11.333 13.9047 13.1596 16.1579 13.1596Z" stroke="#5F6368" strokeWidth="1.6"/>
  <path d="M24.3162 20.9201C24.3193 20.7528 24.3193 20.5825 24.3193 20.4101C24.3193 17.8755 20.6658 15.8203 16.1596 15.8203C11.6535 15.8203 8 17.8755 8 20.4101C8 22.9447 8 24.9999 16.1596 24.9999C18.4352 24.9999 20.0763 24.8398 21.2594 24.5542" stroke="#5F6368" strokeWidth="1.6" strokeLinecap="round"/>
</svg>