<svg width="24" height="21" viewBox="0 0 24 21" fill="none" xmlns="http://www.w3.org/2000/svg" stroke="#5F6368">
<path id="Vector" d="M1.19922 4.08V17.94C1.19922 18.3484 1.36478 18.7401 1.65948 19.0289C1.95418 19.3177 2.35388 19.48 2.77065 19.48H21.6278C22.0446 19.48 22.4443 19.3177 22.739 19.0289C23.0337 18.7401 23.1992 18.3484 23.1992 17.94V5.62C23.1992 5.21157 23.0337 4.81986 22.739 4.53106C22.4443 4.24225 22.0446 4.08 21.6278 4.08H5.12779M1.19922 4.08V2.54C1.19922 2.13157 1.36478 1.73986 1.65948 1.45106C1.95418 1.16225 2.35388 1 2.77065 1H15.3421C15.7589 1 16.1586 1.16225 16.4533 1.45106C16.748 1.73986 16.9135 2.13157 16.9135 2.54V4.08H5.12779M1.19922 4.08H5.12779M14.5564 13.32H19.2707"  strokeWidth="1.32"/>
</svg>
