<svg width="21" height="17" viewBox="0 0 21 17" fill="none" xmlns="http://www.w3.org/2000/svg">
<path fill-rule="evenodd" clip-rule="evenodd" d="M11.303 14.6184C11.0554 14.8635 10.7211 15.001 10.3728 15.001C10.0244 15.001 9.69012 14.8635 9.44256 14.6184C9.19585 14.3719 9.0572 14.0374 9.0571 13.6886C9.05701 13.3398 9.19547 13.0053 9.44204 12.7586C9.68861 12.5119 10.0231 12.3732 10.3719 12.3731C10.7207 12.373 11.0552 12.5115 11.3019 12.758C11.8143 13.2704 11.8153 14.1051 11.303 14.6184ZM8.56866 11.8841C8.08963 12.3634 7.82053 13.0132 7.82053 13.6908C7.82053 14.3684 8.08963 15.0183 8.56866 15.4975C8.80588 15.7342 9.08749 15.9217 9.39735 16.0494C9.7072 16.177 10.0392 16.2422 10.3743 16.2413C11.0271 16.2413 11.6821 15.9933 12.18 15.4975V15.4954C12.6415 15.0129 12.8958 14.3688 12.8884 13.7011C12.8809 13.0334 12.6123 12.3951 12.1401 11.923C11.6678 11.4509 11.0295 11.1825 10.3618 11.1752C9.69405 11.1679 9.05003 11.4224 8.56762 11.8841M5.52963 9.19839C5.42015 9.31588 5.36054 9.47128 5.36338 9.63185C5.36621 9.79242 5.43126 9.94562 5.54481 10.0592C5.65837 10.1727 5.81157 10.2378 5.97214 10.2406C6.1327 10.2434 6.2881 10.1838 6.40559 10.0744C7.45834 9.02371 8.88491 8.43364 10.3722 8.43364C11.8596 8.43364 13.2861 9.02371 14.3389 10.0744C14.4564 10.1838 14.6118 10.2434 14.7723 10.2406C14.9329 10.2378 15.0861 10.1727 15.1997 10.0592C15.3132 9.94562 15.3783 9.79242 15.3811 9.63185C15.3839 9.47128 15.3243 9.31588 15.2149 9.19839C12.5456 6.5271 8.20091 6.52814 5.52963 9.19839Z" fill="##003566"/>
<path fill-rule="evenodd" clip-rule="evenodd" d="M2.84994 6.71342C2.74046 6.83091 2.68086 6.98631 2.68369 7.14687C2.68652 7.30744 2.75157 7.46064 2.86513 7.5742C2.97868 7.68775 3.13188 7.7528 3.29245 7.75563C3.45302 7.75847 3.60841 7.69886 3.72591 7.58938C7.39092 3.92643 13.3554 3.92437 17.0214 7.59042C17.1382 7.70492 17.2954 7.76864 17.4589 7.7677C17.6225 7.76676 17.779 7.70124 17.8944 7.5854C18.0098 7.46957 18.0748 7.31282 18.0752 7.14929C18.0755 6.98577 18.0113 6.82873 17.8963 6.71238C13.7489 2.56393 6.99839 2.56497 2.84994 6.71342Z" fill="#003566"/>
<path fill-rule="evenodd" clip-rule="evenodd" d="M20.576 4.22805C19.2392 2.88312 17.6487 1.81688 15.8968 1.09112C14.1449 0.365355 12.2664 -0.00549429 10.3701 6.15122e-05C6.51504 6.15122e-05 2.89135 1.50098 0.166344 4.22805C0.056865 4.34554 -0.00273646 4.50094 9.65606e-05 4.66151C0.00292959 4.82208 0.0679759 4.97528 0.181532 5.08883C0.295088 5.20239 0.448287 5.26743 0.608855 5.27027C0.769422 5.2731 0.924821 5.2135 1.04231 5.10402C2.26439 3.87517 3.71806 2.90089 5.31917 2.23757C6.92029 1.57425 8.63706 1.23507 10.3701 1.23964C13.8936 1.23964 17.2064 2.61247 19.6979 5.10299C19.8158 5.20988 19.9702 5.26737 20.1293 5.26355C20.2883 5.25973 20.4398 5.19489 20.5524 5.08246C20.6649 4.97002 20.73 4.81861 20.734 4.65956C20.738 4.50051 20.6807 4.34601 20.5739 4.22805" fill="#003566"/>
</svg>
